<svg width="512" height="512" viewBox="0 0 512 512" fill="none" xmlns="http://www.w3.org/2000/svg">
<path fill-rule="evenodd" clip-rule="evenodd" d="M429.486 438.425C429.486 438.425 440.843 402.712 422.724 368.485C419.722 377.8 418.465 383.173 418.465 383.173C418.465 383.173 419.423 363.384 407.897 353.887C404.659 358.326 403.634 359.94 402.915 366.451C400.605 356.459 401.344 350.696 389.42 343.805C386.558 352.8 387.552 353.44 387.552 353.44C387.552 353.44 381.619 340.254 365.726 339C364.187 350.943 364.16 355.436 368.613 362.128C360.677 358.896 358.439 360.963 358.439 360.963C358.439 360.963 361.659 378.104 367.955 383.708C356.948 378.543 358.029 382.57 358.029 382.57C358.029 382.57 362.597 410.764 376.732 416.444C365.92 413.016 368.372 420.17 368.372 420.17C368.372 420.17 374.487 427.593 383.965 434.153C394.772 441.633 409.95 447.99 425.423 440.947C417.821 420.205 404.596 401.861 389.488 384.322C403.01 397.298 415.45 411.423 429.486 438.425Z" fill="#81C784"/>
</svg>
