<?xml version="1.0" encoding="utf-8"?>
<!-- Generator: Adobe Illustrator 28.0.0, SVG Export Plug-In . SVG Version: 6.00 Build 0)  -->
<svg version="1.1" id="Layer_1" xmlns="http://www.w3.org/2000/svg" xmlns:xlink="http://www.w3.org/1999/xlink" x="0px" y="0px"
	 viewBox="0 0 170 170" style="enable-background:new 0 0 170 170;" xml:space="preserve">
<style type="text/css">
	.st0{fill-rule:evenodd;clip-rule:evenodd;fill:#FFFFFF;}
	.st1{fill:none;stroke:#FFFFFF;stroke-width:6;}
	.st2{fill:none;stroke:#FFFFFF;stroke-width:5;}
	.st3{fill:none;stroke:#FFFFFF;stroke-width:2.5;}
	.st4{fill:none;stroke:#FFFFFF;stroke-width:8;}
</style>
<path class="st0" d="M164.2,85.7c1.9,7.4-2.7,17.4-15.6,28.1c-12.6,10.3-31.6,19.8-54.1,26c-22.5,6-43.7,7.5-59.7,4.8
	c-16.6-2.7-25.6-8.9-27.6-16.3c-1.9-7.4,2.7-17.4,15.6-28.1c1.5-1.2,3-2.4,4.6-3.5v-5.9C9.3,103-0.7,117.3,2.5,129.6
	c5.6,20.7,47.4,27.3,93.4,14.9c46-12.5,78.6-39.3,73-60c-3.4-12.5-20-19.8-42.7-21v4.8c3.6,0.2,7.1,0.6,10.4,1.1
	C153.2,72,162.3,78.3,164.2,85.7z"/>
<path class="st1" d="M86.2,143.6c20.1,0,36.3-16.2,36.3-36.3S106.3,71,86.2,71s-36.3,16.2-36.3,36.3
	C49.9,127.4,66.1,143.6,86.2,143.6z"/>
<path class="st2" d="M86.2,116.3c5,0,8.9-4,8.9-8.9c0-5-4-8.9-8.9-8.9c-5,0-8.9,4-8.9,8.9C77.1,112.3,81.3,116.3,86.2,116.3z"/>
<path class="st3" d="M87.2,117.2l33.3-9.7"/>
<path class="st3" d="M52.1,106.6l33.3-9.7"/>
<path class="st3" d="M85.1,143.2l-8.5-33.6"/>
<path class="st3" d="M96.5,106.6L88,73"/>
<path class="st3" d="M79,101.7l-17.5,30.6"/>
<path class="st3" d="M111.5,83l-17.5,30.5"/>
<path class="st3" d="M81.4,115.8l29.5,16.9"/>
<path class="st3" d="M62.6,82.4l29.5,16.9"/>
<path class="st4" d="M86.2,164.7c31.7,0,57.4-25.8,57.4-57.4s-25.8-57.4-57.4-57.4s-57.4,25.8-57.4,57.4
	C28.8,139,54.4,164.7,86.2,164.7z"/>
</svg>
