<?xml version="1.0" encoding="utf-8"?>
<!-- Generator: Adobe Illustrator 28.0.0, SVG Export Plug-In . SVG Version: 6.00 Build 0)  -->
<svg version="1.1" id="Layer_1" xmlns="http://www.w3.org/2000/svg" xmlns:xlink="http://www.w3.org/1999/xlink" x="0px" y="0px"
	 viewBox="0 0 170 170" style="enable-background:new 0 0 170 170;" xml:space="preserve">
<style type="text/css">
	.st0{fill-rule:evenodd;clip-rule:evenodd;fill:#FFFFFF;}
	.st1{fill:none;stroke:#FFFFFF;stroke-width:6;}
	.st2{fill:none;stroke:#FFFFFF;stroke-width:5;}
	.st3{fill:none;stroke:#FFFFFF;stroke-width:2.5;}
	.st4{fill:none;stroke:#FFFFFF;stroke-width:8;}
</style>
<path class="st0" d="M150.2,66.6c1.6,6.1-2.2,14.4-12.9,23.2c-10.4,8.5-26.1,16.4-44.7,21.5c-18.6,5-36.1,6.2-49.4,4
	c-13.7-2.2-21.2-7.4-22.8-13.5c-1.6-6.1,2.2-14.4,12.9-23.2c1.2-1,2.5-2,3.8-2.9v-4.9c-15,10.1-23.3,22-20.6,32.1
	c4.6,17.1,39.2,22.6,77.2,12.3c38-10.3,65-32.5,60.4-49.6c-2.8-10.3-16.5-16.4-35.3-17.4v4c3,0.2,5.9,0.5,8.6,0.9
	C141.1,55.3,148.6,60.5,150.2,66.6z"/>
<path class="st1" d="M85.7,114.5c16.6,0,30-13.4,30-30c0-16.6-13.4-30-30-30c-16.6,0-30,13.4-30,30
	C55.7,101.1,69.1,114.5,85.7,114.5z"/>
<path class="st2" d="M85.7,91.9c4.1,0,7.4-3.3,7.4-7.4c0-4.1-3.3-7.4-7.4-7.4s-7.4,3.3-7.4,7.4C78.2,88.6,81.6,91.9,85.7,91.9z"/>
<path class="st3" d="M86.5,92.7l27.5-8"/>
<path class="st3" d="M57.5,83.9l27.5-8"/>
<path class="st3" d="M84.8,114.2l-7-27.8"/>
<path class="st3" d="M94.2,83.9l-7-27.8"/>
<path class="st3" d="M79.7,79.9l-14.5,25.3"/>
<path class="st3" d="M106.6,64.4L92.1,89.6"/>
<path class="st3" d="M81.7,91.5l24.4,14"/>
<path class="st3" d="M66.2,63.9l24.4,14"/>
<path class="st4" d="M85.7,132c26.2,0,47.5-21.3,47.5-47.5c0-26.2-21.3-47.5-47.5-47.5c-26.2,0-47.5,21.3-47.5,47.5
	C38.2,110.7,59.4,132,85.7,132z"/>
</svg>
