<svg width="76" height="31" viewBox="0 0 76 31" fill="none" xmlns="http://www.w3.org/2000/svg">
<g clip-path="url(#clip0_4_2)">
<path d="M0.573242 31V0.921875H6.55469V11.6714H9.3916V0.921875H15.373V31H9.3916V17.3623H6.55469V31H0.573242ZM18.0391 31V0.921875H27.2676C28.8057 0.921875 29.9678 1.27507 30.7539 1.98145C31.54 2.67643 32.0641 3.65625 32.3262 4.9209C32.5996 6.17415 32.7363 7.64958 32.7363 9.34717C32.7363 10.9878 32.5256 12.298 32.104 13.2778C31.6938 14.2576 30.9134 14.9355 29.7627 15.3115C30.7083 15.5052 31.3691 15.978 31.7451 16.73C32.1325 17.4705 32.3262 18.4333 32.3262 19.6182V31H26.396V19.2251C26.396 18.3478 26.2137 17.8066 25.8491 17.6016C25.4959 17.3851 24.9206 17.2769 24.123 17.2769V31H18.0391ZM24.1572 12.0645H25.6099C26.4416 12.0645 26.8574 11.1587 26.8574 9.34717C26.8574 8.17367 26.7663 7.40462 26.584 7.04004C26.4017 6.67546 26.0599 6.49316 25.5586 6.49316H24.1572V12.0645ZM34.7188 31V0.921875H43.8789L46.4082 19.2593L48.9204 0.921875H58.166V31H52.6631V9.33008L49.2109 31H43.8105L40.1533 9.33008V31H34.7188ZM60.832 31V0.921875H69.1035C71.2682 0.921875 72.8975 1.52572 73.9912 2.7334C75.085 3.92969 75.6318 5.68424 75.6318 7.99707V22.0791C75.6318 24.9274 75.1305 27.1263 74.1279 28.6758C73.1367 30.2253 71.3936 31 68.8984 31H60.832ZM66.8818 25.6851H67.9243C69.0295 25.6851 69.582 25.1496 69.582 24.0786V8.56104C69.582 7.55843 69.4453 6.91471 69.1719 6.62988C68.9098 6.33366 68.3687 6.18555 67.5483 6.18555H66.8818V25.6851Z" fill="white"/>
</g>
<defs>
<clipPath id="clip0_4_2">
<rect width="76" height="31" fill="white"/>
</clipPath>
</defs>
</svg>
