<svg width="1920" height="641" viewBox="0 0 1920 641" fill="none" xmlns="http://www.w3.org/2000/svg">
<path d="M1920 625.92C1916.42 629.07 1913.13 632.66 1909.2 635.29C1898.34 642.56 1889.11 640.71 1881.44 630.18C1879.57 627.62 1877.84 624.95 1875.11 620.97C1871.49 625.04 1868.19 628.63 1865.04 632.34C1858.24 640.35 1849.11 640.12 1839.93 639.35C1838.71 639.25 1837.32 637.75 1836.55 636.54C1833.91 632.41 1831.51 628.13 1828.93 623.75C1824.92 626.63 1821.45 629.44 1817.68 631.77C1805.24 639.45 1792.41 642.24 1778.73 634.64C1777.25 633.82 1774.8 634.16 1772.99 634.64C1767.63 636.08 1762.47 638.39 1757.05 639.4C1749.42 640.83 1743.39 637.27 1738.56 631.54C1736.12 628.65 1733.79 625.66 1731.07 622.29C1729.01 624.64 1727.4 626.82 1725.45 628.62C1722.06 631.74 1718.77 635.14 1714.88 637.51C1708.13 641.63 1700.97 640.39 1695.95 634.33C1692.41 630.06 1689.62 625.18 1686.3 620.26C1681.65 623.94 1677.2 627.78 1672.43 631.15C1666.14 635.6 1659.52 639.35 1651.41 639.6C1647.56 639.72 1646.22 638.29 1645.56 634.6C1643.97 625.67 1642 616.79 1639.91 607.96C1639.31 605.43 1637.79 603.12 1636.19 599.62C1630.28 605.85 1624.88 611.24 1619.83 616.93C1616.12 621.11 1612.97 625.78 1609.36 630.06C1607.21 632.61 1604.9 635.16 1602.22 637.1C1600.46 638.37 1597.91 638.55 1595.72 639.22C1595.29 637.16 1594.56 635.1 1594.47 633.02C1594.15 625.21 1594.21 617.39 1593.75 609.6C1593.61 607.2 1592.27 604.87 1591.08 601.31C1586.25 604.74 1581.83 607.28 1578.14 610.62C1571.74 616.41 1565.87 622.78 1559.61 628.73C1556.37 631.8 1552.75 634.46 1549.34 637.35C1546.06 640.14 1543.4 639.86 1541.21 635.98C1540.61 634.91 1539.62 634.06 1538.63 632.9C1535.41 634.67 1532.41 636.45 1529.29 638C1523.68 640.79 1519.2 640.28 1514.92 635.74C1511.99 632.63 1509.73 628.89 1507.21 625.4C1506.2 624.01 1505.3 622.54 1504.15 620.81C1493.55 628.85 1482.42 635.41 1469.63 637.4C1459.63 638.96 1449.32 638.82 1439.15 638.96C1434.3 639.02 1431.05 635.81 1428.64 631.66C1424.3 624.19 1423.38 615.89 1423.09 607.62C1422.21 582.79 1423.41 558.09 1429.56 533.85C1431.21 527.36 1434.75 524.27 1441.26 523.96C1448.05 523.64 1451.3 526.6 1450.32 533.27C1448.91 542.89 1446.29 552.35 1445.2 562C1443.04 580.91 1441.76 599.88 1446.39 618.72C1447.32 622.49 1449.06 624.3 1453.07 624.71C1466.1 626.06 1478.62 625.26 1489.86 617.58C1494.67 614.29 1497.75 610.12 1498.88 604.11C1500.18 597.25 1502.09 590.43 1504.54 583.9C1505.87 580.36 1508.87 577.44 1511.3 573.99C1518.93 580.56 1519.75 588.42 1519.2 596.79C1518.85 602.05 1518.54 607.32 1518.53 612.59C1518.52 617.71 1519.32 622.87 1524.99 624.79C1530.78 626.76 1536.76 625.59 1540.18 620.68C1543.82 615.44 1546.08 609.18 1548.5 603.18C1550.16 599.06 1550.67 594.47 1552.45 590.42C1554.07 586.74 1556.7 583.5 1558.89 580.07C1559.41 580.16 1559.94 580.25 1560.46 580.34C1562.97 588.23 1565.47 596.12 1568.21 604.75C1577.57 593.45 1586.54 582.61 1595.92 571.3C1604.29 581.13 1606.1 592.49 1609.91 604.16C1614.16 600.16 1617.81 596.93 1621.22 593.46C1626.26 588.33 1630.96 582.84 1636.12 577.84C1643.4 570.79 1647.25 571.28 1650.53 580.89C1653.55 589.71 1654.7 599.17 1656.75 608.33C1657.99 613.85 1659.38 619.34 1660.68 624.75C1673.51 622.63 1680.35 615.2 1682.09 602.59C1682.65 598.48 1683.29 594.37 1684.13 590.32C1684.58 588.15 1685.34 585.99 1686.34 584.01C1688.4 579.96 1691.64 575.98 1696.25 577.53C1698.73 578.36 1701.16 582.99 1701.4 586.08C1701.91 592.71 1700.9 599.44 1700.67 606.14C1700.57 609 1700.45 611.97 1701.1 614.71C1702.22 619.44 1703.93 624.17 1709.58 625.21C1715.37 626.27 1720.06 623.99 1723.1 619.07C1725.27 615.56 1727.64 611.84 1728.46 607.91C1731.54 593.12 1734.03 578.21 1736.82 562.93C1731.29 562 1726.7 561.51 1722.3 560.34C1720.41 559.84 1718.38 558.22 1717.35 556.54C1715.71 553.86 1716.5 551.7 1720.15 551.28C1724.91 550.74 1729.63 549.73 1734.4 549.48C1737.42 549.32 1738.53 548.05 1739.26 545.38C1740.53 540.77 1742.31 536.3 1743.58 531.69C1744.8 527.25 1747.16 524.76 1752.04 525.22C1753.28 525.34 1754.56 524.99 1756.68 524.76C1756.3 532.86 1755.93 540.71 1755.53 549.08C1765.14 549.58 1774.8 549.04 1782.66 556.43C1776.09 561.04 1768.74 561.55 1761.54 562.22C1752.22 563.08 1752.04 562.86 1750.35 572.27C1748.03 585.16 1745.5 598.07 1748.96 611.2C1752.34 624.02 1758.89 628.52 1771.85 626.55C1772.33 620.14 1772.62 613.64 1773.33 607.19C1774.46 596.91 1778.28 587.72 1785.5 580.15C1790.38 575.03 1796.22 571.17 1803.39 573.65C1810.64 576.16 1813.87 582.56 1815.21 589.9C1816.76 598.39 1813.93 605.36 1807.79 611.07C1803.25 615.3 1798.49 619.29 1793.07 624.05C1801.08 626.19 1808.63 628.51 1815.09 623.46C1820.36 619.34 1824.79 613.86 1828.7 608.36C1831.99 603.73 1833.74 598.04 1836.63 593.08C1839.27 588.55 1842.24 584.16 1845.56 580.11C1850.29 574.32 1856.45 572.65 1863.64 575.19C1865.26 575.76 1866.99 576.04 1869.08 576.55C1870.62 558.98 1872.13 541.74 1873.7 523.87C1877.25 524.75 1879.71 525.28 1882.12 525.97C1885.92 527.06 1887.22 529.65 1887.19 533.56C1887.07 551.15 1886.77 568.75 1887.34 586.32C1887.59 594.22 1889.71 602.06 1891.01 609.92C1891.14 610.69 1891.47 611.45 1891.81 612.17C1898.81 627.21 1902.92 627.28 1915.01 620.02C1916.63 619.04 1918.34 618.19 1920 617.28V625.92ZM1846.47 614.6C1846.47 615.72 1846.38 616.84 1846.49 617.94C1846.84 621.38 1846.46 625.41 1850.62 626.84C1854.76 628.25 1858.46 626.67 1861.64 623.9C1862.59 623.07 1863.47 622.1 1864.19 621.06C1870.09 612.56 1872.46 603.33 1870.49 592.97C1869.82 589.46 1868.1 587.01 1864.89 586.86C1862.37 586.74 1859.05 587.6 1857.34 589.29C1850.39 596.17 1846.97 604.82 1846.47 614.6ZM1789.33 616.83C1795.47 614.24 1799.65 609.96 1801.38 603.31C1802.93 597.31 1801.11 592.48 1796.79 588.19C1794.49 585.9 1792.94 586.32 1790.89 588.4C1783.83 595.55 1782.93 608.14 1789.34 616.83H1789.33Z" fill="white"/>
<path d="M406.06 608.05C402.12 611.9 398.94 614.99 395.79 618.1C390.22 623.6 385.01 629.53 379.01 634.5C371.39 640.81 366.55 640.24 359.17 633.54C357.41 631.94 355.72 630.27 353.83 628.48C350.66 630.45 347.73 632.34 344.72 634.13C333.38 640.85 327.55 639.97 318.7 630.32C316.34 627.75 313.95 625.2 311.29 622.33C307.01 626.13 303.07 629.8 298.96 633.25C294.45 637.03 289.34 639.4 283.29 639.63C277.43 639.86 273.08 637.65 270.22 632.53C269.06 630.45 267.87 628.4 266.46 625.93C263.27 628.82 260.45 631.61 257.38 634.08C255.28 635.77 252.89 637.11 250.53 638.46C247.49 640.19 244.51 639.96 242.49 636.96C238.76 631.42 235.17 625.76 231.73 620.03C228.7 614.97 225.93 609.75 223.08 604.58C221.23 601.22 218.93 600.55 215.84 603.09C209.43 608.36 202.97 613.58 196.52 618.81C189.08 624.84 181.69 630.94 174.15 636.84C172.49 638.14 170.28 638.75 167.98 639.83C167.07 637 166.37 634.79 165.44 631.89C162.6 633.44 160.03 634.87 157.43 636.26C148.59 640.97 143.61 639.94 137.64 631.88C134.9 628.18 132.53 624.2 129.51 619.62C125.51 623.55 121.77 627.14 118.13 630.82C111.82 637.2 104.47 640.59 95.28 639.48C86.87 638.47 79.86 635.07 77.24 626.68C74.6 618.22 73.01 609.4 71.33 600.67C70.52 596.46 70.48 592.09 70.25 587.78C70.12 585.34 69.08 584.2 66.65 584.61C55.03 586.56 43.41 588.49 31.8 590.55C28.17 591.19 26.85 593.46 26.55 597.3C25.59 609.55 24.07 621.75 22.83 633.98C22.4 638.22 20.4 639.73 15.96 639.67C1.32 639.44 3.85 639.37 4.23 627.28C4.78 609.39 7.02 591.51 6.72 573.66C6.47 559.07 3.74 544.5 1.71 529.98C1.2 526.33 2.36 524.7 5.49 524.33C9.73 523.83 14.07 523.4 18.29 523.78C19.59 523.9 21.5 526.67 21.67 528.38C22.96 541.1 23.86 553.85 24.93 566.59C25.12 568.8 25.51 571 25.95 574.28C38.34 572.88 50.53 571.71 62.65 570.07C69.91 569.09 69.64 568.73 70.43 561.45C71.48 551.78 72.82 542.14 74.28 532.52C74.92 528.31 77.31 524.6 81.66 524.05C85.38 523.57 90.05 523.65 92.89 525.56C94.69 526.77 94.77 531.98 94.16 535.1C90.74 552.55 87.81 570.05 89.16 587.89C89.83 596.77 90.66 605.79 92.91 614.36C96.18 626.79 106.95 628.97 116.13 619.85C122.8 613.23 124.18 604.56 126.03 595.93C127.12 590.84 128.62 585.68 130.97 581.08C132.1 578.86 135.64 576.64 138.05 576.68C139.98 576.72 143.1 579.95 143.49 582.16C144.46 587.73 144.34 593.51 144.36 599.21C144.38 603.83 143.58 608.47 143.82 613.07C144.39 623.73 153.49 628.37 162.57 622.79C167.57 619.72 170.59 615.08 172.16 609.49C173.8 603.66 175.13 597.73 176.94 591.95C178.47 587.03 180.97 582.62 185.82 579.72C188.8 587.79 191.71 595.65 195.06 604.72C198.41 600.45 200.88 597.18 203.49 594.01C208.36 588.09 213.08 582.01 218.31 576.42C222.96 571.45 226.45 571.93 229.3 578C232.27 584.33 234.58 590.99 236.9 597.6C239.72 605.62 242.46 613.6 248.73 619.79C250.7 621.73 252.36 622.12 254.99 620.78C260.51 617.96 264.51 614.13 266.65 608.12C269.01 601.52 271.84 595.07 274.75 588.69C275.92 586.11 277.65 583.72 279.43 581.48C285.14 574.29 292.07 570.86 301.26 574.86C302.37 575.34 303.67 575.37 305.11 575.66C306.69 558.27 308.25 541.16 309.77 524.47C310.85 524.1 311 523.99 311.13 524.01C323.41 525.39 323.14 525.39 323.23 537.5C323.37 556.5 323.23 575.55 324.62 594.48C325.23 602.8 328.34 611.32 331.99 618.95C336.28 627.92 344.23 628.03 348.81 619.07C352.81 611.25 354.91 602.39 357.27 593.83C359.25 586.64 360.4 579.22 361.9 571.99C362.7 571.99 363.06 571.88 363.3 572.01C373.83 577.51 373.13 574.29 371.55 586.72C370.31 596.49 368.93 606.25 367.51 616.8C375.23 615.47 381.96 613.29 386.72 607.96C392.11 601.93 396.88 595.27 401.4 588.54C404.94 583.28 407.7 577.5 410.97 571.65C415.15 575.3 417.51 579.01 417.74 584.51C418.18 595.02 419.36 605.5 420.35 615.99C420.51 617.67 421.26 619.3 421.71 620.87C438.54 619.4 455.47 596.01 456.61 572.55C462.67 572.78 468.49 573.22 473.55 577.32C484.43 586.12 488.95 598.16 491.35 611.35C491.61 612.76 491.82 614.19 492.12 615.59C492.24 616.17 492.54 616.71 492.84 617.45C501.09 613.21 507 607.63 508.14 597.94C509.39 587.32 511.1 576.76 512.72 566.19C513.18 563.21 512.27 561.9 509.18 561.34C503.71 560.35 498.33 558.87 492.97 557.6C493.76 550.58 494.44 549.96 500.76 549.52C505.32 549.2 511.06 550.27 514.09 547.91C517.18 545.5 517.64 539.68 519.2 535.33C520.59 531.46 521.9 527.55 523.16 523.91C523.94 523.72 524.27 523.52 524.54 523.59C534.08 526.11 534.14 526.12 533.51 535.83C533.24 539.95 532.7 544.05 532.24 548.5C541.02 550.63 551.49 545.91 558.06 555.6C554.02 560.43 548.56 560.9 543.21 561.31C539.71 561.58 536.15 561.08 532.67 561.4C531.34 561.52 529.2 562.8 529 563.85C526.41 577.46 522.79 590.97 524.88 605.09C526.03 612.88 529.67 619.27 535.1 624.68C535.87 625.45 538.97 625.32 539.66 624.5C543.12 620.37 546.61 616.14 549.18 611.44C552.08 606.15 553.61 600.11 556.47 594.79C559.24 589.65 562.41 584.51 566.38 580.28C571.5 574.81 576.13 574.66 582.86 578.08C584.97 579.16 587.03 580.34 589.56 581.71C590.69 579.21 591.69 576.96 592.66 574.83C593.19 574.74 593.52 574.57 593.78 574.65C604.1 577.61 602.72 574.96 603.94 586.62C605.01 596.86 607.4 606.99 609.55 617.09C610.4 621.08 613.09 623.79 617.52 624.3C622.17 624.83 625.5 622.63 627.19 618.74C629.47 613.52 631.1 608.01 632.81 602.56C634.15 598.31 634.72 593.76 636.5 589.73C638.04 586.23 640.8 583.26 643.01 580.06C643.52 580.16 644.03 580.27 644.53 580.37C647.41 587.99 650.28 595.61 653.44 603.98C663.72 592.7 671.56 580.07 684.15 570.58C686.61 575.83 689.04 580.44 690.96 585.26C693.68 592.07 695.97 599.05 698.55 605.93C699.39 608.16 700.37 610.37 701.55 612.45C705.93 620.21 709.33 620.97 716.3 615.68C719.82 613 723.13 610.04 727.31 606.56C727.63 616.1 725.08 623.77 719.49 630.19C708.08 643.28 701.87 642.49 694.4 627.7C690.8 620.59 687.23 613.42 682.97 606.7C679.36 601.01 678.54 600.87 673.16 604.7C665.89 609.88 659 615.61 652.13 621.32C646.23 626.22 640.66 631.52 634.74 636.41C633.45 637.48 631.34 637.99 629.6 638.01C624.06 638.08 618.37 636.97 613.01 637.88C606.49 638.99 602.2 637.05 598.87 631.76C597.01 628.79 595.06 625.88 592.78 622.36C591.32 623.68 590.1 624.81 588.86 625.91C585.39 628.98 582.16 632.38 578.39 635.01C569.45 641.24 562.29 640.63 553.79 633.04C551.21 630.74 549.47 630.25 546.59 632.69C531.87 645.17 521.19 638.96 513.04 627.6C511.19 625.01 509.5 622.31 507.43 619.2C504.67 621.59 502.07 623.84 499.47 626.1C489.25 634.98 478.04 641.01 463.83 639.63C454.97 638.77 449.99 632.61 452.04 623.32C454.88 623.5 457.84 623.65 460.8 623.88C471.84 624.74 477.3 618.31 474.72 607.49C473.24 601.3 470 596.16 465.45 590.93C461.66 596.57 458.56 601.97 454.7 606.76C447.6 615.56 440.37 624.32 432.5 632.41C429.61 635.39 424.73 636.42 420.77 638.39C417.27 640.13 415.09 638.4 414.1 635.35C411.66 627.8 409.55 620.14 407.32 612.52C407.02 611.49 406.75 610.45 406.11 608.1L406.06 608.05ZM307.48 598.24C307.32 596.61 307.22 594.54 306.89 592.49C306.32 588.9 304.52 585.68 300.8 585.48C298.37 585.35 295.19 586.63 293.44 588.37C284.19 597.61 281.98 609.36 282.57 621.88C282.62 622.93 283.44 624.39 284.33 624.89C288.4 627.17 293.53 626.4 297.2 623.14C304.52 616.64 307 608.09 307.48 598.23V598.24ZM588.85 602.5C588.57 602.41 588.3 602.33 588.02 602.24C587.93 600.65 588.3 598.83 587.65 597.51C586.48 595.12 585.14 591.98 583.05 591.11C580.94 590.23 577 590.8 575.32 592.34C567.83 599.16 564.31 607.93 565.64 618.13C566.56 625.23 572.49 627.77 578.58 623.65C580.99 622.02 583.34 619.56 584.46 616.93C586.43 612.34 587.44 607.33 588.85 602.5Z" fill="white"/>
<path d="M1104.46 624.64C1115.29 628.86 1125.01 626.59 1132.05 617.72C1137.33 611.07 1141.15 603.2 1145.17 595.64C1148.01 590.31 1149.92 584.49 1152.59 579.06C1153.89 576.42 1155.99 574.18 1157.73 571.75L1159.26 571.71C1161.87 579.35 1164.53 586.97 1167.06 594.64C1169.35 601.6 1171.46 608.63 1173.7 615.61C1175.49 621.18 1179.5 624.59 1185.09 627.06C1190.15 619.33 1194.31 611.71 1193.04 601.8C1192.11 594.6 1191.84 587.11 1192.78 579.94C1193.83 571.96 1199.43 568.39 1206.28 569.99C1207.62 570.3 1209.53 572.25 1209.56 573.47C1209.98 597.19 1203.81 618.39 1185.06 634.38C1176.2 641.93 1163.3 638.29 1159.22 627.33C1158.05 624.19 1157.25 620.88 1155.82 617.88C1154.49 615.1 1152.53 612.63 1150.69 609.78C1147.24 613.1 1144.37 615.79 1141.58 618.57C1140.11 620.03 1138.69 621.57 1137.4 623.19C1124.66 639.1 1104.2 640.34 1088.14 633.92C1086.72 633.35 1084.81 633.65 1083.21 633.97C1078.39 634.95 1073.65 636.44 1068.8 637.18C1059.78 638.56 1052.08 635.5 1045.76 629.06C1042.91 626.16 1040.38 625.83 1037.19 628.58C1027.96 636.53 1017.03 638.26 1005.28 637.16C1001.54 636.81 998.65 635.71 996.48 632.43C993.4 627.8 989.96 623.41 986.09 618.12C983.2 620.68 980.44 622.75 978.14 625.25C976.1 627.47 974.61 630.18 972.83 632.64C968.03 639.25 959.52 639.24 955.21 632.31C952.36 627.72 950.37 622.6 947.75 617.86C945.37 613.55 942.74 609.36 940.06 605.22C938.2 602.35 935.55 601.67 932.7 603.72C926.37 608.27 919.93 612.72 913.93 617.67C908.14 622.44 902.89 627.86 897.31 632.89C893.28 636.52 888.4 637.55 882.2 637.13C884.32 628.03 886.21 619.22 888.45 610.51C890.32 603.25 892.86 596.17 894.63 588.89C895.77 584.18 898.51 581.85 903.48 580.82C905.05 586.36 906.55 591.83 908.15 597.27C909.47 601.76 911.78 602.59 915.26 599.33C918.15 596.63 920.33 593.19 922.97 590.21C927.72 584.84 932.53 579.53 937.39 574.26C940.05 571.38 942.82 572.09 944.4 575.14C946.96 580.05 949.01 585.24 951.13 590.37C954.41 598.29 956.93 606.61 960.97 614.11C964.67 620.99 970.61 620.7 975.48 614.42C980.54 607.89 980.39 599.76 982.37 592.26C983.56 587.73 985.29 583.11 987.85 579.23C991.11 574.28 996.49 575.25 999.04 580.68C1002.4 587.81 1000.19 595.14 999.82 602.41C999.68 605.11 999.3 607.87 999.68 610.51C1001.19 620.99 1009.73 627.56 1019.91 624.78C1025.65 623.21 1030.74 619.04 1035.83 615.62C1036.7 615.04 1036.58 612.13 1036.1 610.54C1031.87 596.34 1029.53 581.9 1030.31 567.06C1030.99 554 1033.81 541.46 1040.03 529.84C1040.86 528.29 1041.79 526.78 1042.82 525.37C1050.77 514.55 1064.13 515.56 1068.7 528.19C1071.6 536.23 1072.69 545.36 1072.59 553.97C1072.37 573.65 1066.51 592.06 1056.49 608.98C1054.04 613.11 1054.47 615.69 1057.73 618.83C1063.21 624.12 1069.22 627.96 1077.11 627.98C1080.86 627.99 1082.69 627.05 1082.36 622.39C1081.28 607.31 1083.71 593.02 1094.33 581.26C1099.36 575.7 1105.31 570.77 1113.11 573.65C1120.74 576.47 1124.05 583.49 1125.1 591.42C1126.02 598.37 1124.19 604.43 1119.1 609.33C1115.76 612.54 1112.36 615.71 1108.82 618.69C1107 620.22 1104.8 621.28 1102.77 622.56L1104.46 624.61V624.64ZM1052.37 535.92C1051.51 537.77 1050.62 539.44 1049.94 541.2C1043.52 557.72 1044.24 574.67 1047.18 591.7C1047.41 593.04 1049.02 595.15 1049.93 595.12C1051.39 595.07 1053.54 593.87 1054.12 592.58C1060.86 577.71 1063.15 562.16 1061.45 545.87C1060.83 539.96 1057.35 537.77 1052.38 535.92H1052.37ZM1112.27 598.94C1110.43 595.22 1108.77 591.38 1106.59 587.87C1106.1 587.08 1103.32 586.76 1102.32 587.39C1094.3 592.46 1091.77 605.79 1096.96 613.78C1098.57 616.26 1100.15 616.93 1102.75 615.15C1108.31 611.36 1111.09 606.17 1112.26 598.93L1112.27 598.94Z" fill="white"/>
<path d="M811.12 529.53C810.25 538.05 809.71 546.11 808.55 554.08C806.04 571.35 803.77 588.62 807.22 605.99C808.08 610.32 809.42 614.71 811.42 618.63C819.5 634.46 841.72 635.7 851.11 620.52C861.92 603.05 863.16 583.87 858.84 564.14C857.65 558.69 856.01 553.34 854.94 547.87C853.35 539.77 856.27 534.07 863.24 529.65C866.81 527.39 869.47 528.01 870.95 531.58C872.94 536.38 875.22 541.35 875.76 546.42C877.72 564.75 877.97 583.13 873.21 601.15C870.37 611.92 865.82 621.98 857.38 629.66C850.32 636.08 842.17 640.16 832.23 639.56C830 639.42 827.73 639.32 825.52 639.57C804.59 641.93 789.15 622.67 786.45 606.13C782.99 584.99 785.33 564.61 791.56 544.25C794.57 534.4 801.45 531.43 811.1 529.53H811.12Z" fill="white"/>
<path d="M1283.72 608.97C1282.39 610.43 1281.5 611.27 1280.77 612.23C1278.72 614.89 1276.56 617.49 1274.73 620.29C1263.59 637.33 1247.24 639.45 1229.07 636.31C1224.39 635.5 1221.67 632.11 1219.63 628.15C1211.54 612.5 1217.48 589.04 1232.03 579.11C1245.9 569.64 1260.81 575.82 1263.65 592.4C1264.94 599.96 1261.59 606.02 1255.48 610.07C1250.59 613.31 1244.96 615.39 1239.85 618.33C1238.18 619.29 1237.13 621.32 1235.79 622.85C1237.55 624.26 1239.11 626.42 1241.11 626.94C1249.53 629.16 1256.87 626.51 1263.17 620.81C1272.12 612.72 1276.89 602.13 1280.8 591.03C1282.02 587.58 1283.25 584.07 1285 580.88C1286.23 578.65 1288.37 576.91 1290.57 574.43C1296.9 587.71 1292.46 603.08 1302.72 614.93C1304 612.33 1305.02 610.25 1306.04 608.18C1309.91 600.31 1313.19 592.07 1317.79 584.64C1324.71 573.46 1334.25 565.49 1348.52 567.68C1352.58 568.3 1356.75 570.99 1359.96 573.78C1363.77 577.09 1363.09 583.38 1359.48 587.16C1355.93 590.88 1350.71 591.24 1346.5 588C1345.49 587.22 1344.58 586.31 1343.7 585.38C1338.52 579.95 1338.08 579.4 1332.23 584.25C1327.7 588.01 1323.64 592.91 1320.85 598.1C1314.74 609.47 1309.32 621.25 1304.13 633.08C1302.23 637.4 1299.36 637.24 1295.73 637.22C1291.96 637.21 1290.93 635.06 1290.13 632C1288.17 624.52 1286.01 617.09 1283.74 608.98L1283.72 608.97ZM1230.52 613.05C1230.97 613.45 1231.42 613.85 1231.88 614.26C1236.34 611.42 1241.37 609.15 1245.05 605.52C1247.43 603.16 1248.47 598.89 1248.95 595.32C1249.47 591.45 1246.63 588.76 1243.06 587.58C1239.66 586.46 1236.18 586.99 1234.12 590.19C1232.53 592.65 1231 595.52 1230.68 598.35C1230.12 603.19 1230.53 608.15 1230.53 613.06L1230.52 613.05Z" fill="white"/>
<path d="M150.53 534.58C150.59 541.96 145.48 548.1 139.27 548.13C133.69 548.16 129.88 543.77 129.8 537.23C129.7 529.49 134.41 524.1 141.24 524.15C146.91 524.2 150.49 528.2 150.54 534.57L150.53 534.58Z" fill="white"/>
<path d="M1699.4 525.24C1705.34 525.25 1707.61 528.14 1707.52 535.54C1707.43 542.58 1701.83 548.88 1695.67 548.86C1690.56 548.84 1686.83 544.21 1686.8 537.86C1686.75 529.59 1691.11 525.23 1699.41 525.25L1699.4 525.24Z" fill="white"/>
<path d="M1007.59 532.23C1007.71 539.64 1002.41 546.06 996.03 546.23C990.52 546.38 986.39 542.14 986.2 536.13C985.98 529.18 991.49 522.5 997.53 522.4C1003.28 522.3 1007.5 526.43 1007.6 532.23H1007.59Z" fill="white"/>
<path d="M1514.79 524.63C1520.28 524.48 1524.81 528.9 1524.98 534.57C1525.19 541.51 1518.98 548.77 1512.75 548.86C1507.82 548.93 1503.84 544.42 1503.63 538.51C1503.38 531.43 1508.72 524.79 1514.8 524.62L1514.79 524.63Z" fill="white"/>
<path d="M882.85 96.32C868.45 92.25 860.37 79.84 847.33 73.87C845.47 80.31 843.7 86.46 841.73 93.29C836.93 89.23 832.59 85.57 827.58 81.33C826.34 84.78 825.22 87.65 824.29 90.58C821.97 97.88 819.94 105.28 817.33 112.47C816.57 114.57 814.23 116.09 812.62 117.88C811.95 117.66 811.29 117.45 810.62 117.23C808.37 106.4 806.13 95.57 803.84 84.52C796.89 88.94 790.3 93.13 782.65 97.99V66.08C767.71 73.03 753.55 79.61 739.4 86.19C738.84 85.65 738.28 85.11 737.73 84.57C738.68 81.91 739.05 78.79 740.7 76.67C747.17 68.35 754.05 60.35 760.76 52.21C763.58 48.79 766.34 45.32 770.09 40.69C762.23 39.77 755.66 38.94 749.08 38.26C745.43 37.88 741.74 37.86 738.09 37.47C736.82 37.33 735.62 36.55 734.39 36.07C735.16 34.65 735.6 32.8 736.77 31.89C741.17 28.44 745.82 25.31 750.35 22.03C752.67 20.36 754.94 18.63 757.58 16.67C751.42 9.14 740.91 11.74 733.87 5.48C735.66 4.98 737.05 4.26 738.44 4.26C749.62 4.28 760.82 4.18 771.98 4.71C775.05 4.86 778.02 7 781.91 8.59C774.96 15.82 765.65 19.08 761.65 28.32C771.06 30.36 780.11 32.32 789.92 34.44C782.3 43.04 775.44 50.77 768.59 58.5L769.42 59.82C777.62 56.79 785.82 53.75 794.83 50.42C794.31 59.1 793.82 67.25 793.33 75.4L794.31 75.97C799.52 70.17 804.74 64.37 810.6 57.84C811.94 67.53 813.15 76.21 814.35 84.89C814.86 84.93 815.38 84.97 815.89 85C818.87 77.2 821.84 69.4 825.07 60.93C829.35 65.85 833.28 70.37 838.07 75.89C838.73 68.26 839.29 61.84 839.98 53.97C848.72 60.7 856.66 66.82 865.54 73.67C862.99 60.75 854.92 50.47 856.19 37.23C867.05 39.96 877.57 42.6 889.36 45.55C883.54 31.83 872.71 23.98 864.75 13.3C866.2 12.43 867.41 11.41 868.8 10.93C878.45 7.62 887.99 3.79 897.87 1.46C902.42 0.389995 907.68 2.33 912.62 2.9C912.67 3.53 912.73 4.16 912.78 4.79C907.98 7.13 903.18 9.44 898.4 11.81C895.11 13.44 891.9 15.24 888.56 16.77C885.38 18.23 885.14 20.24 887.19 22.72C891.35 27.76 895.57 32.76 899.83 37.72C903.99 42.57 908.49 47.15 912.28 52.26C913.68 54.15 913.52 57.21 914.07 59.74C911.56 60.21 908.87 61.5 906.57 60.99C899.1 59.35 891.8 57 884.4 55.04C879.85 53.83 875.23 52.84 869.81 51.56C872.82 67.25 883.97 79.57 882.84 96.31L882.85 96.32Z" fill="white"/>
<path d="M842.48 439.06C870.86 437.61 872.19 432.11 875.36 413.23C878.61 416.38 881.84 418.69 883.96 421.76C887.39 426.73 889.96 432.29 893.16 437.43C894.15 439.02 895.81 440.71 897.51 441.23C905.99 443.82 915.74 439.78 920.49 432.35C921.5 430.77 923.17 428.88 924.83 428.54C941.24 425.15 952.96 416.16 959.43 400.55C959.66 399.99 960.14 399.52 961.06 398.23C975.52 414.53 993.8 411.85 1013.56 409.7C1015.9 413.5 1019.12 418.72 1022.21 423.74C1021.84 424.45 1021.75 424.9 1021.54 424.97C1015.14 427.25 1012.32 432.18 1011.11 438.51C1010.73 440.51 1009.72 442.42 1008.82 444.28C1004.47 453.32 997.48 455.82 988.29 451.66C981.72 448.69 977.44 443.41 973.91 437.36C967.25 425.94 966.07 425.58 955.88 434.19C946.05 442.49 935.61 449.33 922.48 450.71C915.41 451.46 908.29 451.79 901.17 452.78C911.31 459.34 922.53 460.22 933.39 456.39C943.94 452.67 953.77 446.91 964.67 441.7C969.52 448.46 974.03 458.22 984.22 461.01C993.65 463.59 1003.55 464.44 1013.73 466.13C1009.62 470.01 1004.83 472.12 999.56 473.28C990.34 475.32 981.63 474.35 974.4 467.8C971.93 465.56 970.18 466.69 967.98 467.59C942.97 477.8 918.2 478.18 895.14 463.07C885.71 456.89 876.32 452.8 865.23 451.74C856.24 450.88 849.46 445.47 842.48 439.05V439.06ZM999.91 429.57C1000.01 425.15 996.79 421.26 993.04 421.27C989.04 421.27 985.72 424.57 985.7 428.54C985.67 432.76 988.7 436.04 992.64 436.07C997 436.1 999.82 433.59 999.9 429.57H999.91Z" fill="white"/>
<path d="M1165.89 193.42C1165.02 206.32 1164.27 217.57 1163.41 230.29C1167.17 229.17 1169.82 228.86 1171.97 227.65C1179.44 223.42 1183.08 211.17 1180.02 201.52C1176.81 191.38 1167.56 184.2 1158.44 185.15C1155.48 185.46 1152.57 186.58 1149.73 187.6C1139.65 191.23 1129.26 192.91 1118.64 191.55C1103.84 189.64 1093.03 181.46 1087 168.05C1083.13 159.44 1081 150.04 1078.01 140.77C1086.66 141.29 1094.06 141.95 1101.47 142.1C1106.89 142.21 1112.32 141.61 1117.75 141.42C1127.26 141.09 1135.23 144.67 1141.83 151.34C1144.86 154.4 1147.85 157.57 1150.39 161.04C1156.31 169.12 1163.18 176.12 1171.48 181.78C1173.84 183.39 1175.97 185.39 1177.98 187.43C1188.27 197.9 1189.9 211.74 1182.02 224.79C1178.14 231.21 1173.21 236.99 1169.35 243.41C1166.05 248.89 1163.59 254.87 1160.76 260.63C1161.35 261.03 1161.93 261.42 1162.52 261.82C1163.97 260.54 1165.44 259.3 1166.85 257.99C1170.35 254.72 1173.47 250.88 1177.43 248.34C1179.52 247 1183.22 247.34 1185.86 248.1C1187.02 248.44 1187.93 251.74 1187.9 253.67C1187.76 263.36 1183.37 271.33 1177.1 279.23C1176.03 276.22 1175.3 273.8 1174.31 271.5C1171.51 264.98 1167.04 263.93 1161.53 268.66C1159.5 270.4 1157.88 272.66 1156.27 274.83C1154.76 276.86 1153.51 279.08 1151.71 281.91C1150.7 279.29 1149.99 277.29 1149.16 275.33C1146.44 268.87 1144.08 262.21 1140.85 256.01C1134.77 244.32 1125.87 235.93 1112.44 232.95C1108 231.97 1103.75 229.85 1099.62 227.83C1095.88 226 1093.91 222.65 1094.35 218.4C1095.15 210.72 1096.18 203.06 1097.12 195.39C1097.79 195.22 1098.46 195.06 1099.13 194.89C1101.79 198.72 1105.24 202.23 1106.97 206.45C1111.8 218.19 1119.38 227.47 1129.34 235.19C1137.2 241.27 1142.29 249.66 1146.83 258.37C1148.26 261.11 1149.94 263.72 1151.5 266.39C1152.09 266.15 1152.68 265.91 1153.27 265.67C1151.42 259.55 1150.58 252.86 1147.49 247.45C1142.14 238.07 1135.57 229.36 1129.18 220.62C1124.69 214.48 1119.63 208.74 1114.35 202.24C1126.46 202.65 1135.06 206.85 1139.45 217.68C1144.06 229.06 1148.66 240.45 1153.28 251.83C1153.99 253.57 1154.77 255.28 1155.9 257.87C1160.08 250.34 1163.81 243.6 1167.7 236.59C1163.41 233.93 1159.39 231.66 1155.6 229.04C1144.7 221.49 1143.85 211.79 1153.49 202.71C1156.91 199.49 1161.02 197.01 1165.85 193.41L1165.89 193.42ZM1149.37 174.57C1145.91 169.11 1142 162.94 1137.85 156.39C1136.36 159.85 1135.07 162.86 1133.3 166.96C1128.3 161.01 1123.92 155.79 1119.16 150.13C1118.42 154.44 1117.79 158.07 1117 162.64C1111.64 158.11 1107.08 154.26 1101.58 149.61C1102.25 152.77 1102.49 154.8 1103.13 156.68C1104.19 159.8 1103.61 161.74 1100.2 162.85C1097.65 163.69 1095.32 165.22 1092.89 166.44C1093.01 166.78 1093.13 167.13 1093.25 167.47H1113.38C1111.35 171.52 1109.58 175.08 1107.45 179.33C1115.87 176.11 1123.32 173.26 1130.76 170.42C1131 170.83 1131.25 171.23 1131.49 171.64C1129.67 175.66 1127.84 179.69 1126.12 183.48C1134.07 180.43 1141.71 177.5 1149.36 174.56L1149.37 174.57Z" fill="white"/>
<path d="M1032.22 75.03C1030.22 77.28 1028.13 79.65 1025.5 82.62C1023.91 77.95 1022.51 73.84 1020.86 68.99C1015.31 72.8 1010.03 76.42 1004.75 80.04C1004.5 79.87 1004.26 79.69 1004.01 79.52C1006.78 73.01 1009.54 66.5 1012.54 59.45C1008.35 58.57 1004.55 57.77 1000.74 56.97C1000.42 56.54 1000.1 56.11 999.77 55.68C1004.43 51.91 1009.09 48.13 1014.4 43.82C1008.89 40.08 1004.86 37.34 1000.21 34.18C1004.21 31.81 1007.82 29.68 1011.91 27.26C1008.12 20.36 1004.42 13.62 1000.08 5.72001C1008.06 9.11001 1014.74 11.94 1022.04 15.03C1022.67 11.17 1023.22 7.79001 1023.81 4.15001C1024.65 4.27001 1025.55 4.13001 1026.1 4.51001C1032.89 9.19001 1039.61 7.53001 1046.59 4.82001C1069.4 -4.01999 1095.5 9.65001 1100.21 33.53C1106.67 66.24 1080.22 90.32 1049.28 81.7C1043.64 80.13 1038.31 77.45 1032.21 75.03H1032.22ZM1038 62.08C1037.58 62.74 1037.16 63.41 1036.74 64.07C1040.07 66.8 1043.09 70.1 1046.81 72.12C1053.1 75.53 1059.98 75.53 1066.83 73.45C1078.85 69.79 1086.66 57.93 1087 42.8C1087.45 22.64 1074.26 9.11001 1055.35 10.35C1047.13 10.89 1040.77 15.85 1040.41 22.49C1046.55 21.44 1052.6 20.4 1059.13 19.28C1058.35 23.01 1057.68 26.18 1056.92 29.82C1063.09 30.64 1068.85 31.4 1075.35 32.26C1070.81 35.66 1066.81 38.66 1062.38 41.98C1066.14 46.5 1069.62 50.67 1073.29 55.08H1054.19C1055.25 59.45 1056.19 63.36 1057.22 67.62C1050.43 65.66 1044.21 63.87 1037.99 62.07L1038 62.08ZM1044.67 54.82C1043.61 50.99 1042.94 48.59 1042.21 45.97C1045.26 45.14 1047.91 44.42 1051.81 43.36C1047.88 41.37 1045.04 39.94 1042.12 38.46C1043.23 35.66 1044.13 33.39 1045.58 29.72C1037.42 34.11 1033.49 30.12 1030.12 23.71C1030.32 32.41 1024.77 33.13 1017.69 32.61C1020.26 36.22 1022.07 38.76 1024 41.47C1021.9 43.83 1019.9 46.08 1016.7 49.66C1026.87 47.26 1028.39 52.57 1028.48 59.96C1032.29 53.25 1037.43 51.69 1044.66 54.82H1044.67Z" fill="white"/>
<path d="M775.27 319.15C769.4 316.21 763.53 313.27 757.66 310.32C753.33 317.65 754.06 328.77 759.98 335.95C763.63 340.37 767.93 344.26 771.9 348.42C780.32 357.26 781.15 362.62 775.89 373.9C750.94 360.63 739.35 337.57 749.63 311.38C754 300.24 761.12 290.09 767.58 279.87C775.41 267.5 770.93 256.08 756.04 252.49C753.68 257.39 751.58 262.08 755.24 267.57C756.7 269.76 758.33 273.6 757.39 275.31C754.43 280.65 750.41 285.43 746.38 290.07C746.01 290.5 741.76 288.84 740.88 287.27C739.13 284.15 738.14 280.49 737.43 276.94C733.99 259.71 734.85 242.58 739.54 225.71C740.44 222.47 743.07 219.71 745.49 217C747.82 225.98 742.7 235.83 750.77 244.14C757.29 231.57 753.85 215.8 765.78 204.67C768.31 218.53 762.04 231.15 764.31 245.33C765.91 242.97 767.2 241.64 767.83 240.04C770.52 233.22 772.89 226.27 775.63 219.47C777.59 214.6 779.82 209.83 782.25 205.18C782.75 204.23 784.65 204.01 785.91 203.46C786.45 204.72 787.69 206.14 787.43 207.2C785.35 215.71 782.96 224.14 780.73 232.61C779.28 238.1 777.95 243.62 776.56 249.13C777.09 249.43 777.62 249.73 778.15 250.03C780.03 248.08 782.43 246.42 783.68 244.13C786.74 238.55 789.33 232.71 792.01 226.93C794.41 221.76 796.59 216.46 802.01 212.51C802.93 220.48 802.02 227.75 799.42 234.51C795.13 245.65 790.15 256.54 785.32 267.47C781.52 276.08 777.5 284.6 773.59 293.16C770.37 300.2 770.7 307.08 774.53 313.82C775.22 315.04 775.68 316.4 776.25 317.69C775.93 318.17 775.61 318.66 775.28 319.14L775.27 319.15Z" fill="white"/>
<path d="M1029.28 383.22C1027.37 378.54 1025.65 374.33 1023.85 369.91C1017.75 371.13 1011.3 372.92 1004.74 373.61C994.57 374.69 987.09 371.37 984.06 363.35C987.38 359.05 990.4 355.14 993.67 350.9C1012.8 365.17 1034.4 364.48 1056.67 357.43C1055.51 377.54 1039 395.84 1019.32 399.06C997.08 402.69 972.45 392.1 963.19 368.15C955.13 347.31 962.57 321.52 981.74 307.64C996.05 297.28 1016.25 295.56 1026.41 304.35C1021.93 306.07 1017.75 307.67 1013.51 309.3C1017.33 312.59 1020.92 315.68 1024.5 318.76C1024.26 319.32 1024.02 319.89 1023.78 320.45C1015.41 321.59 1007.03 322.73 998.26 323.92C998.65 325.16 998.71 325.78 999 326.24C1003.78 333.79 1003.64 334.2 995.19 337.48C992.66 338.46 990.08 339.32 987.6 340.41C976.52 345.27 972.75 352.48 975.06 364.19C979.37 386.05 1012.69 397.49 1029.27 383.22H1029.28Z" fill="white"/>
<path d="M1184.45 3.96998C1179.12 13.84 1181.67 22.61 1183.69 31.29C1186.62 43.88 1185.37 55.46 1176.21 65.28C1168.58 73.46 1158.3 76.27 1147.9 78.16C1132.67 80.92 1117.31 79.76 1102.02 78.07C1101.41 78 1100.83 77.69 1099.02 77.08C1110.1 71.53 1112.27 62.43 1110.15 50.63C1113.56 53.11 1115.56 54.96 1117.89 56.16C1121.25 57.88 1124.75 59.66 1128.39 60.44C1132.26 61.26 1135.76 59.62 1137.31 55.62C1138.82 51.72 1138.54 47.65 1134.96 45.22C1130.79 42.39 1126.13 40.21 1121.52 38.1C1117.56 36.29 1113.37 34.98 1109.29 33.45C1109.31 32.85 1109.34 32.25 1109.36 31.66C1117.09 29.76 1124.82 27.86 1133.18 25.8C1125.19 16.06 1113.47 13.65 1102.69 7.72998C1116.75 3.79998 1129.83 2.09999 1143.09 6.27998C1147.55 7.67998 1149.39 11.48 1148.42 16.71C1147.6 21.1 1146.48 25.43 1145.59 29.81C1144.71 34.11 1147.02 36.56 1150.8 37.64C1154.98 38.84 1157.76 36.86 1158.65 32.8C1159.32 29.72 1159.48 26.5 1159.6 23.33C1159.74 19.5 1159.36 15.64 1159.65 11.83C1160.06 6.50998 1162.67 4.15998 1168.02 4.01998C1173.1 3.88998 1178.19 3.98998 1184.44 3.98998L1184.45 3.96998ZM1168.41 32.57C1166.14 50.31 1155.12 59.28 1140.05 64.67C1150.07 65.29 1159.43 64.34 1167.52 58.52C1177.27 51.5 1177.9 42.77 1168.41 32.57ZM1171.93 6.92998C1171.26 6.92998 1170.58 6.94998 1169.91 6.95998C1168.66 8.88998 1166.44 10.83 1166.48 12.73C1166.51 14.3 1169.44 17.23 1170.68 17.04C1172.54 16.75 1175.21 14.37 1175.4 12.64C1175.59 10.89 1173.2 8.84998 1171.93 6.93998V6.92998Z" fill="white"/>
<path d="M874.83 228.4C872.79 209.49 870.39 203.85 861.86 198.06C857.39 202.48 855.55 208.07 854.9 214.16C852.93 232.48 858.68 248.82 867.98 264.2C869.3 266.38 870.74 268.48 872.45 271.12C869.73 272.83 867.12 274.47 864.84 275.9C851.28 266.41 848.49 251.87 844.76 237.57C840.88 222.69 844.11 208.88 850.53 194.68C834.98 194.54 823.96 201.77 813.55 210.8C811.89 198.04 820.28 187.53 832.3 187.3C838.8 187.18 845.33 187.88 853.14 188.27C844.69 178.42 835.15 174.11 822.67 175.6C823.27 170.18 823.02 164.84 827.58 161.81C832.04 158.85 837.35 160.09 841.06 163.15C845.77 167.04 849.57 172.06 853.58 176.75C855.07 178.5 856.02 180.71 857.97 183.95C859.21 174.63 860.25 166.77 861.29 158.96C867.87 156.76 874.41 160.7 879.29 169.28C874.28 174.51 869.41 179.6 864.53 184.68C864.92 185.21 865.31 185.74 865.7 186.28C867.28 185.54 868.85 184.75 870.46 184.08C876.77 181.43 882.89 177.99 889.45 176.36C904.68 172.6 912.74 180.82 910.02 197.11C898.01 188.08 884.92 187.09 869.66 191.48C873.82 193.32 876.83 194.61 879.8 195.96C892.91 201.93 894.5 212.82 883.54 222.13C881.02 224.27 878.15 226.01 874.83 228.37V228.4Z" fill="white"/>
<path d="M796.56 361.23C797.18 369.41 797 376.98 798.45 384.22C802.49 404.28 823.65 416.52 843.31 410.77C848.84 409.15 852.28 405.37 854.24 400.19C860.11 384.7 848.99 366.29 832.6 364.22C826.44 363.44 820.2 366.23 817.74 370.86C815.21 375.62 816.46 381.87 820.91 386.72C828.6 395.09 839.87 394.9 845.51 385.93C837.57 383.74 828.13 383.49 826.49 372.08C833.66 370.9 839.98 371.63 845 377.14C849.75 382.36 850.64 388.57 848.56 395.04C846.04 402.89 837.53 406.21 827.24 403.78C814.39 400.75 804.77 388.05 805.28 374.78C805.66 364.87 813.4 356.47 823.2 355.42C835.04 354.16 845.14 357.95 852.69 367.05C862.04 378.32 865.6 391.59 863.39 406.07C861.51 418.36 852.31 426.75 839.39 428.82C812.69 433.08 786.21 412.77 783.79 385.75C782.86 375.38 788.94 368.09 796.56 361.24V361.23Z" fill="white"/>
<path d="M1103.19 406.49C1119.08 398.45 1132.34 388.82 1135.23 370.35C1134.86 369.94 1134.5 369.53 1134.13 369.11C1131.41 371.31 1128.33 373.19 1126.06 375.79C1121.44 381.07 1117.54 387.01 1112.82 392.19C1105.11 400.65 1092.41 400.11 1085.02 391.41C1080.93 386.6 1080.81 384.3 1085.55 380.1C1091.04 375.23 1097 370.89 1102.67 366.23C1107.39 362.35 1109.58 357.25 1109.72 350.04C1107.04 351.73 1104.81 352.76 1103.03 354.32C1097.86 358.84 1093.08 363.84 1087.73 368.14C1083.42 371.61 1078.71 374.73 1073.8 377.26C1069.24 379.61 1066.33 378.16 1064.52 373.87C1062.51 369.12 1063.41 366.04 1068.48 364.58C1081.61 360.8 1091.46 352.86 1100.29 342.67C1109.11 332.49 1121.2 330.88 1132.92 336.85C1144.83 342.92 1150.84 354.54 1149.07 367.22C1146.92 382.66 1138.37 394.31 1127.55 404.68C1124.21 407.88 1120.66 410.9 1117.04 413.77C1111.74 417.97 1108.86 417.35 1105.62 411.52C1104.77 410 1104.11 408.37 1103.21 406.48L1103.19 406.49ZM1119.88 347.32C1119.67 355.21 1129.99 361.76 1137.15 358.32C1140.67 356.63 1141.47 353.9 1140.31 350.4C1138.66 345.42 1132.36 340.9 1127.09 340.86C1122.6 340.82 1119.99 343.16 1119.88 347.32Z" fill="white"/>
<path d="M872.95 137.93C868.04 141.46 863.91 144.73 859.48 147.54C851.06 152.87 841.96 155.49 832.09 152.35C819.59 148.38 814.57 132.17 822.82 122.99C824.83 127.13 826.85 131.26 828.86 135.4C830.26 138.29 832.13 138.29 834.64 136.64C840.31 132.93 844.82 120.44 842.5 113.76C842.19 112.87 840.46 112.07 839.31 111.95C836.64 111.69 833.93 111.87 831.21 111.87C834.61 102.81 846.25 95.18 856.24 95.97C873.23 97.32 875.09 110.61 877.24 124.19C878.72 122.98 879.78 122.16 880.8 121.27C882.73 119.59 884.55 117.78 886.55 116.19C892.31 111.65 898.6 108.29 905.94 111.86C913.79 115.67 916.17 123.03 916.14 131.07C916.12 135.09 914.77 139.1 912.88 143.12C911.11 138.38 909.34 133.64 907.39 128.41C900.35 138.65 901.19 146.87 909.44 154.74C905.82 165.03 892.88 169.16 883.91 159.91C880.18 156.06 878.12 150.51 875.57 145.6C874.42 143.39 873.9 140.84 872.92 137.92L872.95 137.93ZM859.61 102.92C850.71 110.01 842.69 137.65 847.3 144.92C853.27 140.35 854.09 133.05 857.15 125.62C858.77 130.66 860.04 134.62 861.33 138.6C871.25 133.64 873.18 128.52 869.66 115.29C866.54 118.31 863.8 120.97 860.89 123.79C855.76 117.32 861.7 110.04 859.61 102.93V102.92ZM888.58 155C897.64 149.29 902.77 131.11 898.5 120.88C890.23 130.8 888.16 142.16 888.58 155ZM882.86 144.93C884.1 138.72 885.35 132.51 886.59 126.3C878.25 130.07 876.63 138.17 882.86 144.93Z" fill="white"/>
<path d="M904.66 274.82C899.49 271.15 895.24 268.37 891.26 265.25C887.14 262.02 883.11 258.64 879.35 255C875.8 251.57 876.27 247.51 879.04 243.83C880.75 241.56 882.82 239.51 885 237.67C887.43 235.62 890.12 233.85 892.78 232.09C900.48 227 904.93 220.34 902.75 210.42C915.43 215.87 919.5 228.81 912.5 239.64C909.91 243.65 907 247.54 905.04 251.85C904.22 253.65 904.81 256.85 905.97 258.62C908.14 261.92 911.24 264.58 913.86 267.59C917.32 271.57 918.32 275.95 915.69 280.8C913.49 284.87 911.38 288.98 909.1 293C902.35 304.89 902.33 315.32 915.46 322.72C915.81 322.92 916.03 323.34 916.38 323.73C902.78 326.18 887.23 318.78 880.11 306.59C873.66 295.55 875.2 283.68 884.23 272.96C889.36 274.76 894.27 276.73 899.34 278.08C900.44 278.37 902.14 276.43 904.65 274.81L904.66 274.82Z" fill="white"/>
<path d="M1000.63 290.33C1001.79 284.52 1003.17 279.11 1003.89 273.61C1004.6 268.27 1004.64 262.84 1005.05 256.22C1012.12 260.16 1018.33 263.62 1024.52 267.07C1029.13 263.01 1029.51 258.89 1025.03 255.07C1021.53 252.08 1017.52 249.67 1013.64 247.16C1002.26 239.81 1000.29 234.75 1004.03 221.84C1004.82 219.12 1005.72 216.42 1006.65 213.45C1013.6 218.25 1020.41 222.63 1026.77 227.57C1028.47 228.89 1029.38 231.9 1029.63 234.24C1030.04 238.02 1029.72 241.9 1029.52 245.73C1029.27 250.55 1031.56 253.13 1036.72 254.12C1036.72 249.9 1036.67 245.98 1036.73 242.05C1036.84 234.62 1039.53 232.27 1046.53 234.28C1052.6 236.02 1058.46 238.52 1065.86 241.21C1060.96 243.91 1057.41 245.91 1053.83 247.85C1050.04 249.9 1045.86 251.45 1042.57 254.1C1040.74 255.57 1039.34 258.98 1039.63 261.28C1039.89 263.29 1042.48 265.63 1044.6 266.61C1047.2 267.81 1050.38 267.75 1053.5 268.26C1054.35 264.4 1055.06 261.19 1056.08 256.56C1063.32 262.45 1069.98 267.56 1076.26 273.1C1079.82 276.24 1076.53 278.83 1074.07 279.56C1066.82 281.73 1059.35 283.15 1050.85 285.12C1052.13 280.5 1052.99 277.39 1054.01 273.68C1048.29 273.4 1043.01 273.14 1036.48 272.82C1040.07 280.12 1043.2 286.46 1046.46 293.09C1041.97 296.08 1037.18 296.47 1032.39 294.86C1027.43 293.19 1025.68 288.4 1027.66 282.52C1028.87 278.94 1030.51 275.51 1032.14 271.58C1026.95 271.45 1023.92 274.31 1021.16 277.28C1015.4 283.48 1008.75 288.13 1000.64 290.32L1000.63 290.33Z" fill="white"/>
<path d="M876.92 319.09C889.21 331.64 903.47 336.95 920.33 333.13C925.63 331.93 930.55 329.7 934.25 324.78C930.43 321.55 926.77 318.49 923.14 315.38C914.18 307.7 913.7 304.33 920.47 293.04C923.92 303.32 932.58 307.2 940.83 311.82C951.45 317.77 954.72 329.12 950.31 342.27C942.63 365.19 914.9 374.65 893.41 361.69C878.32 352.59 871.29 336.95 875.57 321.98C875.74 321.38 876.09 320.84 876.9 319.09H876.92ZM942.66 332.36C929.76 333.52 920.8 345.29 923.93 357C935.37 355.19 944.15 343.64 942.66 332.36Z" fill="white"/>
<path d="M808.98 293.35C812.91 293.78 816.37 294.17 820.39 294.61C824.06 275.76 813.74 259.44 811.7 241.75C808.26 248.52 808.47 255.78 808.12 262.98C807.78 270.14 807.64 277.35 806.61 284.42C805.79 290.05 801.98 293.08 797.02 293.64C789.84 294.45 787.07 291.8 785.24 281.76C787.25 282.29 788.99 282.81 790.74 283.21C796.99 284.66 799.66 283.36 800.67 277.04C801.77 270.13 801.91 263.07 802.44 256.07C803.91 236.82 813.92 222.75 829.95 210.97C829.21 214.94 828.71 217.93 828.08 220.9C825.63 232.51 828.67 243.23 834.32 253.09C840.1 263.19 846.95 272.68 853.04 282.61C856.53 288.31 860.08 294.11 862.47 300.31C866.51 310.74 857.17 321.89 846.11 320.5C838.24 319.51 834.28 312.69 835.54 301.62C838.12 303.12 840.42 304.72 842.93 305.88C848.62 308.52 852.3 306.07 851.37 299.91C850.82 296.21 849.31 292.56 847.69 289.14C845.84 285.26 843.54 281.57 841.16 277.99C832.41 264.82 826.19 250.58 822.67 235.16C822.23 233.23 821.52 231.36 820.38 229.55C817.36 237.65 817.8 245.76 820.01 253.74C822.85 264.03 826.13 274.19 829.16 284.43C829.65 286.1 829.9 287.86 830.12 289.59C831.08 297.39 826.72 303.79 819.75 304.91C814.76 305.71 810.9 301.67 808.96 293.36L808.98 293.35Z" fill="white"/>
<path d="M1065.64 252.44C1075.47 252.59 1078.55 248.17 1077.71 239.71C1080.32 242.1 1082.93 244.49 1085.89 247.19C1089.02 245 1092.1 242.85 1095.88 240.2C1094.65 246.77 1093.19 252.47 1092.66 258.25C1092.34 261.77 1092.96 265.58 1094.07 268.96C1095.44 273.11 1099.2 273.8 1101.7 270.26C1103.5 267.7 1104.45 264.18 1104.75 261C1105.24 255.79 1104.88 250.5 1104.88 244.29C1110.44 248.65 1115.87 252.36 1122.27 246.2C1121.54 249.7 1120.8 253.2 1119.96 257.21C1122.44 258.14 1124.9 259.06 1128.22 260.31C1119.03 264.06 1108.55 264.87 1103.83 275.59C1115.18 280.4 1125.46 276 1136.61 272.84C1130.83 280.36 1131.77 286.02 1140.83 290.19C1132.96 289.69 1127.32 291.06 1128.02 300.45C1125.86 297.6 1124.01 294.43 1121.48 291.96C1117.76 288.34 1113.9 284.64 1109.47 282.07C1105.25 279.63 1101.39 282.87 1102.9 287.52C1104.24 291.64 1106.45 295.79 1109.3 299.01C1112.96 303.14 1117.64 306.35 1122.32 310.32C1119.08 310.85 1116.22 311.32 1113.09 311.84V324.34C1112.67 324.65 1112.25 324.95 1111.83 325.26C1109.46 322.53 1107.52 318.43 1104.57 317.5C1102.01 316.68 1098.31 319.44 1094.67 320.78C1098.73 309.35 1103.07 298.12 1098.98 285.98C1088.29 286.32 1083.63 290.86 1081.21 317.16C1079.12 313.64 1077.39 310.72 1075.46 307.46C1072.28 308.89 1069.28 310.24 1065.16 312.1C1066.75 308.01 1068.01 304.77 1069.43 301.13C1066.28 299.67 1063.31 298.3 1059.34 296.46C1063.49 295.19 1066.82 294.45 1069.91 293.16C1074.3 291.34 1078.95 289.7 1082.74 286.95C1090.99 280.97 1091.21 272.09 1083.4 265.52C1078.29 261.22 1072.64 257.56 1065.63 252.45L1065.64 252.44Z" fill="white"/>
<path d="M1088.15 410.16C1096.41 417.07 1097.7 427.54 1091.44 436.21C1081.62 449.82 1067.7 456.69 1051.6 459.54C1046.61 460.42 1041.44 460.68 1036.36 460.58C1028.76 460.43 1023.26 454.45 1023.29 446.96C1023.33 438.3 1026.59 430.86 1031.88 424.12C1034.17 421.21 1036.78 419.97 1040.54 420.44C1046.53 421.18 1052.59 422.21 1058.57 421.93C1069.57 421.43 1078.87 415.87 1088.15 410.15V410.16ZM1078.51 426.33C1070.56 428.02 1062.93 429.6 1055.32 431.29C1054.34 431.51 1052.77 432.24 1052.7 432.87C1052.12 438.2 1051.82 443.56 1051.43 449.09C1068.01 446.92 1078.92 437.52 1078.51 426.33Z" fill="white"/>
<path d="M806.31 24.7H783.11C790.05 20.54 795.83 17.08 802.3 13.2C798.98 10.15 796.23 7.61 793.2 4.82C796.61 1.26 800.8 -0.0600002 804.85 1.88C810.23 4.46 815.38 7.78 820.06 11.49C822.91 13.75 824.78 14.01 827.39 11.71C834.91 5.06 843.59 2.3 853.82 4.58C851.35 7.48 848.76 10.5 845.99 13.75C851.48 18.51 856.6 22.95 861.72 27.39L861.21 28.25C855.5 27.62 849.79 27 843.96 26.35C841.66 34.58 846.25 40.79 847.39 48.33C845.12 46.58 842.84 44.85 840.59 43.08C837.84 40.92 835.28 38.44 832.32 36.64C829.31 34.81 827.08 35.5 826.24 39.52C825.18 44.64 823.62 49.65 822.09 55.43C817.36 48.33 819.21 39.16 812.33 33.48C807.43 37.02 802.56 40.54 797.7 44.06C797.38 43.85 797.05 43.64 796.73 43.44C799.79 37.47 802.85 31.5 806.34 24.7H806.31Z" fill="white"/>
<path d="M1098.72 132.18C1080.43 131.19 1065.11 118.95 1061.02 101.35C1060.41 98.73 1060.36 96.87 1063.9 96.24C1071.58 94.88 1079.15 92.87 1086.84 91.55C1089.27 91.13 1092.49 91.23 1094.37 92.52C1099.8 96.26 1105.34 96.36 1111.23 94.59C1115.48 93.31 1118.62 94.33 1120.51 98.53C1122.41 102.73 1124.89 106.76 1126.17 111.13C1128.52 119.13 1126.28 124.31 1118.51 127.27C1112.2 129.68 1105.33 130.61 1098.71 132.19L1098.72 132.18ZM1076.77 106.44C1082.01 114.9 1089.25 118.33 1097.85 118.85C1103.8 119.21 1109.52 117.87 1114.93 112.93C1102.6 110.63 1091.4 108.53 1080.19 106.46C1079.44 106.32 1078.64 106.44 1076.77 106.44Z" fill="white"/>
<path d="M883.82 405.2C888.23 405.2 892.22 405.07 896.19 405.23C902.57 405.48 907.25 402.9 910.38 397.33C912.18 394.13 914.01 390.93 916.06 387.88C917.65 385.51 919.44 383.22 921.43 381.17C924.4 378.1 927.69 377.13 931.63 379.94C933.89 381.55 936.61 382.53 939.85 384.15C939.51 377.96 939.21 372.62 938.92 367.28C952.75 366.8 958.07 373.61 956.54 389.86C952.67 389.23 948.82 388.6 943.86 387.79C945.25 399.21 941.04 408.11 931.67 414.42C924.84 419.01 917.3 421.25 909.08 421.2C896.41 421.11 887.33 415.5 883.82 405.19V405.2Z" fill="white"/>
<path d="M1162.36 347.88C1158.09 335.82 1148.26 330.99 1138.48 326.17C1134.61 324.26 1131.99 321.65 1131.75 317.1C1131.33 309.32 1135.29 305.02 1143.05 304.98C1145.88 304.97 1148.7 304.98 1152.07 304.98C1152.07 301.91 1152 299.08 1152.08 296.25C1152.22 291.37 1154.22 287.55 1158.89 285.63C1163.81 283.6 1168.38 284.99 1171.44 288.85C1174.13 292.24 1176.6 296.35 1177.54 300.51C1181.67 318.85 1174.2 333.69 1162.36 347.89V347.88Z" fill="white"/>
<path d="M826.46 324.63C824.36 327.37 822.71 330.7 820.05 332.71C816.86 335.13 815.26 337.8 814.62 341.65C813.08 350.94 805.06 354.5 797.26 349.04C792.73 345.87 788.19 344.02 782.68 344.06C780.29 344.08 777.42 344.37 776.59 340.84C775.61 336.64 772.61 332.48 776.6 328.33C777.7 327.18 779.17 326.33 780.08 325.06C782.04 322.31 784.46 319.61 785.43 316.49C788.79 305.7 795.55 303.11 804.28 310.08C807.25 312.45 810.21 313.24 813.89 313.22C821.2 313.18 825.27 317.14 826.44 324.63H826.46ZM800.45 336.2C804.54 336.24 807.46 333.39 807.43 329.37C807.4 325.64 804.09 322.32 800.41 322.33C796.66 322.34 793.55 325.51 793.47 329.41C793.39 333.46 796.15 336.14 800.44 336.19L800.45 336.2Z" fill="white"/>
<path d="M736.94 165.57C738.53 156.42 739.79 147.66 744.77 140.2C750.71 131.29 759.66 127.45 770.07 126.95C781.46 126.4 786.79 130.09 790.6 140.8C790.89 141.61 790.89 142.74 790.56 143.51C786.22 153.5 781.05 163.14 769.94 166.71C764.51 168.46 758.38 168.64 752.6 168.47C747.59 168.32 742.62 166.68 736.94 165.56V165.57ZM768.99 161.01C763.7 153.78 758.59 146.8 753.52 139.87C749.62 144.02 748.87 149.23 751.66 154.3C754.93 160.23 761.2 162.69 768.99 161V161.01ZM765.66 132.93C767.53 137.65 768.32 141.15 770.19 143.94C771.95 146.56 774.56 148.93 777.32 150.45C779.9 151.87 783.31 150.34 782.29 147.24C780.72 142.45 778.07 137.81 774.9 133.88C773.75 132.45 769.82 133.26 765.66 132.93Z" fill="white"/>
<path d="M1146.71 134.52C1153.86 132.06 1160.77 130.45 1166.93 127.36C1173.08 124.28 1178.5 119.72 1184.52 115.61C1187.2 124.28 1187.52 133.14 1186.8 142.02C1186.19 149.48 1185.06 156.9 1184.05 164.32C1183.2 170.48 1180.58 171.76 1175.39 168.49C1162.16 160.15 1152.81 148.55 1146.71 134.51V134.52Z" fill="white"/>
<path d="M844.61 330.34C854.52 330.4 861.29 335.52 865.27 344.13C867.93 349.89 869.74 356.07 871.66 362.14C872.5 364.81 873.73 365.94 876.66 366.11C886.12 366.64 895.25 368.17 900.63 377.45C902.96 381.46 905.98 385.61 903.03 390.31C900.17 394.88 895.14 394.69 890.48 394.3C880.28 393.43 871.47 386.07 868.64 376.22C867.71 373 866.86 369.76 866.16 366.49C864.35 357.97 859.33 352.21 851.33 349.01C845.55 346.7 839.74 344.46 833.91 342.3C829.87 340.8 829.79 338.53 832.25 335.48C835.45 331.51 839.74 330.28 844.61 330.36V330.34ZM897.71 384.82C894.93 375.12 883.65 370.37 877.12 376C882.4 382.38 888.54 386.51 897.71 384.82Z" fill="white"/>
<path d="M1004.19 119.45C1012.12 121.28 1019.22 122.92 1026.72 124.66C1026.21 127.44 1025.67 130.35 1025.08 133.58C1039.49 134.31 1049.26 128.7 1053.01 113.8C1060.11 127.87 1050.35 145.5 1034.86 147.46C1029.73 148.11 1024.3 147.77 1019.19 146.86C1015.23 146.15 1012.48 146.3 1010.59 150.13C1010.12 151.07 1009.26 151.81 1008.25 153.04C1001.09 142.13 1000.93 131.01 1004.19 119.45Z" fill="white"/>
<path d="M1037.03 303.1C1049.24 306.1 1060.36 318.8 1061.14 331.8C1061.56 338.8 1058.19 344.11 1052.17 347.54C1046.75 350.63 1041.3 350 1036.48 346.3C1030.88 342 1030.09 335.84 1031.35 329.4C1033.06 320.71 1035.07 312.08 1037.03 303.1ZM1043.2 314.85V330.57C1043.71 330.88 1044.21 331.19 1044.72 331.51C1046.82 329.05 1050.31 326.79 1050.72 324.07C1051.4 319.53 1047.28 317.15 1043.2 314.85Z" fill="white"/>
<path d="M795.53 153.85C800.46 157.47 804.79 160.18 808.54 163.53C813.33 167.81 815.23 173.48 814.6 179.93C813.98 186.21 809.9 191.1 804.65 191.8C797.95 192.69 791.27 189.52 789.82 183.33C788.64 178.29 788.67 172.65 789.57 167.52C790.34 163.15 793.13 159.13 795.53 153.85Z" fill="white"/>
<path d="M1008.23 108.38C1008.19 107.6 1008.13 107.29 1008.17 106.98C1010.21 90.45 1018.99 85.84 1035.23 90.19C1038.45 91.05 1041.57 92.53 1044.84 92.99C1050.03 93.73 1051.1 96.78 1049.75 100.99C1047.69 107.43 1045.18 113.72 1042.4 121.35C1037.43 117.01 1033.59 113.81 1029.98 110.36C1029.43 109.83 1029.68 108.04 1030.08 107.05C1030.73 105.47 1031.82 104.07 1032.73 102.59C1026.53 98.69 1019.58 100.33 1008.22 108.38H1008.23Z" fill="white"/>
<path d="M1060.02 414.78C1053.77 413.31 1048.85 412.14 1043.93 411C1041.3 410.39 1040.42 408.99 1040.82 406.18C1042.23 396.2 1044.54 393.33 1055.53 392.25C1061.22 391.69 1067.15 393.02 1072.92 393.85C1076.19 394.32 1078.24 396.56 1078.62 400.01C1079.03 403.7 1078.64 407.5 1075.06 409.19C1070.01 411.57 1064.57 413.13 1060.02 414.77V414.78Z" fill="white"/>
<path d="M1176.3 86.08C1183.27 93.29 1184 98.88 1179.24 106.87C1171.91 119.17 1156.48 126.12 1142.22 123.61C1138.73 123 1137.04 121.1 1136.59 117.56C1136.06 113.35 1139.23 113.45 1141.69 112.83C1146.63 111.57 1151.69 110.75 1156.56 109.29C1166.26 106.38 1173.09 100.52 1174.95 90.01C1175.12 89.08 1175.44 88.17 1175.73 87.26C1175.82 86.96 1176.01 86.69 1176.31 86.08H1176.3Z" fill="white"/>
<path d="M778.21 107.15C778.15 117.98 777.78 118.29 767.95 115.5C760.62 113.42 754.24 110.15 752.15 101.91C750.59 95.73 752.66 90.23 757.68 87.48C762.75 84.69 769.06 86 773.17 90.83C777.33 95.73 778.47 101.58 778.21 107.15Z" fill="white"/>
<path d="M1070.05 319.85C1078.58 324 1086.49 326.73 1088.65 335.99C1090.54 344.11 1084.13 351.5 1075.8 350.89C1070.54 350.5 1066.99 347.17 1067.36 341.93C1067.86 334.84 1069.04 327.79 1070.04 319.85H1070.05Z" fill="white"/>
<path d="M883.85 64.67C895.81 70.71 905.67 77.64 914.18 86.41C916.17 88.46 914.98 99.13 912.7 100.86C912.09 101.32 910.85 101.4 910.11 101.11C908.65 100.55 907 99.9 906 98.79C897.13 88.9 888.81 78.62 883.85 64.68V64.67Z" fill="white"/>
<path d="M1067.3 217.15C1067.24 223.38 1061.59 228.4 1054.8 228.24C1048.81 228.1 1043.67 222.74 1043.72 216.68C1043.78 210.17 1048.81 205.19 1055.31 205.21C1062.49 205.23 1067.35 210.07 1067.29 217.15H1067.3Z" fill="white"/>
<path d="M1132.12 93.09C1142.68 90.78 1151.64 88.71 1160.67 86.95C1162.27 86.64 1165.29 87.18 1165.6 88.06C1166.26 89.9 1166.23 92.6 1165.3 94.3C1162.16 100.08 1146.45 106.75 1140.71 103.82C1137.18 102.02 1135.21 97.14 1132.12 93.09Z" fill="white"/>
<path d="M1067.12 164.8C1067.1 170.91 1062.4 175.48 1056.09 175.52C1050.29 175.56 1045.64 170.84 1045.53 164.79C1045.42 158.88 1050.29 153.85 1056 153.98C1062.15 154.11 1067.14 158.96 1067.12 164.8Z" fill="white"/>
<path d="M1035.77 172.12C1041.15 171.99 1046.61 177.65 1046.69 183.44C1046.76 188.53 1041.9 193.23 1036.35 193.44C1031.09 193.64 1026.29 188.7 1026.12 182.91C1025.94 176.73 1029.95 172.25 1035.77 172.11V172.12Z" fill="white"/>
<path d="M1022.95 194.33C1022.87 199.77 1018.66 203.6 1012.88 203.48C1007.45 203.37 1003.89 199.5 1003.96 193.81C1004.03 188.27 1007.95 184.42 1013.35 184.56C1018.9 184.7 1023.03 188.91 1022.95 194.34V194.33Z" fill="white"/>
<path d="M738.69 100.14C743.83 107.84 748.95 115.52 753.94 123.02C744.97 125.91 739.98 124.79 735.71 118.51C730.87 111.39 731.26 109.35 738.69 100.14Z" fill="white"/>
<path d="M1011.73 330.86C1015.92 333.4 1019.25 335.18 1022.3 337.36C1025.42 339.6 1026.32 342.98 1025.78 346.69C1025.19 350.82 1022.33 352.62 1018.56 353.01C1014.84 353.4 1012.12 351.52 1011.83 347.84C1011.42 342.68 1011.73 337.47 1011.73 330.86Z" fill="white"/>
<path d="M783.99 193.94C775.55 194.57 771.01 192.57 769.32 187.28C767.49 181.56 770.84 175.47 778.17 170.91C780.1 178.55 782.06 186.27 783.99 193.94Z" fill="white"/>
<path d="M760.94 199.28C756.17 201.59 751.6 204.55 746.59 206.04C739.63 208.11 735.71 205.51 733.51 198.65C732.75 196.29 732.29 193.84 732 190.89C740.15 199.08 750.19 198.61 760.35 197.59C760.55 198.15 760.74 198.71 760.94 199.27V199.28Z" fill="white"/>
<path d="M1076.72 193.81C1081.31 193.78 1085.18 197.83 1085.05 202.51C1084.95 206.23 1080.86 209.85 1076.85 209.77C1072.99 209.7 1069.47 205.58 1069.49 201.15C1069.51 197.12 1072.75 193.83 1076.72 193.81Z" fill="white"/>
<path d="M753.6 46.69C751.33 53.81 744.33 59.89 735.1 62.78C733.25 49.32 738.74 45.77 753.6 46.69Z" fill="white"/>
<path d="M897.57 21.09C903.73 20.76 909.65 20.44 916.14 20.1C916.14 23.37 916.64 26.27 915.95 28.84C915.56 30.3 913.25 32.13 911.72 32.22C906.17 32.55 899.88 27.55 897.58 21.09H897.57Z" fill="white"/>
<path d="M1075.49 186.27C1071.71 186.3 1068.63 183.12 1068.66 179.23C1068.69 175.43 1071.84 172.35 1075.77 172.29C1079.35 172.23 1082.55 176 1082.48 180.16C1082.41 183.97 1079.82 186.24 1075.49 186.27Z" fill="white"/>
<path d="M737.36 174.93C744.7 176.99 751.75 178.97 759.1 181.04C755.41 184.66 751.71 188.03 746.2 186.82C740.01 185.46 739.06 179.98 737.36 174.93Z" fill="white"/>
<path d="M1063.41 192.21C1063.35 196.07 1060.55 198.72 1056.64 198.41C1052.71 198.1 1050.62 195.68 1050.39 191.88C1050.17 188.27 1053.85 184.85 1057.45 184.99C1060.96 185.12 1063.47 188.17 1063.41 192.22V192.21Z" fill="white"/>
<path d="M803.08 130.52C806.83 130.41 809.73 133.14 809.92 136.97C810.11 140.78 807.4 143.7 803.57 143.8C800.22 143.89 797.06 140.71 796.85 137.03C796.66 133.68 799.58 130.63 803.08 130.53V130.52Z" fill="white"/>
<path d="M794.37 114.41C797.75 114.46 801.23 118.31 801.11 121.86C801 125.05 797.6 128 794.22 127.84C790.65 127.67 787.77 124.45 787.86 120.74C787.95 117.24 790.9 114.37 794.37 114.42V114.41Z" fill="white"/>
<path d="M1018.95 162.04C1021 165.43 1024.84 169.17 1021.89 172.93C1020.06 175.25 1015.3 175.26 1011.82 176.32C1009.12 165.31 1009.85 163.97 1018.95 162.04Z" fill="white"/>
<path d="M1033.83 212.58C1030.26 212.65 1027.88 210.09 1027.85 206.07C1027.83 202.21 1029.22 199.65 1033.62 199.66C1038.04 199.68 1040.76 202.03 1040.82 206.1C1040.87 209.37 1037.48 212.51 1033.83 212.58Z" fill="white"/>
<path d="M1086.7 222.92C1084.28 225.06 1082.14 227.77 1079.34 229.1C1077.75 229.86 1074.36 229.03 1073.11 227.68C1071.8 226.27 1071.24 223.06 1071.94 221.24C1072.52 219.73 1075.49 218.17 1077.26 218.32C1080.38 218.59 1083.38 220.15 1086.43 221.18C1086.52 221.76 1086.61 222.34 1086.71 222.92H1086.7Z" fill="white"/>
<path d="M1025.25 159.22C1031.15 153.55 1035.02 152.64 1038.13 156.02C1040.16 158.23 1039.52 162.82 1036.89 164.99C1033.44 167.84 1030.12 166.24 1025.25 159.21V159.22Z" fill="white"/>
<path d="M1060.23 137.52C1062.35 137.52 1064.28 137.31 1066.14 137.57C1069.37 138.02 1071.19 139.72 1071.03 143.35C1070.87 146.91 1069.27 148.45 1065.75 148.64C1058.99 149 1058.05 147.32 1060.23 137.52Z" fill="white"/>
</svg>
