<svg width="297" height="40" viewBox="0 0 297 40" fill="none" xmlns="http://www.w3.org/2000/svg">
<g clip-path="url(#clip0_8_2)">
<path d="M28.33 40.11V21.18L22.69 30.84L16.43 30.51L10.79 21.18V40.11H1.02002V0.290009H10.63L19.57 17.83L28.5 0.290009H38.11V40.11H28.33Z" fill="white"/>
<path d="M63.9101 23.89V40.11H54.1401V23.89L42.1301 0.290009H52.8001L59.0601 15.09L65.2601 0.290009H75.9301L63.9101 23.89Z" fill="white"/>
<path d="M89.72 9.00001V15.98H104.47V24.69H89.72V40.11H79.95V0.290009H106.98V9.00001H89.72Z" fill="white"/>
<path d="M113.23 40.11V0.290009H123V40.11H113.23Z" fill="white"/>
<path d="M148.25 9.00001V40.11H138.48V9.00001H128.71V0.290009H158.03V9.00001H148.25Z" fill="white"/>
<path d="M186.23 40.11L173.5 20.11V40.11H163.73V0.290009H172.28L185.01 20.29V0.290009H194.78V40.11H186.23Z" fill="white"/>
<path d="M202.82 40.11V0.290009H229.85V9.00001H212.59V15.65H227.34V24.36H212.59V31.4H229.85V40.11H202.82Z" fill="white"/>
<path d="M248.12 40.39C244.81 40.39 241.95 40.01 239.55 39.25C237.15 38.49 234.98 37.12 233.04 35.14L239.3 28.88C240.27 29.85 241.54 30.56 243.13 31C244.71 31.45 246.4 31.67 248.18 31.67C251.98 31.67 253.88 30.48 253.88 28.09C253.88 27.09 253.68 26.38 253.29 25.97C252.9 25.56 252.5 25.26 252.09 25.08C251.68 24.89 251.14 24.76 250.47 24.69L245.67 24.02C242.13 23.5 239.46 22.32 237.66 20.47C235.85 18.63 234.95 15.97 234.95 12.51C234.95 8.82 236.25 5.81 238.86 3.46C241.47 1.11 245 -0.0599976 249.47 -0.0599976C252.41 -0.0599976 254.95 0.300002 257.09 1.03C259.23 1.76 261.16 2.98 262.87 4.69L256.73 10.83C255.98 10.09 255.07 9.51 253.99 9.1C252.91 8.69 251.55 8.49 249.91 8.49H249.18C247.58 8.49 246.38 8.85 245.58 9.58C244.78 10.31 244.38 11.17 244.38 12.18C244.38 12.59 244.45 12.93 244.58 13.21C244.71 13.49 244.91 13.77 245.19 14.05C245.47 14.33 245.81 14.57 246.22 14.78C246.63 14.99 247.19 15.12 247.9 15.2L252.7 15.87C256.2 16.35 258.64 17.28 260.02 18.63C261.4 19.99 262.32 21.39 262.78 22.82C263.24 24.25 263.48 25.94 263.48 27.87C263.48 31.74 262.02 34.8 259.1 37.03C256.17 39.27 252.51 40.39 248.12 40.39Z" fill="white"/>
<path d="M281.24 40.39C277.93 40.39 275.07 40.01 272.67 39.25C270.27 38.49 268.1 37.12 266.16 35.14L272.42 28.88C273.39 29.85 274.66 30.56 276.25 31C277.83 31.45 279.52 31.67 281.3 31.67C285.1 31.67 287 30.48 287 28.09C287 27.09 286.8 26.38 286.41 25.97C286.02 25.56 285.62 25.26 285.21 25.08C284.8 24.89 284.26 24.76 283.59 24.69L278.79 24.02C275.25 23.5 272.58 22.32 270.78 20.47C268.97 18.63 268.07 15.97 268.07 12.51C268.07 8.82 269.37 5.81 271.98 3.46C274.59 1.11 278.12 -0.0599976 282.59 -0.0599976C285.53 -0.0599976 288.07 0.300002 290.21 1.03C292.35 1.76 294.28 2.98 295.99 4.69L289.85 10.83C289.1 10.09 288.19 9.51 287.11 9.1C286.03 8.69 284.67 8.49 283.03 8.49H282.3C280.7 8.49 279.5 8.85 278.7 9.58C277.9 10.31 277.5 11.17 277.5 12.18C277.5 12.59 277.57 12.93 277.7 13.21C277.83 13.49 278.03 13.77 278.31 14.05C278.59 14.33 278.93 14.57 279.34 14.78C279.75 14.99 280.31 15.12 281.02 15.2L285.82 15.87C289.32 16.35 291.76 17.28 293.14 18.63C294.52 19.99 295.44 21.39 295.9 22.82C296.36 24.25 296.6 25.94 296.6 27.87C296.6 31.74 295.14 34.8 292.22 37.03C289.29 39.27 285.63 40.39 281.24 40.39Z" fill="white"/>
</g>
<defs>
<clipPath id="clip0_8_2">
<rect width="297" height="40" fill="white"/>
</clipPath>
</defs>
</svg>
