<?xml version="1.0" encoding="utf-8"?>
<!-- Generator: Adobe Illustrator 25.3.0, SVG Export Plug-In . SVG Version: 6.00 Build 0)  -->
<svg version="1.1" id="Layer_1" xmlns="http://www.w3.org/2000/svg" xmlns:xlink="http://www.w3.org/1999/xlink" x="0px" y="0px"
	 viewBox="0 0 297 40" style="enable-background:new 0 0 297 40;" xml:space="preserve">
<style type="text/css">
	.st0{fill:#FFFFFF;}
</style>
<g>
	<path class="st0" d="M28.33,40.11V21.18l-5.64,9.66l-6.26-0.33l-5.64-9.33v18.93H1.02V0.29h9.61l8.94,17.54L28.5,0.29h9.61v39.82
		H28.33z"/>
	<path class="st0" d="M63.91,23.89v16.22h-9.77V23.89L42.13,0.29H52.8l6.26,14.8l6.2-14.8h10.67L63.91,23.89z"/>
	<path class="st0" d="M89.72,9v6.98h14.75v8.71H89.72v15.42h-9.77V0.29h27.03V9H89.72z"/>
	<path class="st0" d="M113.23,40.11V0.29H123v39.82H113.23z"/>
	<path class="st0" d="M148.25,9v31.11h-9.77V9h-9.77V0.29h29.32V9H148.25z"/>
	<path class="st0" d="M186.23,40.11l-12.73-20v20h-9.77V0.29h8.55l12.73,20v-20h9.77v39.82H186.23z"/>
	<path class="st0" d="M202.82,40.11V0.29h27.03V9h-17.26v6.65h14.75v8.71h-14.75v7.04h17.26v8.71H202.82z"/>
	<path class="st0" d="M248.12,40.39c-3.31,0-6.17-0.38-8.57-1.14c-2.4-0.76-4.57-2.13-6.51-4.11l6.26-6.26
		c0.97,0.97,2.24,1.68,3.83,2.12c1.58,0.45,3.27,0.67,5.05,0.67c3.8,0,5.7-1.19,5.7-3.58c0-1-0.2-1.71-0.59-2.12
		c-0.39-0.41-0.79-0.71-1.2-0.89c-0.41-0.19-0.95-0.32-1.62-0.39l-4.8-0.67c-3.54-0.52-6.21-1.7-8.01-3.55
		c-1.81-1.84-2.71-4.5-2.71-7.96c0-3.69,1.3-6.7,3.91-9.05c2.61-2.35,6.14-3.52,10.61-3.52c2.94,0,5.48,0.36,7.62,1.09
		c2.14,0.73,4.07,1.95,5.78,3.66l-6.14,6.14c-0.75-0.74-1.66-1.32-2.74-1.73c-1.08-0.41-2.44-0.61-4.08-0.61h-0.73
		c-1.6,0-2.8,0.36-3.6,1.09s-1.2,1.59-1.2,2.6c0,0.41,0.07,0.75,0.2,1.03c0.13,0.28,0.33,0.56,0.61,0.84s0.62,0.52,1.03,0.73
		c0.41,0.21,0.97,0.34,1.68,0.42l4.8,0.67c3.5,0.48,5.94,1.41,7.32,2.76c1.38,1.36,2.3,2.76,2.76,4.19c0.46,1.43,0.7,3.12,0.7,5.05
		c0,3.87-1.46,6.93-4.38,9.16C256.17,39.27,252.51,40.39,248.12,40.39z"/>
	<path class="st0" d="M281.24,40.39c-3.31,0-6.17-0.38-8.57-1.14c-2.4-0.76-4.57-2.13-6.51-4.11l6.26-6.26
		c0.97,0.97,2.24,1.68,3.83,2.12c1.58,0.45,3.27,0.67,5.05,0.67c3.8,0,5.7-1.19,5.7-3.58c0-1-0.2-1.71-0.59-2.12
		c-0.39-0.41-0.79-0.71-1.2-0.89c-0.41-0.19-0.95-0.32-1.62-0.39l-4.8-0.67c-3.54-0.52-6.21-1.7-8.01-3.55
		c-1.81-1.84-2.71-4.5-2.71-7.96c0-3.69,1.3-6.7,3.91-9.05c2.61-2.35,6.14-3.52,10.61-3.52c2.94,0,5.48,0.36,7.62,1.09
		c2.14,0.73,4.07,1.95,5.78,3.66l-6.14,6.14c-0.75-0.74-1.66-1.32-2.74-1.73c-1.08-0.41-2.44-0.61-4.08-0.61h-0.73
		c-1.6,0-2.8,0.36-3.6,1.09s-1.2,1.59-1.2,2.6c0,0.41,0.07,0.75,0.2,1.03c0.13,0.28,0.33,0.56,0.61,0.84s0.62,0.52,1.03,0.73
		c0.41,0.21,0.97,0.34,1.68,0.42l4.8,0.67c3.5,0.48,5.94,1.41,7.32,2.76c1.38,1.36,2.3,2.76,2.76,4.19c0.46,1.43,0.7,3.12,0.7,5.05
		c0,3.87-1.46,6.93-4.38,9.16C289.29,39.27,285.63,40.39,281.24,40.39z"/>
</g>
</svg>
