<svg width="512" height="512" viewBox="0 0 512 512" fill="none" xmlns="http://www.w3.org/2000/svg">
<path fill-rule="evenodd" clip-rule="evenodd" d="M299.261 388.979C299.261 388.979 291.909 393.094 284.014 389.046C285.93 387.962 287.049 387.467 287.049 387.467C287.049 387.467 282.819 388.277 280.437 385.363C281.298 384.349 281.615 384.021 282.995 383.644C280.778 383.283 279.559 383.646 277.727 380.55C279.579 379.514 279.746 379.77 279.746 379.77C279.746 379.77 276.735 378.499 276 374.154C278.525 373.4 279.491 373.269 281.061 374.312C280.134 372.214 280.513 371.54 280.513 371.54C280.513 371.54 284.296 371.954 285.686 373.535C284.252 370.644 285.15 370.831 285.15 370.831C285.15 370.831 291.351 371.312 292.987 375.05C291.933 372.165 293.544 372.643 293.544 372.643C293.544 372.643 301.68 379.422 299.685 387.79C294.999 386.268 290.664 383.13 286.448 379.45C289.636 382.819 293.04 385.857 299.261 388.979Z" fill="#66BB6A"/>
<path fill-rule="evenodd" clip-rule="evenodd" d="M324.708 320.828C324.708 320.828 331.982 316.44 334 306.523C332.097 307.659 331.08 308.408 331.08 308.408C331.08 308.408 334.199 304.926 333.65 300.894C332.434 301.081 332.018 301.177 330.922 302.244C332.021 299.935 333.007 299.012 332.001 295.385C330.169 296.49 330.243 296.804 330.243 296.804C330.243 296.804 331.2 293.19 328.674 289.828C326.627 291.74 325.952 292.568 325.713 294.687C324.84 292.524 324.149 292.467 324.149 292.467C324.149 292.467 322.138 296.281 322.377 298.56C321.269 295.434 320.852 296.394 320.852 296.394C320.852 296.394 317.421 302.524 318.985 306.361C317.651 303.596 317.002 305.405 317.002 305.405C317.002 305.405 316.705 317.228 323.638 320.496C325.438 315.151 325.921 309.143 325.961 302.914C326.331 307.985 326.346 313.055 324.708 320.828Z" fill="#66BB6A"/>
<path fill-rule="evenodd" clip-rule="evenodd" d="M304.829 395.391C304.829 395.391 295.515 395.587 290.071 402.607C292.506 402.565 293.852 402.43 293.852 402.43C293.852 402.43 289.332 403.795 288.602 407.274C289.979 407.68 290.461 407.792 291.997 407.438C290.05 408.786 288.679 409.074 288.577 412.438C290.922 412.388 290.946 412.103 290.946 412.103C290.946 412.103 288.723 414.561 290.352 418.406C293.196 417.808 294.199 417.453 295.154 415.866C295.388 417.995 296.117 418.357 296.117 418.357C296.117 418.357 299.546 416.22 300.037 414.286C300.209 417.295 300.976 416.716 300.976 416.716C300.976 416.716 306.704 413.373 306.271 409.587C306.806 412.41 308.104 411.257 308.104 411.257C308.104 411.257 312.31 401.925 305.879 396.146C302.174 399.604 299.678 404.195 297.588 409.164C298.853 404.935 300.504 400.869 304.829 395.391Z" fill="#66BB6A"/>
<path fill-rule="evenodd" clip-rule="evenodd" d="M273.996 392.17C273.996 392.17 274.373 382.078 268.122 375.051C268.014 377.687 268.06 379.163 268.06 379.163C268.06 379.163 267.053 374.058 263.837 372.7C263.374 374.122 263.24 374.624 263.48 376.341C262.334 374.017 262.145 372.489 259 371.828C258.905 374.369 259.171 374.441 259.171 374.441C259.171 374.441 257.002 371.638 253.301 372.769C253.69 375.938 253.962 377.079 255.392 378.37C253.383 378.274 253 379.002 253 379.002C253 379.002 254.796 383.056 256.579 383.902C253.749 383.596 254.245 384.518 254.245 384.518C254.245 384.518 257.033 391.252 260.607 391.404C257.93 391.52 258.932 393.11 258.932 393.11C258.932 393.11 267.424 399.179 273.226 393.179C270.208 388.612 266.056 385.166 261.525 382.096C265.412 384.154 269.123 386.602 273.996 392.17Z" fill="#66BB6A"/>
<path fill-rule="evenodd" clip-rule="evenodd" d="M289 325.819C289 325.819 288.237 315.584 281.158 309.549C281.348 312.223 281.562 313.703 281.562 313.703C281.562 313.703 279.971 308.726 276.584 307.896C276.279 309.407 276.202 309.935 276.637 311.625C275.222 309.476 274.86 307.967 271.623 307.828C271.815 310.405 272.091 310.433 272.091 310.433C272.091 310.433 269.592 307.971 266 309.731C266.749 312.86 267.152 313.965 268.736 315.026C266.704 315.266 266.402 316.064 266.402 316.064C266.402 316.064 268.666 319.849 270.554 320.404C267.675 320.569 268.278 321.416 268.278 321.416C268.278 321.416 271.843 327.736 275.453 327.291C272.774 327.855 273.962 329.291 273.962 329.291C273.962 329.291 283.185 333.986 288.34 326.966C284.789 322.868 280.226 320.09 275.323 317.754C279.464 319.178 283.471 321.023 289 325.819Z" fill="#66BB6A"/>
<path fill-rule="evenodd" clip-rule="evenodd" d="M373 373.724C373 373.724 370.503 366.014 362.793 364.828C363.749 366.961 363.891 367.89 363.891 367.89C363.891 367.89 361.273 364.853 358.198 366.006C358.394 367.434 358.341 368.002 359.208 369.178C357.386 368.152 355.87 366.508 353.127 368.158C354.056 370.208 354.294 370.081 354.294 370.081C354.294 370.081 351.475 369.385 349 372.816C350.559 375.023 351.225 375.727 352.863 375.752C351.239 377.06 351.319 378.669 351.319 378.669C351.319 378.669 354.756 379.616 356.497 379.051C354.143 380.759 355.054 382.384 355.054 382.384C355.054 382.384 359.883 383.578 362.764 381.236C360.696 383.17 361.48 384.828 361.48 384.828C361.48 384.828 370.58 383.723 372.791 375.043C367.532 376.943 360.848 379.834 354.658 373.85C360.627 376.93 366.752 375.608 373 373.724Z" fill="#66BB6A"/>
<path fill-rule="evenodd" clip-rule="evenodd" d="M303.525 363.826C303.525 363.826 309.481 359.504 308.969 350.343C307.373 351.847 306.624 352.185 306.624 352.185C306.624 352.185 308.652 348.585 307.088 345.233C305.933 345.725 305.448 345.768 304.635 346.992C305.137 344.689 306.215 342.628 304.302 339.752C302.77 341.208 302.922 341.461 302.922 341.461C302.922 341.461 302.954 338.063 299.604 335.828C298.064 338.044 297.605 338.947 297.905 340.851C296.495 339.21 295.166 339.601 295.166 339.601C295.166 339.601 295.044 343.762 295.856 345.677C293.969 343.263 292.79 344.619 292.79 344.619C292.79 344.619 292.733 350.44 295.251 353.347C293.233 351.308 292 352.525 292 352.525C292 352.525 294.697 362.872 302.383 363.828C299.769 358.082 296.05 350.866 299.844 342.581C298.433 350.072 300.733 356.93 303.525 363.826Z" fill="#66BB6A"/>
<path fill-rule="evenodd" clip-rule="evenodd" d="M380.134 342.467C380.134 342.467 385.56 336.008 383.556 325.78C382.158 327.902 381.442 328.481 381.442 328.481C381.442 328.481 382.946 323.875 380.799 320.495C379.69 321.356 379.198 321.532 378.56 323.131C378.704 320.394 379.48 317.777 377.05 315.028C375.709 317.08 375.906 317.326 375.906 317.326C375.906 317.326 375.392 313.473 371.588 311.828C370.361 314.741 370.036 315.883 370.65 317.958C368.936 316.474 367.633 317.266 367.633 317.266C367.633 317.266 368.179 322.005 369.323 323.957C366.994 321.723 366 323.569 366 323.569C366 323.569 366.881 330.169 369.939 332.794C367.534 331.019 366.463 332.72 366.463 332.72C366.463 332.72 370.905 343.715 378.96 342.771C377.327 340.144 375.791 336.906 374.42 333.552C372.758 329.484 371.518 325.089 372.923 319.403C372.681 328.249 376.151 335.401 380.134 342.467Z" fill="#66BB6A"/>
<path fill-rule="evenodd" clip-rule="evenodd" d="M390.033 362.483C390.033 362.483 397.883 361.346 402.267 353.65C399.98 354.237 399.103 354.211 399.103 354.211C399.103 354.211 402.905 352.085 403.226 348.715C401.887 348.652 401.412 348.492 400.003 349.165C401.694 347.484 403.794 346.233 403.536 343.11C401.334 343.684 401.342 343.953 401.342 343.953C401.342 343.953 403.175 341.187 401.237 338.012C398.623 339.203 397.717 339.756 396.985 341.434C396.541 339.525 395.094 339.309 395.094 339.309C395.094 339.309 392.772 342.662 392.513 344.555C392.035 341.821 390.214 342.456 390.214 342.456C390.214 342.456 387.072 347.192 387.878 350.584C387.078 348.103 385.282 348.601 385.282 348.601C385.282 348.601 382.306 358.148 388.966 362.024C389.579 356.274 389.94 348.876 397.876 343.629C392.584 349.186 391.089 355.72 390.033 362.483Z" fill="#66BB6A"/>
<path fill-rule="evenodd" clip-rule="evenodd" d="M382.493 309.752C382.493 309.752 390.347 310.857 396.709 304.694C394.349 304.618 393.514 304.348 393.514 304.348C393.514 304.348 397.759 303.37 399.009 300.224C397.742 299.789 397.33 299.503 395.79 299.755C397.884 298.614 400.249 298 400.875 294.93C398.601 294.865 398.533 295.125 398.533 295.125C398.533 295.125 401.067 292.982 400.094 289.392C397.252 289.804 396.227 290.082 395.055 291.488C395.162 289.531 393.834 288.919 393.834 288.919C393.834 288.919 390.667 291.488 389.889 293.233C390.194 290.475 388.268 290.575 388.268 290.575C388.268 290.575 383.927 294.243 383.752 297.725C383.677 295.12 381.814 295.095 381.814 295.095C381.814 295.095 376.286 303.428 381.596 309.013C383.793 303.663 386.209 296.662 395.296 293.844C388.661 297.7 385.398 303.554 382.493 309.752Z" fill="#66BB6A"/>
<path fill-rule="evenodd" clip-rule="evenodd" d="M303.875 327.176C303.875 327.176 308.657 320.932 306.39 312.364C305.176 314.368 304.535 314.956 304.535 314.956C304.535 314.956 305.749 310.798 303.62 308.152C302.625 309.032 302.176 309.246 301.645 310.703C301.671 308.325 302.288 305.974 299.921 303.906C298.759 305.842 298.952 306.029 298.952 306.029C298.952 306.029 298.32 302.772 294.723 301.828C293.699 304.492 293.442 305.517 294.096 307.23C292.445 306.163 291.267 307.008 291.267 307.008C291.267 307.008 291.961 311.025 293.101 312.566C290.85 310.93 290 312.646 290 312.646C290 312.646 291.08 318.225 294.024 320.107C291.721 318.877 290.793 320.476 290.793 320.476C290.793 320.476 295.354 329.401 302.796 327.584C299.21 323.024 294.294 317.453 296.263 308.192C296.39 315.848 299.896 321.581 303.875 327.176Z" fill="#66BB6A"/>
<path fill-rule="evenodd" clip-rule="evenodd" d="M328.856 350.122C328.856 350.122 330.172 340.192 324.852 332.336C324.5 334.928 324.404 336.395 324.404 336.395C324.404 336.395 323.923 331.198 320.973 329.391C320.395 330.73 320.219 331.207 320.286 332.94C319.409 330.475 319.373 328.936 316.424 327.828C316.093 330.328 316.34 330.439 316.34 330.439C316.34 330.439 314.529 327.351 310.878 327.935C310.951 331.127 311.103 332.295 312.35 333.779C310.435 333.394 310 334.059 310 334.059C310 334.059 311.336 338.329 312.962 339.424C310.282 338.712 310.669 339.696 310.669 339.696C310.669 339.696 312.702 346.761 316.109 347.428C313.535 347.156 314.344 348.874 314.344 348.874C314.344 348.874 321.899 356.106 328.023 351.009C325.566 346.054 321.917 342.044 317.869 338.352C321.396 340.95 324.717 343.908 328.856 350.122Z" fill="#8BC34A"/>
<path fill-rule="evenodd" clip-rule="evenodd" d="M356.587 295.144C356.587 295.144 364.575 297.919 371.675 292.292C369.591 291.557 368.398 291.269 368.398 291.269C368.398 291.269 372.722 291.283 374.567 287.865C373.54 286.998 373.169 286.726 371.739 286.607C373.869 285.815 375.136 285.951 376.407 282.453C374.396 281.755 374.276 282.046 374.276 282.046C374.276 282.046 377.031 280.178 377 275.621C374.371 275.338 373.394 275.39 372.023 276.751C372.574 274.441 372.082 273.828 372.082 273.828C372.082 273.828 368.414 274.974 367.315 276.846C368.229 273.633 367.373 273.995 367.373 273.995C367.373 273.995 361.326 275.671 360.361 279.783C360.9 276.65 359.39 277.445 359.39 277.445C359.39 277.445 352.529 285.892 355.961 294.016C360.329 291.572 364.067 287.553 367.594 283.005C365.029 287.039 362.194 290.779 356.587 295.144Z" fill="#8BC34A"/>
<path fill-rule="evenodd" clip-rule="evenodd" d="M324.978 285.546C324.978 285.546 332.237 281.029 332.368 271.884C330.465 273.056 329.48 273.811 329.48 273.811C329.48 273.811 332.247 270.422 330.753 266.806C329.421 267.064 328.973 267.183 327.967 268.231C328.707 266.056 329.621 265.146 327.699 261.931C325.871 263.069 326.022 263.348 326.022 263.348C326.022 263.348 326.32 259.999 322.74 257.136C320.844 259.022 320.261 259.823 320.45 261.763C318.997 259.866 318.205 259.865 318.205 259.865C318.205 259.865 316.761 263.473 317.524 265.523C315.596 262.769 315.333 263.67 315.333 263.67C315.333 263.67 312.788 269.484 315.385 272.849C313.281 270.439 312.94 272.129 312.94 272.129C312.94 272.129 315.165 282.873 323.698 285.324C324.573 280.344 323.816 274.859 322.512 269.206C324.028 273.778 325.142 278.375 324.978 285.546Z" fill="#8BC34A"/>
<path fill-rule="evenodd" clip-rule="evenodd" d="M349.306 361.758C349.306 361.758 345.991 352.831 349.925 343.644C350.799 345.971 351.187 347.323 351.187 347.323C351.187 347.323 350.658 342.261 353.343 339.57C354.203 340.64 354.478 341.032 354.751 342.689C355.17 340.072 354.902 338.608 357.724 336.578C358.559 338.826 358.325 339.013 358.325 339.013C358.325 339.013 359.584 335.496 363.462 334.828C364.016 337.862 364.089 339.016 363.097 340.831C364.995 339.829 365.575 340.311 365.575 340.311C365.575 340.311 365.04 344.784 363.579 346.361C366.201 344.794 365.996 345.852 365.996 345.852C365.996 345.852 365.295 353.195 361.914 354.962C364.514 353.846 364.019 355.737 364.019 355.737C364.019 355.737 357.657 365.08 350.339 362.317C351.895 356.822 354.865 351.822 358.309 346.988C355.186 350.616 352.346 354.515 349.306 361.758Z" fill="#8BC34A"/>
<path fill-rule="evenodd" clip-rule="evenodd" d="M361.15 324.468C361.15 324.468 365.766 316.778 363.249 307.209C362.035 309.212 361.449 310.403 361.449 310.403C361.449 310.403 362.73 305.737 360.476 302.589C359.465 303.407 359.134 303.715 358.616 305.22C358.595 302.652 359.078 301.329 356.59 298.775C355.427 300.711 355.631 300.94 355.631 300.94C355.631 300.94 354.912 297.333 351.176 295.828C350.172 298.571 349.927 299.644 350.637 301.585C348.909 300.21 348.264 300.534 348.264 300.534C348.264 300.534 348.123 304.883 349.333 306.702C346.973 304.63 347.018 305.677 347.018 305.677C347.018 305.677 346.613 312.774 349.693 315.206C347.288 313.565 347.494 315.463 347.494 315.463C347.494 315.463 348.563 317.705 350.483 319.994C352.672 322.604 355.966 325.278 360.043 324.764C359.327 319.221 357.137 313.826 354.453 308.481C357 312.614 359.226 316.938 361.15 324.468Z" fill="#8BC34A"/>
<path fill-rule="evenodd" clip-rule="evenodd" d="M266.717 348.396C266.717 348.396 259.945 342.806 251.368 345.62C253.131 347.089 254.182 347.803 254.182 347.803C254.182 347.803 250.046 346.209 247.198 348.82C247.909 350.03 248.178 350.427 249.51 351.065C247.22 351.047 246.048 350.453 243.727 353.352C245.432 354.759 245.639 354.523 245.639 354.523C245.639 354.523 242.41 355.312 241 359.705C243.427 360.939 244.38 361.247 246.122 360.44C244.865 362.46 245.143 363.229 245.143 363.229C245.143 363.229 249.017 363.469 250.661 362.07C248.771 364.826 249.705 364.791 249.705 364.791C249.705 364.791 256.025 365.391 258.249 361.788C256.742 364.605 258.439 364.393 258.439 364.393C258.439 364.393 260.456 363.167 262.533 360.935C264.9 358.392 267.343 354.54 266.96 349.71C262.005 350.463 257.155 352.961 252.341 356.044C256.072 353.103 259.968 350.543 266.717 348.396Z" fill="#8BC34A"/>
<path fill-rule="evenodd" clip-rule="evenodd" d="M327.74 363.657C327.74 363.657 321.271 357.727 313.024 360.626C314.709 362.185 315.714 362.943 315.714 362.943C315.714 362.943 311.753 361.236 309.006 363.963C309.682 365.24 309.937 365.66 311.212 366.34C309.015 366.306 307.894 365.673 305.65 368.705C307.279 370.198 307.48 369.95 307.48 369.95C307.48 369.95 304.376 370.757 303 375.369C305.322 376.684 306.235 377.015 307.911 376.179C306.694 378.294 306.957 379.106 306.957 379.106C306.957 379.106 310.673 379.386 312.258 377.926C310.43 380.811 311.326 380.781 311.326 380.781C311.326 380.781 317.389 381.458 319.542 377.685C318.081 380.637 319.711 380.426 319.711 380.426C319.711 380.426 321.653 379.151 323.658 376.818C325.943 374.159 328.309 370.125 327.967 365.041C323.207 365.798 318.54 368.391 313.903 371.6C317.499 368.532 321.252 365.868 327.74 363.657Z" fill="#8BC34A"/>
<path fill-rule="evenodd" clip-rule="evenodd" d="M339.382 345.828C339.382 345.828 332.405 341.277 331 331.646C332.827 332.826 333.794 333.592 333.794 333.592C333.794 333.592 330.9 330.101 331.693 326.248C332.892 326.482 333.301 326.594 334.327 327.67C333.374 325.399 332.448 324.466 333.672 321.023C335.429 322.169 335.336 322.468 335.336 322.468C335.336 322.468 334.603 318.948 337.325 315.828C339.247 317.76 339.869 318.587 339.978 320.636C340.979 318.595 341.671 318.571 341.671 318.571C341.671 318.571 343.44 322.331 343.064 324.513C344.358 321.556 344.715 322.498 344.715 322.498C344.715 322.498 347.759 328.551 345.966 332.17C347.464 329.571 348 331.341 348 331.341C348 331.341 347.574 342.727 340.468 345.557C339.001 340.334 338.888 334.533 339.228 328.539C338.55 333.4 338.226 338.276 339.382 345.828Z" fill="#8BC34A"/>
<path fill-rule="evenodd" clip-rule="evenodd" d="M393.95 397.473C393.95 397.473 394.872 387.525 388.799 380.352C388.549 382.951 388.518 384.41 388.518 384.41C388.518 384.41 387.749 379.332 384.505 377.871C383.953 379.256 383.789 379.747 383.945 381.451C382.886 379.114 382.772 377.598 379.565 376.828C379.333 379.333 379.603 379.414 379.603 379.414C379.603 379.414 377.515 376.566 373.64 377.543C373.873 380.686 374.094 381.823 375.5 383.151C373.433 382.981 373 383.685 373 383.685C373 383.685 374.638 387.754 376.431 388.657C373.53 388.248 373.993 389.177 373.993 389.177C373.993 389.177 376.511 395.929 380.188 396.214C377.421 396.227 378.371 397.835 378.371 397.835C378.371 397.835 386.804 404.145 393.103 398.441C390.233 393.819 386.135 390.261 381.626 387.059C385.524 389.237 389.221 391.793 393.95 397.473Z" fill="#8BC34A"/>
<path fill-rule="evenodd" clip-rule="evenodd" d="M311.975 294.377C311.975 294.377 312.682 284.731 306.536 277.97C306.342 280.489 306.342 281.901 306.342 281.901C306.342 281.901 305.479 277.014 302.245 275.694C301.728 277.05 301.575 277.529 301.765 279.172C300.671 276.943 300.528 275.481 297.344 274.828C297.166 277.257 297.435 277.328 297.435 277.328C297.435 277.328 295.314 274.633 291.506 275.69C291.801 278.722 292.042 279.816 293.458 281.059C291.413 280.954 291 281.647 291 281.647C291 281.647 292.701 285.535 294.49 286.356C291.617 286.045 292.093 286.93 292.093 286.93C292.093 286.93 294.718 293.386 298.356 293.555C295.624 293.648 296.595 295.176 296.595 295.176C296.595 295.176 305.053 301.035 311.158 295.337C308.229 290.95 304.108 287.628 299.589 284.662C303.484 286.656 307.187 289.02 311.975 294.377Z" fill="#8BC34A"/>
<path fill-rule="evenodd" clip-rule="evenodd" d="M286.582 333.99C286.582 333.99 278.492 332.366 272.331 339.407C274.443 339.842 275.635 339.952 275.635 339.952C275.635 339.952 271.445 340.634 270.093 344.513C271.199 345.256 271.592 345.482 272.993 345.377C271.031 346.55 269.785 346.611 269 350.482C271.038 350.891 271.117 350.566 271.117 350.566C271.117 350.566 268.686 352.967 269.297 357.739C271.879 357.613 272.819 357.401 273.973 355.755C273.734 358.265 274.289 358.828 274.289 358.828C274.289 358.828 277.697 357.037 278.522 354.897C278.047 358.412 278.83 357.895 278.83 357.895C278.83 357.895 284.473 355.165 284.884 350.699C284.762 354.071 286.123 352.995 286.123 352.995C286.123 352.995 291.693 343.035 287.333 335.071C283.413 338.337 280.305 343.151 277.467 348.486C279.438 343.844 281.708 339.467 286.582 333.99Z" fill="#8BC34A"/>
<path fill-rule="evenodd" clip-rule="evenodd" d="M264 334.157C264 334.157 263.789 324.03 257.075 317.841C257.121 320.486 257.255 321.954 257.255 321.954C257.255 321.954 255.939 316.99 252.618 316.059C252.234 317.539 252.129 318.059 252.471 319.741C251.179 317.573 250.9 316.072 247.691 315.828C247.743 318.378 248.016 318.415 248.016 318.415C248.016 318.415 245.665 315.903 242 317.521C242.578 320.634 242.919 321.738 244.436 322.838C242.405 323.008 242.062 323.786 242.062 323.786C242.062 323.786 244.11 327.595 245.957 328.205C243.086 328.273 243.64 329.129 243.64 329.129C243.64 329.129 246.846 335.483 250.458 335.163C247.765 335.632 248.869 337.088 248.869 337.088C248.869 337.088 257.785 342.025 263.283 335.267C259.973 331.106 255.585 328.214 250.838 325.747C254.877 327.288 258.762 329.241 264 334.157Z" fill="#8BC34A"/>
<path fill-rule="evenodd" clip-rule="evenodd" d="M340.788 296.828C340.788 296.828 348.419 294.357 351.632 285.262C349.637 285.897 348.553 286.374 348.553 286.374C348.553 286.374 352.027 283.767 352 279.736C350.793 279.621 350.376 279.613 349.176 280.377C350.535 278.413 351.612 277.761 351.089 274.01C349.167 274.632 349.199 274.954 349.199 274.954C349.199 274.954 350.585 271.693 348.55 267.828C346.318 269.178 345.556 269.815 345.057 271.804C344.479 269.501 343.814 269.278 343.814 269.278C343.814 269.278 341.378 272.475 341.323 274.736C340.638 271.444 340.111 272.271 340.111 272.271C340.111 272.271 336 277.361 337.04 281.451C336.09 278.453 335.23 280.045 335.23 280.045C335.23 280.045 333.452 291.4 339.789 296.246C342.214 291.518 343.439 285.829 344.263 279.817C343.985 284.809 343.36 289.713 340.788 296.828Z" fill="#8BC34A"/>
<path fill-rule="evenodd" clip-rule="evenodd" d="M402.5 477.608C402.5 477.608 397.907 462.429 398.462 458.546C399.017 454.663 401.861 444.576 398.412 441.902C394.964 439.228 393.367 433.01 387.846 428.693C382.324 424.377 384.336 414.215 382.694 412.352C381.053 410.488 361.955 399.214 359.208 399.871C356.461 400.528 335.84 396.057 332.642 396.823C329.444 397.59 313.977 391.174 308.9 391.849C303.823 392.525 305.159 386.933 305.159 386.933C305.159 386.933 313.147 383.835 315.153 386.071C317.16 388.308 319.409 387.727 323.2 388.469C326.992 389.212 332.402 392.694 335.178 391.253C337.953 389.812 342.409 392.401 342.409 392.401C342.409 392.401 346.492 388.133 343.398 386.365C340.303 384.597 337.153 381.771 338.048 378.544C338.943 375.318 341.35 373.485 337.346 369.556C333.341 365.626 336.467 362.865 332.389 357.873C328.31 352.881 335.334 352.828 335.334 352.828L338.019 356.722C338.019 356.722 335.977 358.346 338.609 362.326C341.242 366.306 343.831 365.732 343.439 369.638C343.046 373.543 341.514 370.695 344.16 376.048C346.807 381.403 349.121 380.466 348.802 383.559C348.484 386.651 348.909 390.614 351.097 391.714C353.285 392.815 358.44 392.908 361.541 394.744C364.641 396.581 366.35 396.85 369.789 397.924C373.228 398.999 377.099 397.483 379.127 400.28C381.154 403.077 386.391 401.062 387.647 405.717C388.903 410.373 387.773 409.113 392.86 414.531C397.947 419.951 399.195 415.798 401.195 419.936C403.194 424.073 400.869 423.21 404.172 427.148C407.475 431.085 410.557 424.252 411.15 431.075C411.743 437.898 408.928 438.03 410.559 442.945C412.188 447.86 417.115 445.598 416.138 451.995C415.161 458.392 413.713 457.599 415.587 463.993C417.461 470.386 422.885 472.567 423 476.72C423.114 480.874 402.5 477.608 402.5 477.608Z" fill="#66BB6A"/>
<path fill-rule="evenodd" clip-rule="evenodd" d="M397.265 421.346C397.265 421.346 393.928 414.226 393.972 411.993C394.016 409.76 396.529 401.523 398.159 398.723C399.789 395.923 400.565 390.973 399.566 388.339C398.566 385.705 398.822 382.329 396.885 379.513C394.947 376.698 392.178 372.779 387.088 371.654C381.997 370.529 380.786 367.039 379.412 363.104C378.037 359.17 376 344.828 376 344.828L378.978 345.552C378.978 345.552 380.266 351.371 380.594 354.886C380.921 358.4 382.831 357.801 385.709 362.672C388.587 367.544 389.983 364.375 393.266 366.689C396.548 369.003 398.503 369.57 401.22 372.028C403.937 374.487 408.819 376.612 407.866 379.486C406.913 382.361 407.559 382.712 407.167 387.409C406.775 392.107 410.171 389.103 407.824 395.333C405.477 401.563 405.426 400.003 404.557 406.129C403.687 412.255 403.502 412.818 405.076 417.865C406.651 422.911 410.781 425.949 409.87 430.582C408.959 435.216 403.259 437.828 403.259 437.828L397.265 421.346Z" fill="#66BB6A"/>
<path fill-rule="evenodd" clip-rule="evenodd" d="M404 423.876C404 423.876 407.23 420.336 411.601 426.27C415.973 432.204 419.313 431.494 419.058 436.225C418.802 440.956 420.09 442.754 421.719 446.695C423.347 450.636 425.679 453.248 425.094 457.557C424.509 461.866 428.18 468.881 426.603 472.733C425.025 476.586 417.611 479.828 417.611 479.828C417.611 479.828 409.147 474.722 409.022 471.521C408.898 468.32 408.262 452.185 408.262 452.185L404.358 438.357L404 423.876Z" fill="#66BB6A"/>
<path fill-rule="evenodd" clip-rule="evenodd" d="M399 434.828L404.019 446.286L404.478 456.382L406.822 463.828L407 445.726L399 434.828Z" fill="#43A047"/>
</svg>
