<svg width="512" height="512" viewBox="0 0 512 512" fill="none" xmlns="http://www.w3.org/2000/svg">
<path fill-rule="evenodd" clip-rule="evenodd" d="M361.047 347.737C361.047 347.737 357.557 339.421 360.988 330.489C361.908 332.657 362.327 333.923 362.327 333.923C362.327 333.923 361.64 329.137 364.111 326.443C364.971 327.417 365.249 327.775 365.57 329.337C365.875 326.828 365.567 325.45 368.192 323.377C369.071 325.471 368.854 325.66 368.854 325.66C368.854 325.66 369.931 322.254 373.616 321.422C374.256 324.278 374.367 325.371 373.483 327.147C375.262 326.097 375.833 326.526 375.833 326.526C375.833 326.526 375.483 330.806 374.142 332.378C376.593 330.756 376.435 331.771 376.435 331.771C376.435 331.771 376.029 338.787 372.859 340.637C375.305 339.444 374.899 341.267 374.899 341.267C374.899 341.267 369.152 350.471 362.056 348.216C363.346 342.915 366.006 338.011 369.126 333.241C366.27 336.848 363.694 340.699 361.047 347.737Z" fill="#81C784"/>
<path fill-rule="evenodd" clip-rule="evenodd" d="M320.725 429.846C320.725 429.846 321.442 439.098 315.517 445.952C315.322 443.536 315.317 442.176 315.317 442.176C315.317 442.176 314.497 446.932 311.373 448.383C310.867 447.107 310.718 446.653 310.896 445.06C309.845 447.268 309.711 448.685 306.632 449.491C306.452 447.161 306.711 447.078 306.711 447.078C306.711 447.078 304.668 449.792 300.979 448.987C301.254 446.049 301.484 444.983 302.85 443.706C300.871 443.921 300.469 443.276 300.469 443.276C300.469 443.276 302.102 439.438 303.831 438.547C301.051 439.007 301.508 438.128 301.508 438.128C301.508 438.128 304.028 431.763 307.547 431.397C304.903 431.461 305.837 429.935 305.837 429.935C305.837 429.935 314.003 423.82 319.931 428.967C317.111 433.355 313.135 436.786 308.771 439.895C312.534 437.757 316.11 435.273 320.725 429.846Z" fill="#81C784"/>
<path fill-rule="evenodd" clip-rule="evenodd" d="M353.441 394.504C353.441 394.504 361.219 393.397 367.161 400.23C365.131 400.529 363.984 400.573 363.984 400.573C363.984 400.573 368.016 401.412 369.326 405.076C368.264 405.71 367.886 405.9 366.538 405.734C368.428 406.918 369.626 407.037 370.391 410.665C368.432 410.944 368.355 410.638 368.355 410.638C368.355 410.638 370.699 412.985 370.123 417.38C367.639 417.135 366.734 416.893 365.62 415.309C365.856 417.648 365.323 418.143 365.323 418.143C365.323 418.143 362.042 416.314 361.244 414.289C361.709 417.572 360.955 417.054 360.955 417.054C360.955 417.054 355.52 414.244 355.114 410.082C355.24 413.215 353.929 412.15 353.929 412.15C353.929 412.15 348.548 402.639 352.723 395.469C356.499 398.691 359.501 403.309 362.243 408.395C360.336 403.994 358.143 399.824 353.441 394.504Z" fill="#81C784"/>
<path fill-rule="evenodd" clip-rule="evenodd" d="M329.914 376.679C329.914 376.679 323.473 371.39 322.846 361.604C324.534 362.976 325.416 363.845 325.416 363.845C325.416 363.845 322.868 360.046 323.936 356.273C325.086 356.634 325.475 356.789 326.39 357.974C325.638 355.6 324.808 354.57 326.264 351.253C327.886 352.584 327.773 352.874 327.773 352.874C327.773 352.874 327.33 349.274 330.22 346.438C331.942 348.573 332.484 349.467 332.432 351.528C333.563 349.592 334.238 349.64 334.238 349.64C334.238 349.64 335.671 353.59 335.137 355.734C336.625 352.911 336.899 353.891 336.899 353.891C336.899 353.891 339.396 360.268 337.372 363.703C339.03 361.258 339.416 363.087 339.416 363.087C339.416 363.087 338.126 374.437 330.992 376.522C329.966 371.14 330.302 365.322 331.094 359.359C330.059 364.153 329.37 368.999 329.914 376.679Z" fill="#81C784"/>
<path fill-rule="evenodd" clip-rule="evenodd" d="M150.688 339.144C150.688 339.144 143.675 343.282 136.144 339.212C137.972 338.121 139.039 337.623 139.039 337.623C139.039 337.623 135.004 338.438 132.733 335.508C133.554 334.487 133.856 334.158 135.172 333.779C133.057 333.416 131.895 333.781 130.148 330.667C131.914 329.625 132.073 329.883 132.073 329.883C132.073 329.883 129.201 328.605 128.5 324.235C130.908 323.477 131.83 323.345 133.327 324.394C132.443 322.284 132.804 321.606 132.804 321.606C132.804 321.606 136.413 322.023 137.739 323.612C136.371 320.706 137.228 320.893 137.228 320.893C137.228 320.893 143.143 321.377 144.703 325.136C143.697 322.235 145.234 322.716 145.234 322.716C145.234 322.716 152.995 329.533 151.092 337.949C146.622 336.418 142.488 333.262 138.466 329.562C141.507 332.949 144.754 336.004 150.688 339.144Z" fill="#81C784"/>
<path fill-rule="evenodd" clip-rule="evenodd" d="M250.236 307.49C250.236 307.49 243.902 302.022 243.47 292.221C245.13 293.64 245.995 294.533 245.995 294.533C245.995 294.533 243.522 290.665 244.665 286.923C245.808 287.315 246.194 287.481 247.085 288.691C246.38 286.298 245.57 285.244 247.092 281.969C248.687 283.345 248.568 283.631 248.568 283.631C248.568 283.631 248.198 280.02 251.143 277.266C252.822 279.449 253.346 280.358 253.253 282.417C254.423 280.512 255.097 280.58 255.097 280.58C255.097 280.58 256.451 284.567 255.874 286.696C257.418 283.915 257.673 284.904 257.673 284.904C257.673 284.904 260.041 291.349 257.951 294.726C259.656 292.329 260.006 294.167 260.006 294.167C260.006 294.167 258.489 305.478 251.316 307.362C250.398 301.953 250.849 296.147 251.76 290.208C250.63 294.971 249.844 299.797 250.236 307.49Z" fill="#81C784"/>
<path fill-rule="evenodd" clip-rule="evenodd" d="M349.948 350.286C349.948 350.286 342.205 348.88 338.025 340.409C340.049 340.766 341.163 341.089 341.163 341.089C341.163 341.089 337.468 338.999 337.034 335.052C338.201 334.779 338.608 334.716 339.868 335.305C338.315 333.563 337.188 333.067 337.271 329.329C339.221 329.683 339.226 330.003 339.226 330.003C339.226 330.003 337.499 326.996 339.047 322.945C341.384 323.97 342.201 324.492 342.917 326.371C343.218 324.043 343.843 323.735 343.843 323.735C343.843 323.735 346.591 326.54 346.902 328.745C347.196 325.435 347.805 326.173 347.805 326.173C347.805 326.173 352.407 330.608 351.857 334.747C352.443 331.688 353.466 333.131 353.466 333.131C353.466 333.131 356.501 344.004 350.859 349.585C347.948 345.281 346.1 339.877 344.608 334.106C345.45 338.952 346.621 343.667 349.948 350.286Z" fill="#81C784"/>
<path fill-rule="evenodd" clip-rule="evenodd" d="M382.111 330.614C382.111 330.614 388.461 336.79 396.735 334.975C395.082 333.354 394.093 332.545 394.093 332.545C394.093 332.545 398.014 334.544 400.799 332.309C400.148 331.054 399.9 330.638 398.64 329.873C400.831 330.138 401.938 330.843 404.228 328.27C402.629 326.715 402.424 326.923 402.424 326.923C402.424 326.923 405.533 326.504 406.984 322.377C404.691 320.914 403.786 320.511 402.1 321.109C403.35 319.277 403.102 318.498 403.102 318.498C403.102 318.498 399.4 317.846 397.795 319.031C399.667 316.552 398.773 316.485 398.773 316.485C398.773 316.485 392.739 315.218 390.527 318.486C392.034 315.906 390.405 315.93 390.405 315.93C390.405 315.93 381.432 320.4 381.909 329.309C386.668 329.11 391.368 327.201 396.047 324.718C392.408 327.18 388.619 329.252 382.111 330.614Z" fill="#81C784"/>
<path fill-rule="evenodd" clip-rule="evenodd" d="M379.829 282.318C379.829 282.318 386.179 288.493 394.453 286.679C392.8 285.057 391.811 284.249 391.811 284.249C391.811 284.249 395.732 286.248 398.518 284.013C397.866 282.758 397.618 282.342 396.358 281.577C398.549 281.841 399.656 282.546 401.946 279.974C400.347 278.419 400.143 278.627 400.143 278.627C400.143 278.627 403.251 278.207 404.703 274.08C402.409 272.617 401.504 272.215 399.818 272.813C401.069 270.981 400.821 270.202 400.821 270.202C400.821 270.202 397.119 269.55 395.513 270.735C397.386 268.255 396.492 268.189 396.492 268.189C396.492 268.189 390.457 266.922 388.245 270.19C389.752 267.61 388.124 267.633 388.124 267.633C388.124 267.633 379.15 272.104 379.627 281.013C384.387 280.814 389.086 278.905 393.765 276.421C390.126 278.884 386.337 280.956 379.829 282.318Z" fill="#81C784"/>
<path fill-rule="evenodd" clip-rule="evenodd" d="M348.415 272.339C348.415 272.339 356.546 273.714 362.826 267.074C360.703 266.705 359.504 266.622 359.504 266.622C359.504 266.622 363.731 265.92 365.136 262.295C364.029 261.623 363.636 261.42 362.224 261.541C364.213 260.419 365.467 260.341 366.301 256.734C364.253 256.387 364.17 256.691 364.17 256.691C364.17 256.691 366.644 254.421 366.081 249.999C363.48 250.159 362.53 250.371 361.35 251.919C361.618 249.584 361.066 249.07 361.066 249.07C361.066 249.07 357.615 250.79 356.76 252.79C357.277 249.519 356.483 250.012 356.483 250.012C356.483 250.012 350.77 252.639 350.308 256.794C350.468 253.661 349.086 254.682 349.086 254.682C349.086 254.682 343.368 264.023 347.672 271.348C351.654 268.251 354.837 263.728 357.752 258.728C355.717 263.071 353.384 267.172 348.415 272.339Z" fill="#81C784"/>
<path fill-rule="evenodd" clip-rule="evenodd" d="M235.697 274.074C235.697 274.074 243.827 275.448 250.108 268.809C247.985 268.439 246.786 268.356 246.786 268.356C246.786 268.356 251.013 267.654 252.417 264.029C251.311 263.357 250.917 263.154 249.506 263.274C251.495 262.154 252.749 262.075 253.582 258.468C251.535 258.122 251.451 258.425 251.451 258.425C251.451 258.425 253.926 256.155 253.362 251.734C250.761 251.893 249.812 252.105 248.631 253.653C248.9 251.318 248.347 250.805 248.347 250.805C248.347 250.805 244.896 252.524 244.041 254.525C244.558 251.252 243.765 251.745 243.765 251.745C243.765 251.745 238.051 254.374 237.589 258.528C237.75 255.394 236.367 256.416 236.367 256.416C236.367 256.416 230.649 265.758 234.953 273.082C238.935 269.985 242.118 265.462 245.034 260.461C242.999 264.805 240.666 268.906 235.697 274.074Z" fill="#81C784"/>
<path fill-rule="evenodd" clip-rule="evenodd" d="M175.892 272.666C175.892 272.666 183.268 268.384 185.314 258.706C183.384 259.815 182.353 260.546 182.353 260.546C182.353 260.546 185.516 257.148 184.959 253.213C183.726 253.395 183.304 253.489 182.194 254.53C183.307 252.277 184.308 251.377 183.287 247.837C181.43 248.916 181.504 249.222 181.504 249.222C181.504 249.222 182.475 245.695 179.913 242.414C177.837 244.28 177.153 245.088 176.91 247.155C176.025 245.045 175.325 244.989 175.325 244.989C175.325 244.989 173.286 248.711 173.527 250.936C172.404 247.885 171.981 248.821 171.981 248.821C171.981 248.821 168.501 254.803 170.088 258.548C168.735 255.85 168.077 257.616 168.077 257.616C168.077 257.616 167.775 269.153 174.807 272.342C176.632 267.126 177.121 261.263 177.162 255.184C177.538 260.133 177.552 265.08 175.892 272.666Z" fill="#81C784"/>
<path fill-rule="evenodd" clip-rule="evenodd" d="M150.33 356.334C150.33 356.334 146.361 347.808 138.109 345.859C139.138 348.092 139.804 349.277 139.804 349.277C139.804 349.277 136.787 345.698 133.5 346.551C133.714 348.002 133.814 348.497 134.746 349.761C132.793 348.554 131.985 347.413 129.055 348.796C130.054 350.942 130.309 350.839 130.309 350.839C130.309 350.839 127.291 349.863 124.653 353.058C126.327 355.425 127.041 356.197 128.794 356.382C127.061 357.534 127.047 358.367 127.047 358.367C127.047 358.367 130.283 360.599 132.144 360.203C129.63 361.684 130.44 362.139 130.44 362.139C130.44 362.139 135.649 365.966 138.725 363.902C136.518 365.637 138.038 366.331 138.038 366.331C138.038 366.331 147.771 366.12 150.11 357.636C145.628 355.73 140.666 355.439 135.544 355.689C139.693 355.001 143.86 354.741 150.33 356.334Z" fill="#81C784"/>
<path fill-rule="evenodd" clip-rule="evenodd" d="M126.972 341.689C126.972 341.689 127.345 331.96 121.168 325.185C121.062 327.727 121.107 329.15 121.107 329.15C121.107 329.15 120.112 324.228 116.934 322.919C116.477 324.289 116.344 324.773 116.581 326.429C115.449 324.188 115.262 322.715 112.154 322.078C112.06 324.528 112.323 324.597 112.323 324.597C112.323 324.597 110.18 321.895 106.523 322.985C106.907 326.04 107.176 327.141 108.589 328.385C106.604 328.293 106.225 328.994 106.225 328.994C106.225 328.994 108 332.902 109.762 333.718C106.966 333.423 107.456 334.312 107.456 334.312C107.456 334.312 110.211 340.804 113.743 340.95C111.097 341.063 112.088 342.596 112.088 342.596C112.088 342.596 120.478 348.447 126.212 342.663C123.229 338.259 119.127 334.937 114.65 331.977C118.491 333.961 122.157 336.321 126.972 341.689Z" fill="#81C784"/>
<path fill-rule="evenodd" clip-rule="evenodd" d="M140.57 276.502C140.57 276.502 139.828 266.803 132.934 261.083C133.119 263.618 133.327 265.02 133.327 265.02C133.327 265.02 131.778 260.304 128.48 259.518C128.183 260.949 128.107 261.45 128.531 263.051C127.153 261.014 126.8 259.584 123.648 259.453C123.835 261.895 124.104 261.921 124.104 261.921C124.104 261.921 121.671 259.588 118.172 261.256C118.902 264.221 119.294 265.268 120.836 266.274C118.858 266.502 118.564 267.258 118.564 267.258C118.564 267.258 120.769 270.844 122.608 271.37C119.804 271.527 120.391 272.33 120.391 272.33C120.391 272.33 123.862 278.318 127.378 277.896C124.77 278.432 125.926 279.792 125.926 279.792C125.926 279.792 134.907 284.241 139.928 277.589C136.47 273.705 132.026 271.073 127.251 268.859C131.284 270.208 135.186 271.957 140.57 276.502Z" fill="#81C784"/>
<path fill-rule="evenodd" clip-rule="evenodd" d="M394.487 391.036C394.487 391.036 395.164 400.741 402.019 406.527C401.851 403.99 401.653 402.586 401.653 402.586C401.653 402.586 403.17 407.316 406.462 408.134C406.769 406.707 406.848 406.206 406.435 404.6C407.799 406.651 408.142 408.084 411.293 408.245C411.123 405.801 410.855 405.772 410.855 405.772C410.855 405.772 413.271 408.129 416.781 406.494C416.072 403.522 415.686 402.472 414.151 401.451C416.131 401.242 416.43 400.489 416.43 400.489C416.43 400.489 414.25 396.881 412.415 396.338C415.22 396.208 414.638 395.4 414.638 395.4C414.638 395.4 411.207 389.379 407.689 389.767C410.3 389.256 409.154 387.885 409.154 387.885C409.154 387.885 400.202 383.351 395.137 389.955C398.569 393.871 402.995 396.546 407.754 398.805C403.731 397.418 399.84 395.632 394.487 391.036Z" fill="#81C784"/>
<path fill-rule="evenodd" clip-rule="evenodd" d="M158.394 427.004C158.394 427.004 155.635 436.177 159.867 444.801C160.596 442.408 160.904 441.031 160.904 441.031C160.904 441.031 160.64 446.083 163.355 448.438C164.131 447.287 164.377 446.871 164.559 445.206C165.089 447.741 164.903 449.214 167.717 450.903C168.412 448.593 168.178 448.436 168.178 448.436C168.178 448.436 169.56 451.764 173.326 451.992C173.713 448.937 173.728 447.792 172.684 446.111C174.56 446.889 175.095 446.35 175.095 446.35C175.095 446.35 174.363 441.997 172.88 440.604C175.481 441.858 175.232 440.837 175.232 440.837C175.232 440.837 174.201 433.674 170.861 432.306C173.418 433.119 172.85 431.309 172.85 431.309C172.85 431.309 166.273 422.799 159.362 426.338C161.126 431.584 164.227 436.185 167.776 440.571C164.594 437.34 161.671 433.81 158.394 427.004Z" fill="#81C784"/>
<path fill-rule="evenodd" clip-rule="evenodd" d="M210.477 432.386C210.477 432.386 204.125 429.607 198.336 435.599C200.268 436.135 200.929 436.609 200.929 436.609C200.929 436.609 197.353 436.948 196.038 440.385C197.041 441.134 197.353 441.546 198.641 441.543C196.817 442.479 194.818 442.748 194.024 446.215C195.887 446.722 195.966 446.431 195.966 446.431C195.966 446.431 193.689 448.453 194.161 452.832C196.534 452.888 197.402 452.758 198.493 451.338C198.226 453.604 199.262 454.571 199.262 454.571C199.262 454.571 202.099 452.17 202.896 450.279C202.394 453.443 203.985 453.69 203.985 453.69C203.985 453.69 207.887 450.228 208.348 446.195C208.171 449.252 209.7 449.633 209.7 449.633C209.7 449.633 215.001 440.948 211.146 433.418C208.854 439.251 206.232 446.971 198.508 448.54C204.312 445.294 207.525 439.074 210.477 432.386Z" fill="#81C784"/>
<path fill-rule="evenodd" clip-rule="evenodd" d="M198.139 385.448C198.139 385.448 195.67 377.971 188.048 376.82C188.993 378.888 189.135 379.79 189.135 379.79C189.135 379.79 186.545 376.844 183.505 377.963C183.699 379.348 183.647 379.898 184.504 381.039C182.703 380.044 181.205 378.45 178.493 380.049C179.41 382.038 179.646 381.914 179.646 381.914C179.646 381.914 176.859 381.239 174.412 384.566C175.953 386.708 176.611 387.39 178.231 387.414C176.626 388.683 176.705 390.243 176.705 390.243C176.705 390.243 180.103 391.162 181.824 390.614C179.497 392.27 180.397 393.845 180.397 393.845C180.397 393.845 185.171 395.004 188.019 392.733C185.975 394.608 186.751 396.216 186.751 396.216C186.751 396.216 195.747 395.145 197.932 386.726C192.733 388.569 186.125 391.373 180.006 385.569C185.906 388.557 191.962 387.275 198.139 385.448Z" fill="#81C784"/>
<path fill-rule="evenodd" clip-rule="evenodd" d="M223.182 324.042C223.182 324.042 220.713 316.564 213.091 315.414C214.036 317.482 214.177 318.383 214.177 318.383C214.177 318.383 211.588 315.438 208.548 316.556C208.742 317.942 208.689 318.492 209.547 319.633C207.746 318.638 206.247 317.043 203.535 318.643C204.453 320.631 204.689 320.508 204.689 320.508C204.689 320.508 201.902 319.833 199.455 323.16C200.996 325.301 201.654 325.984 203.274 326.008C201.669 327.277 201.748 328.836 201.748 328.836C201.748 328.836 205.146 329.755 206.867 329.207C204.54 330.864 205.44 332.439 205.44 332.439C205.44 332.439 210.214 333.597 213.062 331.326C211.018 333.202 211.793 334.81 211.793 334.81C211.793 334.81 220.79 333.739 222.975 325.32C217.776 327.163 211.168 329.966 205.048 324.163C210.949 327.151 217.005 325.868 223.182 324.042Z" fill="#81C784"/>
<path fill-rule="evenodd" clip-rule="evenodd" d="M155.306 314.364C155.306 314.364 161.029 310.073 160.536 300.98C159.003 302.473 158.284 302.808 158.284 302.808C158.284 302.808 160.232 299.234 158.73 295.907C157.619 296.395 157.154 296.438 156.372 297.653C156.855 295.367 157.89 293.32 156.052 290.465C154.58 291.911 154.726 292.162 154.726 292.162C154.726 292.162 154.757 288.789 151.538 286.57C150.058 288.77 149.617 289.666 149.905 291.557C148.55 289.928 147.273 290.316 147.273 290.316C147.273 290.316 147.156 294.446 147.937 296.347C146.124 293.951 144.99 295.297 144.99 295.297C144.99 295.297 144.936 301.076 147.356 303.962C145.416 301.937 144.231 303.145 144.231 303.145C144.231 303.145 146.823 313.417 154.208 314.366C151.697 308.662 148.123 301.498 151.768 293.274C150.413 300.71 152.622 307.518 155.306 314.364Z" fill="#81C784"/>
<path fill-rule="evenodd" clip-rule="evenodd" d="M230.16 293.127C230.16 293.127 235.393 286.815 233.46 276.821C232.112 278.894 231.422 279.46 231.422 279.46C231.422 279.46 232.873 274.959 230.801 271.656C229.732 272.497 229.258 272.67 228.642 274.233C228.782 271.557 229.53 269.001 227.186 266.314C225.893 268.319 226.083 268.56 226.083 268.56C226.083 268.56 225.587 264.795 221.918 263.188C220.735 266.034 220.421 267.15 221.014 269.177C219.36 267.727 218.104 268.501 218.104 268.501C218.104 268.501 218.631 273.132 219.733 275.039C217.488 272.857 216.529 274.66 216.529 274.66C216.529 274.66 217.379 281.109 220.328 283.674C218.009 281.94 216.976 283.602 216.976 283.602C216.976 283.602 221.26 294.346 229.028 293.423C227.453 290.857 225.972 287.692 224.65 284.415C223.047 280.44 221.85 276.146 223.206 270.59C222.972 279.234 226.319 286.222 230.16 293.127Z" fill="#81C784"/>
<path fill-rule="evenodd" clip-rule="evenodd" d="M293.722 243.183C293.722 243.183 299.738 246.865 306.103 241.759C304.241 240.946 303.634 240.38 303.634 240.38C303.634 240.38 307.218 240.564 308.878 237.344C307.962 236.455 307.694 236 306.416 235.816C308.322 235.152 310.335 235.176 311.481 231.851C309.684 231.077 309.575 231.354 309.575 231.354C309.575 231.354 312.045 229.678 312.029 225.264C309.68 224.862 308.805 224.866 307.576 226.116C308.075 223.906 307.147 222.797 307.147 222.797C307.147 222.797 304.084 224.767 303.096 226.528C303.921 223.46 302.368 222.983 302.368 222.983C302.368 222.983 298.138 225.851 297.264 229.787C297.754 226.779 296.277 226.178 296.277 226.178C296.277 226.178 290.118 234.027 293.165 242.061C296.043 236.606 299.443 229.325 307.271 228.891C301.176 231.268 297.342 236.974 293.722 243.183Z" fill="#81C784"/>
<path fill-rule="evenodd" clip-rule="evenodd" d="M374.512 423.973C374.512 423.973 368.298 420.785 362.24 426.391C364.144 427.052 364.783 427.568 364.783 427.568C364.783 427.568 361.196 427.673 359.725 431.02C360.691 431.833 360.984 432.265 362.27 432.346C360.405 433.162 358.396 433.3 357.443 436.71C359.28 437.338 359.372 437.052 359.372 437.052C359.372 437.052 357.005 438.923 357.273 443.326C359.64 443.537 360.513 443.463 361.668 442.117C361.297 444.362 362.286 445.394 362.286 445.394C362.286 445.394 365.23 443.181 366.114 441.345C365.466 444.472 367.043 444.823 367.043 444.823C367.043 444.823 371.099 441.62 371.746 437.623C371.429 440.664 372.937 441.145 372.937 441.145C372.937 441.145 378.632 432.817 375.132 425.048C372.573 430.722 369.597 438.26 361.814 439.324C367.758 436.461 371.255 430.46 374.512 423.973Z" fill="#81C784"/>
<path fill-rule="evenodd" clip-rule="evenodd" d="M305.568 412.454C305.568 412.454 299.645 408.563 293.156 413.444C294.997 414.321 295.59 414.909 295.59 414.909C295.59 414.909 292.011 414.599 290.272 417.76C291.166 418.68 291.423 419.144 292.696 419.373C290.773 419.97 288.763 419.876 287.534 423.159C289.311 423.996 289.426 423.723 289.426 423.723C289.426 423.723 286.916 425.312 286.822 429.725C289.161 430.208 290.035 430.236 291.295 429.028C290.741 431.22 291.641 432.361 291.641 432.361C291.641 432.361 294.752 430.499 295.783 428.774C294.882 431.811 296.423 432.343 296.423 432.343C296.423 432.343 300.722 429.623 301.694 425.72C301.129 428.71 302.59 429.362 302.59 429.362C302.59 429.362 308.942 421.731 306.097 413.595C303.084 418.947 299.503 426.106 291.669 426.266C297.82 424.103 301.794 418.533 305.568 412.454Z" fill="#81C784"/>
<path fill-rule="evenodd" clip-rule="evenodd" d="M199.857 374.801C199.857 374.801 204.565 368.73 202.333 360.4C201.138 362.348 200.506 362.92 200.506 362.92C200.506 362.92 201.702 358.877 199.606 356.305C198.626 357.161 198.184 357.368 197.662 358.786C197.688 356.473 198.295 354.187 195.965 352.177C194.821 354.058 195.011 354.241 195.011 354.241C195.011 354.241 194.389 351.074 190.848 350.156C189.84 352.746 189.587 353.743 190.23 355.408C188.605 354.371 187.445 355.193 187.445 355.193C187.445 355.193 188.129 359.098 189.251 360.596C187.035 359.006 186.198 360.674 186.198 360.674C186.198 360.674 187.261 366.098 190.159 367.928C187.892 366.732 186.979 368.287 186.979 368.287C186.979 368.287 191.469 376.964 198.795 375.198C195.265 370.764 190.426 365.348 192.364 356.344C192.489 363.788 195.94 369.362 199.857 374.801Z" fill="#81C784"/>
<path fill-rule="evenodd" clip-rule="evenodd" d="M164.199 373.133C164.199 373.133 171.857 372.024 176.135 364.516C173.904 365.089 173.048 365.063 173.048 365.063C173.048 365.063 176.757 362.989 177.07 359.701C175.763 359.639 175.3 359.484 173.926 360.14C175.576 358.5 177.624 357.279 177.372 354.233C175.224 354.793 175.231 355.055 175.231 355.055C175.231 355.055 177.02 352.357 175.129 349.259C172.579 350.421 171.695 350.961 170.981 352.598C170.548 350.736 169.137 350.525 169.137 350.525C169.137 350.525 166.871 353.796 166.619 355.642C166.152 352.976 164.376 353.595 164.376 353.595C164.376 353.595 161.31 358.216 162.096 361.524C161.316 359.105 159.564 359.59 159.564 359.59C159.564 359.59 156.66 368.904 163.158 372.686C163.756 367.075 164.108 359.858 171.85 354.739C166.688 360.161 165.229 366.535 164.199 373.133Z" fill="#81C784"/>
<path fill-rule="evenodd" clip-rule="evenodd" d="M323.715 312.195C323.715 312.195 331.373 311.087 335.65 303.578C333.419 304.151 332.563 304.126 332.563 304.126C332.563 304.126 336.272 302.051 336.585 298.764C335.279 298.702 334.816 298.546 333.441 299.203C335.091 297.563 337.14 296.342 336.888 293.296C334.74 293.856 334.747 294.118 334.747 294.118C334.747 294.118 336.536 291.419 334.645 288.322C332.095 289.484 331.211 290.024 330.497 291.661C330.063 289.798 328.652 289.588 328.652 289.588C328.652 289.588 326.387 292.858 326.134 294.705C325.668 292.038 323.891 292.657 323.891 292.657C323.891 292.657 320.826 297.278 321.612 300.587C320.831 298.167 319.079 298.653 319.079 298.653C319.079 298.653 316.176 307.966 322.674 311.748C323.271 306.138 323.624 298.921 331.366 293.802C326.203 299.223 324.745 305.597 323.715 312.195Z" fill="#81C784"/>
<path fill-rule="evenodd" clip-rule="evenodd" d="M156.187 278.371C156.187 278.371 160.895 272.3 158.663 263.971C157.468 265.919 156.837 266.49 156.837 266.49C156.837 266.49 158.032 262.448 155.937 259.875C154.956 260.73 154.515 260.939 153.993 262.355C154.018 260.043 154.625 257.757 152.295 255.747C151.151 257.629 151.341 257.811 151.341 257.811C151.341 257.811 150.719 254.644 147.178 253.727C146.17 256.317 145.917 257.313 146.56 258.978C144.936 257.941 143.775 258.763 143.775 258.763C143.775 258.763 144.459 262.669 145.581 264.166C143.365 262.576 142.528 264.244 142.528 264.244C142.528 264.244 143.591 269.669 146.489 271.499C144.222 270.302 143.309 271.857 143.309 271.857C143.309 271.857 147.799 280.534 155.125 278.768C151.595 274.335 146.756 268.918 148.694 259.914C148.819 267.358 152.27 272.932 156.187 278.371Z" fill="#81C784"/>
<path fill-rule="evenodd" clip-rule="evenodd" d="M280.489 247.897C280.489 247.897 285.69 241.998 283.41 233.59C282.083 235.493 281.389 236.042 281.389 236.042C281.389 236.042 282.751 232.044 280.523 229.396C279.447 230.215 278.964 230.407 278.376 231.804C278.441 229.494 279.137 227.231 276.646 225.136C275.374 226.975 275.577 227.165 275.577 227.165C275.577 227.165 274.956 223.976 271.134 222.93C270 225.482 269.709 226.469 270.378 228.158C268.635 227.062 267.365 227.84 267.365 227.84C267.365 227.84 268.041 231.771 269.232 233.309C266.857 231.638 265.923 233.275 265.923 233.275C265.923 233.275 266.986 238.737 270.095 240.672C267.658 239.393 266.644 240.915 266.644 240.915C266.644 240.915 271.366 249.753 279.333 248.254C275.581 243.693 271.405 236.719 272.675 229.171C272.687 236.617 276.336 242.316 280.489 247.897Z" fill="#81C784"/>
<path fill-rule="evenodd" clip-rule="evenodd" d="M180.54 300.983C180.54 300.983 181.888 291.376 176.438 283.775C176.077 286.283 175.978 287.703 175.978 287.703C175.978 287.703 175.485 282.675 172.462 280.926C171.87 282.221 171.69 282.683 171.758 284.36C170.86 281.975 170.823 280.486 167.801 279.414C167.462 281.833 167.715 281.94 167.715 281.94C167.715 281.94 165.86 278.953 162.119 279.518C162.193 282.605 162.349 283.736 163.627 285.171C161.665 284.799 161.219 285.442 161.219 285.442C161.219 285.442 162.588 289.573 164.254 290.633C161.508 289.944 161.905 290.896 161.905 290.896C161.905 290.896 163.987 297.731 167.478 298.377C164.841 298.113 165.67 299.776 165.67 299.776C165.67 299.776 173.411 306.772 179.686 301.841C177.169 297.048 173.43 293.168 169.282 289.596C172.896 292.109 176.299 294.971 180.54 300.983Z" fill="#81C784"/>
<path fill-rule="evenodd" clip-rule="evenodd" d="M235.856 246.658C235.856 246.658 243.74 249.382 250.749 243.86C248.692 243.139 247.515 242.856 247.515 242.856C247.515 242.856 251.783 242.869 253.605 239.516C252.59 238.665 252.224 238.398 250.812 238.281C252.915 237.505 254.166 237.638 255.421 234.206C253.436 233.52 253.317 233.806 253.317 233.806C253.317 233.806 256.037 231.973 256.006 227.502C253.411 227.224 252.446 227.275 251.093 228.61C251.637 226.343 251.151 225.742 251.151 225.742C251.151 225.742 247.53 226.866 246.446 228.704C247.347 225.551 246.503 225.906 246.503 225.906C246.503 225.906 240.533 227.551 239.581 231.586C240.113 228.511 238.623 229.291 238.623 229.291C238.623 229.291 231.85 237.58 235.238 245.552C239.549 243.154 243.239 239.209 246.721 234.748C244.189 238.706 241.391 242.375 235.856 246.658Z" fill="#81C784"/>
<path fill-rule="evenodd" clip-rule="evenodd" d="M357.246 360.368C357.246 360.368 361.531 352.591 369.764 351.586C368.653 353.623 367.944 354.692 367.944 354.692C367.944 354.692 371.077 351.569 374.286 352.734C374.013 354.107 373.893 354.572 372.919 355.69C374.899 354.734 375.746 353.722 378.581 355.359C377.502 357.318 377.255 357.192 377.255 357.192C377.255 357.192 380.278 356.571 382.746 359.92C380.992 362.019 380.253 362.685 378.514 362.679C380.177 363.968 380.154 364.77 380.154 364.77C380.154 364.77 376.863 366.575 375.042 365.998C377.462 367.686 376.642 368.038 376.642 368.038C376.642 368.038 371.334 371.169 368.384 368.862C370.489 370.762 368.958 371.268 368.958 371.268C368.958 371.268 359.355 370.042 357.407 361.641C361.917 360.281 366.829 360.523 371.877 361.303C367.809 360.205 363.705 359.517 357.246 360.368Z" fill="#81C784"/>
<path fill-rule="evenodd" clip-rule="evenodd" d="M336.311 416.898C336.311 416.898 342.031 423.246 341.444 433.037C339.944 431.386 339.178 430.374 339.178 430.374C339.178 430.374 341.231 434.573 339.71 438.12C338.617 437.564 338.251 437.343 337.491 436.013C337.943 438.491 338.637 439.655 336.788 442.683C335.347 441.085 335.495 440.818 335.495 440.818C335.495 440.818 335.489 444.456 332.282 446.762C330.841 444.35 330.415 443.372 330.72 441.342C329.362 443.062 328.7 442.897 328.7 442.897C328.7 442.897 327.769 438.742 328.562 436.713C326.743 439.248 326.592 438.231 326.592 438.231C326.592 438.231 324.908 431.489 327.333 428.442C325.392 430.573 325.235 428.697 325.235 428.697C325.235 428.697 327.911 417.693 335.225 416.867C335.576 422.369 334.527 428.065 333.009 433.827C334.623 429.264 335.903 424.59 336.311 416.898Z" fill="#81C784"/>
<path fill-rule="evenodd" clip-rule="evenodd" d="M145.584 403.177C145.584 403.177 145.709 412.466 139.365 418.77C139.324 416.343 139.405 414.987 139.405 414.987C139.405 414.987 138.286 419.656 135.078 420.823C134.655 419.505 134.534 419.039 134.814 417.467C133.625 419.574 133.401 420.975 130.28 421.502C130.248 419.164 130.512 419.104 130.512 419.104C130.512 419.104 128.302 421.627 124.675 420.493C125.137 417.589 125.434 416.547 126.877 415.395C124.89 415.433 124.53 414.754 124.53 414.754C124.53 414.754 126.403 411.072 128.184 410.338C125.382 410.549 125.895 409.713 125.895 409.713C125.895 409.713 128.812 403.592 132.345 403.543C129.705 403.369 130.733 401.932 130.733 401.932C130.733 401.932 139.265 396.566 144.849 402.23C141.757 406.353 137.574 409.416 133.024 412.125C136.913 410.33 140.637 408.174 145.584 403.177Z" fill="#81C784"/>
<path fill-rule="evenodd" clip-rule="evenodd" d="M199.607 311.825C199.607 311.825 196.434 303.331 200.2 294.591C201.036 296.805 201.408 298.091 201.408 298.091C201.408 298.091 200.902 293.275 203.471 290.715C204.294 291.733 204.558 292.106 204.819 293.682C205.22 291.192 204.964 289.799 207.664 287.868C208.463 290.007 208.24 290.184 208.24 290.184C208.24 290.184 209.444 286.839 213.156 286.203C213.687 289.09 213.757 290.188 212.808 291.915C214.624 290.961 215.179 291.42 215.179 291.42C215.179 291.42 214.667 295.676 213.269 297.176C215.779 295.685 215.582 296.692 215.582 296.692C215.582 296.692 214.911 303.678 211.675 305.359C214.164 304.297 213.69 306.096 213.69 306.096C213.69 306.096 207.601 314.986 200.596 312.357C202.085 307.129 204.928 302.372 208.225 297.772C205.236 301.224 202.517 304.934 199.607 311.825Z" fill="#81C784"/>
<path fill-rule="evenodd" clip-rule="evenodd" d="M307.861 274.933C307.861 274.933 299.312 271.086 296.438 262.807C298.675 263.805 299.878 264.455 299.878 264.455C299.878 264.455 296.119 261.478 296.513 258.152C297.911 258.341 298.391 258.434 299.702 259.35C298.317 257.404 297.137 256.61 298.077 253.633C300.229 254.602 300.164 254.861 300.164 254.861C300.164 254.861 298.864 251.837 301.552 249.123C303.997 250.767 304.815 251.473 305.209 253.235C306.08 251.468 306.865 251.44 306.865 251.44C306.865 251.44 309.378 254.659 309.238 256.542C310.321 253.983 310.852 254.791 310.852 254.791C310.852 254.791 315.119 259.97 313.556 263.106C314.918 260.852 315.763 262.371 315.763 262.371C315.763 262.371 316.783 272.179 309.063 274.688C306.701 270.206 305.805 265.212 305.4 260.048C305.27 264.24 305.546 268.442 307.861 274.933Z" fill="#81C784"/>
<path fill-rule="evenodd" clip-rule="evenodd" d="M309.981 323.133C309.981 323.133 302.088 324.26 296.368 317.051C298.429 316.745 299.588 316.705 299.588 316.705C299.588 316.705 295.553 315.805 294.379 311.947C295.477 311.286 295.866 311.088 297.219 311.27C295.359 310.016 294.156 309.885 293.531 306.069C295.518 305.785 295.584 306.107 295.584 306.107C295.584 306.107 293.314 303.63 294.073 299.014C296.569 299.283 297.473 299.542 298.533 301.211C298.389 298.752 298.947 298.234 298.947 298.234C298.947 298.234 302.184 300.172 302.908 302.303C302.571 298.851 303.311 299.399 303.311 299.399C303.311 299.399 308.682 302.378 308.923 306.754C308.922 303.461 310.203 304.586 310.203 304.586C310.203 304.586 315.248 314.606 310.746 322.122C307.064 318.719 304.222 313.851 301.662 308.492C303.407 313.127 305.452 317.52 309.981 323.133Z" fill="#81C784"/>
<path fill-rule="evenodd" clip-rule="evenodd" d="M296.806 291.267C296.806 291.267 296.272 283.404 303.983 278.319C304.133 280.373 304.085 281.518 304.085 281.518C304.085 281.518 305.302 277.612 309.284 276.75C309.867 277.882 310.037 278.28 309.751 279.599C311.157 277.863 311.382 276.687 315.28 276.363C315.414 278.343 315.085 278.383 315.085 278.383C315.085 278.383 317.758 276.335 322.357 277.436C321.895 279.875 321.565 280.746 319.8 281.663C322.292 281.709 322.771 282.298 322.771 282.298C322.771 282.298 320.569 285.339 318.363 285.89C321.872 285.822 321.262 286.509 321.262 286.509C321.262 286.509 317.847 291.573 313.413 291.477C316.735 291.728 315.503 292.903 315.503 292.903C315.503 292.903 305.006 297.109 297.767 292.098C301.483 288.731 306.611 286.302 312.214 284.189C307.403 285.555 302.815 287.234 296.806 291.267Z" fill="#81C784"/>
<path fill-rule="evenodd" clip-rule="evenodd" d="M380.313 318.217C380.313 318.217 387.572 314.542 389.566 304.907C387.666 305.857 386.652 306.505 386.652 306.505C386.652 306.505 389.761 303.344 389.203 299.3C387.988 299.373 387.572 299.43 386.48 300.385C387.572 298.2 388.556 297.377 387.541 293.693C385.713 294.618 385.788 294.936 385.788 294.936C385.788 294.936 386.736 291.445 384.202 287.883C382.162 289.588 381.488 290.346 381.254 292.421C380.377 290.199 379.687 290.079 379.687 290.079C379.687 290.079 377.686 293.67 377.929 295.95C376.815 292.752 376.4 293.664 376.4 293.664C376.4 293.664 372.985 299.418 374.558 303.363C373.219 300.502 372.573 302.233 372.573 302.233C372.573 302.233 372.514 304.784 373.16 307.897C373.896 311.446 375.546 315.725 379.243 317.79C381.029 312.662 381.497 306.757 381.522 300.592C381.904 305.648 381.93 310.67 380.313 318.217Z" fill="#81C784"/>
<path fill-rule="evenodd" clip-rule="evenodd" d="M375.602 276.741C375.602 276.741 382.861 273.066 384.855 263.431C382.955 264.381 381.94 265.029 381.94 265.029C381.94 265.029 385.05 261.868 384.491 257.824C383.277 257.897 382.861 257.954 381.769 258.91C382.861 256.724 383.845 255.901 382.83 252.217C381.002 253.142 381.077 253.46 381.077 253.46C381.077 253.46 382.025 249.969 379.491 246.406C377.45 248.112 376.777 248.87 376.543 250.945C375.666 248.724 374.975 248.603 374.975 248.603C374.975 248.603 372.975 252.194 373.218 254.474C372.103 251.276 371.689 252.188 371.689 252.188C371.689 252.188 368.274 257.942 369.847 261.887C368.507 259.025 367.862 260.757 367.862 260.757C367.862 260.757 367.803 263.308 368.449 266.421C369.185 269.97 370.835 274.249 374.531 276.313C376.318 271.186 376.786 265.281 376.811 259.116C377.193 264.172 377.219 269.194 375.602 276.741Z" fill="#81C784"/>
<path fill-rule="evenodd" clip-rule="evenodd" d="M326.252 261.657C326.252 261.657 330.852 254.051 328.343 244.586C327.134 246.567 326.55 247.745 326.55 247.745C326.55 247.745 327.826 243.13 325.581 240.016C324.574 240.825 324.243 241.13 323.727 242.618C323.706 240.078 324.187 238.769 321.708 236.243C320.55 238.158 320.753 238.385 320.753 238.385C320.753 238.385 320.037 234.817 316.313 233.328C315.313 236.042 315.069 237.104 315.777 239.022C314.055 237.662 313.412 237.983 313.412 237.983C313.412 237.983 313.272 242.285 314.477 244.084C312.126 242.035 312.169 243.07 312.169 243.07C312.169 243.07 311.766 250.09 314.836 252.495C312.439 250.873 312.645 252.75 312.645 252.75C312.645 252.75 313.71 254.967 315.623 257.232C317.804 259.814 321.087 262.458 325.15 261.95C324.435 256.467 322.253 251.131 319.579 245.844C322.116 249.931 324.335 254.209 326.252 261.657Z" fill="#81C784"/>
<path fill-rule="evenodd" clip-rule="evenodd" d="M206.459 391.883C206.459 391.883 214.085 392.816 219.176 385.411C217.184 385.156 216.071 385.145 216.071 385.145C216.071 385.145 219.889 384.135 220.805 380.222C219.717 379.584 219.333 379.395 218.046 379.612C219.761 378.302 220.907 378.14 221.299 374.281C219.379 374.047 219.333 374.372 219.333 374.372C219.333 374.372 221.375 371.82 220.397 367.192C218.019 367.526 217.167 367.81 216.241 369.518C216.246 367.038 215.684 366.531 215.684 366.531C215.684 366.531 212.686 368.565 212.107 370.73C212.243 367.246 211.564 367.816 211.564 367.816C211.564 367.816 206.578 370.953 206.584 375.365C206.406 372.049 205.24 373.215 205.24 373.215C205.24 373.215 204.303 375.446 203.786 378.583C203.198 382.16 203.155 386.915 205.671 390.885C209.015 387.364 211.475 382.39 213.638 376.93C212.216 381.641 210.495 386.116 206.459 391.883Z" fill="#81C784"/>
<path fill-rule="evenodd" clip-rule="evenodd" d="M211.904 275.907C211.904 275.907 216.504 268.3 213.995 258.835C212.786 260.817 212.202 261.995 212.202 261.995C212.202 261.995 213.478 257.379 211.233 254.266C210.226 255.074 209.896 255.38 209.38 256.868C209.358 254.328 209.839 253.019 207.361 250.493C206.202 252.408 206.405 252.635 206.405 252.635C206.405 252.635 205.689 249.067 201.965 247.578C200.965 250.291 200.721 251.353 201.429 253.272C199.707 251.912 199.064 252.233 199.064 252.233C199.064 252.233 198.924 256.535 200.129 258.334C197.778 256.285 197.822 257.32 197.822 257.32C197.822 257.32 197.419 264.34 200.488 266.745C198.091 265.122 198.297 267 198.297 267C198.297 267 199.362 269.217 201.275 271.482C203.456 274.063 206.739 276.708 210.802 276.2C210.087 270.717 207.905 265.38 205.231 260.093C207.769 264.181 209.987 268.459 211.904 275.907Z" fill="#81C784"/>
<path fill-rule="evenodd" clip-rule="evenodd" d="M202.675 415.343C202.675 415.343 195.769 410.811 188.134 414.866C189.933 416.06 190.988 416.611 190.988 416.611C190.988 416.611 186.974 415.645 184.627 418.652C185.422 419.744 185.716 420.098 187.023 420.532C184.898 420.853 183.745 420.438 181.918 423.652C183.657 424.793 183.823 424.528 183.823 424.528C183.823 424.528 180.918 425.787 180.105 430.346C182.493 431.208 183.412 431.372 184.936 430.315C183.997 432.501 184.341 433.222 184.341 433.222C184.341 433.222 187.96 432.886 189.327 431.257C187.885 434.265 188.746 434.093 188.746 434.093C188.746 434.093 194.673 433.751 196.329 429.856C195.249 432.867 196.798 432.406 196.798 432.406C196.798 432.406 198.531 430.894 200.205 428.377C202.114 425.508 203.946 421.334 203.048 416.608C198.539 418.087 194.324 421.278 190.207 425.043C193.335 421.579 196.66 418.468 202.675 415.343Z" fill="#81C784"/>
<path fill-rule="evenodd" clip-rule="evenodd" d="M153.43 368.711C153.43 368.711 145.539 368.935 140.676 377.009C142.738 376.961 143.883 376.805 143.883 376.805C143.883 376.805 140.008 378.376 139.263 382.376C140.414 382.843 140.818 382.972 142.131 382.564C140.434 384.114 139.263 384.447 139.055 388.314C141.042 388.258 141.072 387.93 141.072 387.93C141.072 387.93 139.101 390.756 140.341 395.178C142.769 394.491 143.632 394.083 144.497 392.257C144.618 394.706 145.221 395.122 145.221 395.122C145.221 395.122 148.202 392.665 148.688 390.44C148.724 393.901 149.394 393.236 149.394 393.236C149.394 393.236 154.364 389.391 154.134 385.037C154.485 388.283 155.625 386.957 155.625 386.957C155.625 386.957 156.477 384.613 156.85 381.438C157.275 377.819 157.079 373.119 154.291 369.578C151.029 373.556 148.75 378.835 146.801 384.55C148.025 379.686 149.569 375.01 153.43 368.711Z" fill="#81C784"/>
<path fill-rule="evenodd" clip-rule="evenodd" d="M119.679 350.817C119.679 350.817 112.852 346.12 105.149 349.99C106.928 351.227 107.973 351.803 107.973 351.803C107.973 351.803 103.976 350.74 101.579 353.69C102.355 354.801 102.643 355.162 103.941 355.628C101.812 355.898 100.666 355.455 98.7846 358.624C100.503 359.808 100.674 359.547 100.674 359.547C100.674 359.547 97.7478 360.734 96.8566 365.273C99.2299 366.192 100.145 366.378 101.687 365.358C100.711 367.521 101.043 368.25 101.043 368.25C101.043 368.25 104.667 368.001 106.061 366.407C104.567 369.379 105.432 369.227 105.432 369.227C105.432 369.227 111.363 369.029 113.087 365.174C111.955 368.159 113.511 367.735 113.511 367.735C113.511 367.735 115.27 366.265 116.986 363.789C118.944 360.967 120.847 356.838 120.031 352.09C115.497 353.461 111.228 356.55 107.048 360.215C110.235 356.826 113.612 353.797 119.679 350.817Z" fill="#81C784"/>
<path fill-rule="evenodd" clip-rule="evenodd" d="M119.057 299.182C119.057 299.182 112.722 293.597 104.699 296.408C106.349 297.876 107.332 298.589 107.332 298.589C107.332 298.589 103.463 296.997 100.799 299.605C101.463 300.814 101.715 301.21 102.961 301.848C100.819 301.83 99.7235 301.237 97.5515 304.132C99.1464 305.538 99.3404 305.302 99.3404 305.302C99.3404 305.302 96.3201 306.09 95.001 310.479C97.2713 311.712 98.1625 312.019 99.7924 311.213C98.6161 313.231 98.8763 313.999 98.8763 313.999C98.8763 313.999 102.5 314.239 104.038 312.842C102.27 315.595 103.143 315.56 103.143 315.56C103.143 315.56 109.056 316.159 111.136 312.56C109.727 315.374 111.314 315.162 111.314 315.162C111.314 315.162 113.201 313.937 115.143 311.708C117.358 309.167 119.643 305.32 119.285 300.494C114.65 301.247 110.113 303.742 105.609 306.822C109.1 303.884 112.744 301.326 119.057 299.182Z" fill="#81C784"/>
<path fill-rule="evenodd" clip-rule="evenodd" d="M391.801 370.45C391.801 370.45 394.834 379.092 402.94 381.545C402.156 379.283 401.619 378.074 401.619 378.074C401.619 378.074 404.256 381.79 407.67 381.164C407.621 379.723 407.576 379.23 406.78 377.926C408.613 379.241 409.298 380.415 412.414 379.246C411.651 377.07 411.382 377.155 411.382 377.155C411.382 377.155 414.317 378.311 417.344 375.34C415.925 372.904 415.292 372.099 413.544 371.802C415.425 370.782 415.534 369.964 415.534 369.964C415.534 369.964 412.523 367.559 410.599 367.827C413.306 366.534 412.54 366.035 412.54 366.035C412.54 366.035 407.719 361.932 404.379 363.761C406.804 362.199 405.349 361.418 405.349 361.418C405.349 361.418 403.199 361.325 400.568 362.062C397.569 362.902 393.946 364.82 392.171 369.184C396.479 371.35 401.453 371.959 406.652 372.045C402.385 372.452 398.15 372.437 391.801 370.45Z" fill="#81C784"/>
<path fill-rule="evenodd" clip-rule="evenodd" d="M153.359 409.56C153.359 409.56 154.846 418.753 162.362 423.109C161.983 420.706 161.664 419.392 161.664 419.392C161.664 419.392 163.609 423.667 167.059 423.878C167.258 422.455 167.298 421.961 166.743 420.493C168.312 422.222 168.781 423.537 172.032 423.144C171.658 420.829 171.38 420.847 171.38 420.847C171.38 420.847 174.056 422.687 177.529 420.508C176.558 417.781 176.076 416.84 174.416 416.128C176.432 415.583 176.679 414.808 176.679 414.808C176.679 414.808 174.144 411.727 172.214 411.526C175.085 410.912 174.422 410.239 174.422 410.239C174.422 410.239 170.405 405.06 166.821 406.045C169.464 405.1 168.173 403.984 168.173 403.984C168.173 403.984 166.084 403.375 163.381 403.462C160.301 403.561 156.424 404.565 153.938 408.41C157.784 411.569 162.551 413.365 167.626 414.703C163.378 414.073 159.234 413.037 153.359 409.56Z" fill="#81C784"/>
<path fill-rule="evenodd" clip-rule="evenodd" d="M178.852 314.308C178.852 314.308 172.547 308.677 164.509 311.43C166.151 312.91 167.13 313.63 167.13 313.63C167.13 313.63 163.269 312.009 160.592 314.598C161.251 315.811 161.5 316.21 162.743 316.856C160.601 316.823 159.508 316.222 157.321 319.102C158.909 320.52 159.104 320.284 159.104 320.284C159.104 320.284 156.079 321.05 154.738 325.43C157.002 326.678 157.891 326.993 159.525 326.199C158.339 328.208 158.594 328.978 158.594 328.978C158.594 328.978 162.217 329.245 163.762 327.858C161.98 330.598 162.853 330.569 162.853 330.569C162.853 330.569 168.763 331.212 170.862 327.629C169.438 330.432 171.026 330.232 171.026 330.232C171.026 330.232 172.919 329.021 174.873 326.806C177.101 324.281 179.406 320.45 179.073 315.622C174.434 316.341 169.884 318.804 165.365 321.851C168.871 318.937 172.528 316.407 178.852 314.308Z" fill="#81C784"/>
<path fill-rule="evenodd" clip-rule="evenodd" d="M389.885 354.073C389.885 354.073 390.122 344.656 396.293 337.703C396.239 340.162 396.111 341.545 396.111 341.545C396.111 341.545 397.336 336.709 400.38 335.243C400.724 336.544 400.819 337.006 400.498 338.626C401.689 336.383 401.951 334.942 404.89 334.133C404.83 336.504 404.581 336.588 404.581 336.588C404.581 336.588 406.743 333.834 410.09 334.666C409.548 337.655 409.23 338.738 407.837 340.033C409.696 339.821 410.006 340.479 410.006 340.479C410.006 340.479 408.115 344.38 406.422 345.28C409.049 344.821 408.538 345.715 408.538 345.715C408.538 345.715 405.577 352.182 402.274 352.542C404.735 352.488 403.719 354.036 403.719 354.036C403.719 354.036 395.539 360.23 390.536 354.97C393.584 350.515 397.611 347.039 401.966 343.891C398.263 346.053 394.7 348.568 389.885 354.073Z" fill="#81C784"/>
<path fill-rule="evenodd" clip-rule="evenodd" d="M378.9 403.68C378.9 403.68 385.818 399.323 393.438 403.155C391.635 404.303 390.579 404.834 390.579 404.834C390.579 404.834 394.594 403.893 396.931 406.75C396.132 407.796 395.838 408.135 394.53 408.555C396.653 408.852 397.807 408.451 399.623 411.508C397.881 412.605 397.716 412.353 397.716 412.353C397.716 412.353 400.616 413.54 401.414 417.886C399.024 418.719 398.105 418.88 396.585 417.879C397.516 419.96 397.17 420.649 397.17 420.649C397.17 420.649 393.553 420.346 392.193 418.799C393.625 421.662 392.764 421.501 392.764 421.501C392.764 421.501 386.84 421.204 385.196 417.495C386.266 420.364 384.72 419.931 384.72 419.931C384.72 419.931 376.809 413.361 378.523 404.888C383.025 406.278 387.229 409.302 391.333 412.875C388.216 409.584 384.903 406.632 378.9 403.68Z" fill="#81C784"/>
<path fill-rule="evenodd" clip-rule="evenodd" d="M138.196 421.141C138.196 421.141 145.884 422.927 149.763 431.598C147.753 431.141 146.651 430.764 146.651 430.764C146.651 430.764 150.269 433.034 150.564 436.999C149.389 437.214 148.981 437.257 147.742 436.607C149.232 438.423 150.342 438.974 150.127 442.705C148.191 442.255 148.197 441.936 148.197 441.936C148.197 441.936 149.818 445.025 148.129 448.996C145.83 447.856 145.031 447.295 144.382 445.382C144 447.693 143.365 447.97 143.365 447.97C143.365 447.97 140.718 445.032 140.483 442.813C140.074 446.106 139.491 445.338 139.491 445.338C139.491 445.338 135.049 440.681 135.744 436.573C135.051 439.6 134.079 438.108 134.079 438.108C134.079 438.108 131.429 427.094 137.261 421.797C140.019 426.241 141.676 431.731 142.963 437.571C142.292 432.687 141.288 427.919 138.196 421.141Z" fill="#81C784"/>
<path fill-rule="evenodd" clip-rule="evenodd" d="M190.179 297.203C190.179 297.203 183.36 292.63 181.987 282.951C183.773 284.136 184.718 284.907 184.718 284.907C184.718 284.907 181.889 281.399 182.664 277.526C183.836 277.762 184.236 277.874 185.238 278.955C184.307 276.673 183.402 275.736 184.598 272.275C186.315 273.427 186.225 273.728 186.225 273.728C186.225 273.728 185.509 270.19 188.169 267.055C190.047 268.996 190.655 269.827 190.761 271.886C191.74 269.835 192.416 269.811 192.416 269.811C192.416 269.811 194.145 273.59 193.778 275.782C195.043 272.811 195.391 273.758 195.391 273.758C195.391 273.758 198.366 279.84 196.614 283.478C198.077 280.865 198.602 282.645 198.602 282.645C198.602 282.645 198.185 294.087 191.241 296.931C189.807 291.682 189.696 285.853 190.029 279.828C189.366 284.714 189.049 289.614 190.179 297.203Z" fill="#81C784"/>
<path fill-rule="evenodd" clip-rule="evenodd" d="M285.472 286.628C285.472 286.628 279.294 280.014 279.397 270.459C281.016 272.179 281.852 273.224 281.852 273.224C281.852 273.224 279.537 268.968 280.915 265.595C282.062 266.215 282.448 266.456 283.293 267.812C282.704 265.353 281.935 264.165 283.675 261.323C285.23 262.988 285.093 263.239 285.093 263.239C285.093 263.239 284.915 259.674 288.081 257.635C289.678 260.097 290.164 261.085 289.955 263.054C291.258 261.461 291.944 261.668 291.944 261.668C291.944 261.668 293.108 265.805 292.399 267.739C294.133 265.379 294.34 266.387 294.34 266.387C294.34 266.387 296.405 273.11 294.077 275.93C295.956 273.974 296.212 275.823 296.212 275.823C296.212 275.823 294.031 286.426 286.585 286.734C285.946 281.317 286.731 275.806 287.993 270.263C286.572 274.624 285.499 279.118 285.472 286.628Z" fill="#81C784"/>
<path fill-rule="evenodd" clip-rule="evenodd" d="M394.898 309.139C394.898 309.139 402.804 311.306 409.266 305.157C407.202 304.58 406.03 304.382 406.03 304.382C406.03 304.382 410.206 304.07 411.749 300.521C410.696 299.734 410.319 299.49 408.93 299.479C410.931 298.529 412.164 298.568 413.146 294.983C411.156 294.437 411.06 294.737 411.06 294.737C411.06 294.737 413.589 292.666 413.24 288.122C410.683 288.038 409.743 288.163 408.515 289.624C408.885 287.277 408.367 286.703 408.367 286.703C408.367 286.703 404.905 288.123 403.975 290.075C404.632 286.8 403.831 287.225 403.831 287.225C403.831 287.225 398.11 289.354 397.466 293.53C397.767 290.362 396.366 291.269 396.366 291.269C396.366 291.269 390.332 300.215 394.214 308.062C398.26 305.293 401.588 301.001 404.675 296.198C402.481 300.417 400.006 304.362 394.898 309.139Z" fill="#81C784"/>
<path fill-rule="evenodd" clip-rule="evenodd" d="M276.393 263.984C276.393 263.984 277.02 255.521 271.47 249.998C271.298 252.208 271.299 253.441 271.299 253.441C271.299 253.441 270.515 249.228 267.598 248.275C267.132 249.49 266.995 249.917 267.168 251.34C266.179 249.462 266.048 248.193 263.176 247.82C263.018 249.951 263.26 249.996 263.26 249.996C263.26 249.996 261.345 247.775 257.912 248.931C258.182 251.56 258.4 252.499 259.678 253.498C257.834 253.532 257.462 254.162 257.462 254.162C257.462 254.162 259 257.451 260.615 258.058C258.023 257.962 258.453 258.706 258.453 258.706C258.453 258.706 260.829 264.18 264.109 264.104C261.645 264.353 262.523 265.627 262.523 265.627C262.523 265.627 270.158 270.22 275.657 264.872C273.01 261.223 269.291 258.577 265.212 256.265C268.727 257.766 272.069 259.602 276.393 263.984Z" fill="#81C784"/>
<path fill-rule="evenodd" clip-rule="evenodd" d="M340.247 252.399C340.247 252.399 347.955 249.389 350.791 240.158C348.775 240.934 347.686 241.485 347.686 241.485C347.686 241.485 351.12 238.65 350.887 234.667C349.642 234.642 349.214 234.665 348.021 235.51C349.316 233.466 350.388 232.742 349.66 229.072C347.72 229.83 347.769 230.146 347.769 230.146C347.769 230.146 349.026 226.819 346.74 223.148C344.517 224.649 343.768 225.335 343.356 227.339C342.647 225.105 341.952 224.932 341.952 224.932C341.952 224.932 339.614 228.275 339.672 230.516C338.802 227.312 338.303 228.168 338.303 228.168C338.303 228.168 334.342 233.506 335.617 237.473C334.49 234.579 333.688 236.217 333.688 236.217C333.688 236.217 332.441 247.577 339.192 251.898C341.44 247.043 342.409 241.327 342.949 235.321C342.918 240.278 342.526 245.173 340.247 252.399Z" fill="#81C784"/>
<path fill-rule="evenodd" clip-rule="evenodd" d="M243.379 346.693C243.379 346.693 244.275 337.129 238.374 330.232C238.131 332.73 238.101 334.133 238.101 334.133C238.101 334.133 237.354 329.251 234.202 327.846C233.666 329.178 233.506 329.65 233.657 331.288C232.629 329.042 232.518 327.584 229.402 326.844C229.176 329.252 229.438 329.33 229.438 329.33C229.438 329.33 227.41 326.591 223.644 327.531C223.871 330.553 224.086 331.646 225.451 332.923C223.444 332.759 223.023 333.436 223.023 333.436C223.023 333.436 224.614 337.348 226.356 338.216C223.537 337.824 223.987 338.717 223.987 338.717C223.987 338.717 226.434 345.208 230.007 345.482C227.319 345.495 228.241 347.041 228.241 347.041C228.241 347.041 236.435 353.108 242.556 347.623C239.767 343.18 235.785 339.758 231.404 336.68C235.192 338.775 238.784 341.232 243.379 346.693Z" fill="#81C784"/>
<path fill-rule="evenodd" clip-rule="evenodd" d="M217.908 253.204C217.908 253.204 225.616 250.194 228.451 240.962C226.435 241.739 225.346 242.291 225.346 242.291C225.346 242.291 228.78 239.455 228.547 235.472C227.303 235.446 226.874 235.47 225.681 236.315C226.977 234.272 228.049 233.547 227.32 229.877C225.38 230.635 225.429 230.951 225.429 230.951C225.429 230.951 226.687 227.624 224.401 223.953C222.178 225.454 221.428 226.14 221.016 228.143C220.307 225.91 219.613 225.738 219.613 225.738C219.613 225.738 217.274 229.08 217.332 231.32C216.462 228.117 215.964 228.973 215.964 228.973C215.964 228.973 212.003 234.311 213.278 238.278C212.151 235.385 211.348 237.021 211.348 237.021C211.348 237.021 210.101 248.382 216.852 252.703C219.101 247.848 220.07 242.131 220.609 236.126C220.578 241.082 220.186 245.977 217.908 253.204Z" fill="#81C784"/>
<path fill-rule="evenodd" clip-rule="evenodd" d="M138.903 285.84C138.903 285.84 130.892 284.306 124.792 290.956C126.884 291.366 128.064 291.47 128.064 291.47C128.064 291.47 123.916 292.115 122.576 295.778C123.672 296.479 124.061 296.692 125.448 296.593C123.505 297.701 122.272 297.759 121.495 301.415C123.512 301.801 123.59 301.494 123.59 301.494C123.59 301.494 121.183 303.761 121.789 308.267C124.345 308.148 125.276 307.948 126.419 306.394C126.182 308.764 126.731 309.296 126.731 309.296C126.731 309.296 130.105 307.604 130.922 305.584C130.452 308.903 131.227 308.414 131.227 308.414C131.227 308.414 136.815 305.837 137.222 301.619C137.1 304.803 138.448 303.787 138.448 303.787C138.448 303.787 143.963 294.382 139.646 286.861C135.766 289.945 132.687 294.492 129.878 299.529C131.83 295.146 134.077 291.013 138.903 285.84Z" fill="#81C784"/>
<path fill-rule="evenodd" clip-rule="evenodd" d="M137.048 370.726C137.048 370.726 130.38 365.241 122.458 368.114C124.194 369.555 125.221 370.254 125.221 370.254C125.221 370.254 121.245 368.71 118.702 371.329C119.435 372.523 119.709 372.914 120.996 373.535C118.84 373.539 117.707 372.961 115.675 375.859C117.353 377.24 117.536 377.003 117.536 377.003C117.536 377.003 114.539 377.816 113.444 382.191C115.793 383.392 116.706 383.688 118.303 382.872C117.226 384.888 117.528 385.649 117.528 385.649C117.528 385.649 121.187 385.851 122.66 384.447C121.027 387.2 121.904 387.157 121.904 387.157C121.904 387.157 127.883 387.693 129.786 384.097C128.516 386.907 130.102 386.681 130.102 386.681C130.102 386.681 138.501 381.021 137.346 372.027C132.723 372.821 128.291 375.346 123.923 378.451C127.279 375.497 130.81 372.92 137.048 370.726Z" fill="#81C784"/>
<path fill-rule="evenodd" clip-rule="evenodd" d="M123.619 403.339C123.619 403.339 120.352 394.53 112.331 392.07C113.176 394.376 113.744 395.608 113.744 395.608C113.744 395.608 111.034 391.828 107.713 392.485C107.811 393.956 107.872 394.46 108.696 395.787C106.856 394.455 106.145 393.259 103.135 394.471C103.958 396.689 104.218 396.601 104.218 396.601C104.218 396.601 101.305 395.436 98.4434 398.487C99.9166 400.968 100.564 401.786 102.286 402.079C100.479 403.131 100.401 403.967 100.401 403.967C100.401 403.967 103.432 406.406 105.306 406.122C102.701 407.457 103.468 407.963 103.468 407.963C103.468 407.963 108.329 412.126 111.536 410.239C109.216 411.848 110.667 412.638 110.667 412.638C110.667 412.638 120.322 413.017 123.301 404.633C119.009 402.446 114.117 401.852 109.025 401.792C113.189 401.353 117.335 401.345 123.619 403.339Z" fill="#81C784"/>
<path fill-rule="evenodd" clip-rule="evenodd" d="M191.665 248.728C191.665 248.728 199.513 246.28 202.817 237.27C200.765 237.9 199.65 238.372 199.65 238.372C199.65 238.372 203.223 235.79 203.195 231.797C201.954 231.682 201.525 231.674 200.291 232.431C201.689 230.485 202.796 229.839 202.258 226.124C200.282 226.74 200.315 227.059 200.315 227.059C200.315 227.059 201.74 223.829 199.647 220C197.351 221.338 196.568 221.968 196.054 223.938C195.461 221.657 194.777 221.436 194.777 221.436C194.777 221.436 192.271 224.603 192.214 226.843C191.51 223.582 190.968 224.401 190.968 224.401C190.968 224.401 186.741 229.444 187.81 233.495C186.833 230.526 185.948 232.102 185.948 232.102C185.948 232.102 184.12 243.351 190.637 248.152C193.131 243.468 194.391 237.832 195.238 231.876C194.952 236.821 194.31 241.679 191.665 248.728Z" fill="#81C784"/>
<path fill-rule="evenodd" clip-rule="evenodd" d="M370.52 388.135C370.52 388.135 377.15 393.684 385.092 390.886C383.365 389.428 382.343 388.719 382.343 388.719C382.343 388.719 386.309 390.301 388.869 387.706C388.144 386.506 387.873 386.111 386.59 385.479C388.745 385.495 389.875 386.084 391.927 383.205C390.257 381.808 390.073 382.043 390.073 382.043C390.073 382.043 393.075 381.259 394.199 376.895C391.859 375.671 390.948 375.366 389.346 376.167C390.436 374.161 390.139 373.398 390.139 373.398C390.139 373.398 386.481 373.161 384.999 374.551C386.65 371.814 385.774 371.849 385.774 371.849C385.774 371.849 379.798 371.256 377.871 374.834C379.159 372.036 377.573 372.247 377.573 372.247C377.573 372.247 369.136 377.827 370.23 386.832C374.858 386.081 379.307 383.598 383.696 380.535C380.32 383.457 376.772 386.001 370.52 388.135Z" fill="#81C784"/>
<path fill-rule="evenodd" clip-rule="evenodd" d="M283.5 336.853C283.5 336.853 290.55 332.089 291.785 322.374C289.939 323.609 288.964 324.407 288.964 324.407C288.964 324.407 291.855 320.819 290.961 316.97C289.737 317.238 289.32 317.362 288.292 318.471C289.22 316.163 290.15 315.2 288.822 311.775C287.047 312.974 287.148 313.272 287.148 313.272C287.148 313.272 287.823 309.716 284.969 306.656C283.041 308.65 282.421 309.498 282.353 311.56C281.284 309.537 280.575 309.532 280.575 309.532C280.575 309.532 278.842 313.358 279.274 315.54C277.885 312.605 277.54 313.561 277.54 313.561C277.54 313.561 274.551 319.725 276.464 323.313C274.875 320.742 274.363 322.536 274.363 322.536C274.363 322.536 275.042 333.964 282.381 336.611C283.773 331.323 283.766 325.492 283.29 319.479C284.088 324.345 284.523 329.234 283.5 336.853Z" fill="#81C784"/>
<path fill-rule="evenodd" clip-rule="evenodd" d="M259.358 368.483C259.358 368.483 267.392 369.83 273.382 363.042C271.284 362.68 270.102 362.602 270.102 362.602C270.102 362.602 274.239 361.863 275.517 358.169C274.411 357.493 274.018 357.289 272.632 357.42C274.557 356.268 275.789 356.181 276.506 352.508C274.483 352.169 274.409 352.478 274.409 352.478C274.409 352.478 276.778 350.155 276.099 345.664C273.546 345.842 272.618 346.063 271.5 347.644C271.698 345.269 271.14 344.75 271.14 344.75C271.14 344.75 267.795 346.519 267.011 348.558C267.427 345.229 266.66 345.735 266.66 345.735C266.66 345.735 261.115 348.442 260.778 352.668C260.847 349.482 259.517 350.529 259.517 350.529C259.517 350.529 254.158 360.06 258.598 367.48C262.427 364.307 265.429 359.689 268.155 354.588C266.276 359.015 264.098 363.199 259.358 368.483Z" fill="#81C784"/>
<path fill-rule="evenodd" clip-rule="evenodd" d="M319.84 339.85C319.84 339.85 327.875 341.198 333.864 334.409C331.766 334.047 330.584 333.97 330.584 333.97C330.584 333.97 334.721 333.23 336 329.536C334.893 328.86 334.5 328.656 333.115 328.787C335.039 327.635 336.271 327.548 336.988 323.875C334.965 323.536 334.892 323.845 334.892 323.845C334.892 323.845 337.261 321.522 336.582 317.031C334.028 317.209 333.1 317.43 331.983 319.011C332.181 316.636 331.623 316.117 331.623 316.117C331.623 316.117 328.278 317.887 327.494 319.926C327.91 316.596 327.143 317.102 327.143 317.102C327.143 317.102 321.598 319.809 321.261 324.035C321.33 320.849 320 321.896 320 321.896C320 321.896 314.64 331.428 319.081 338.847C322.909 335.674 325.912 331.056 328.637 325.955C326.759 330.383 324.581 334.566 319.84 339.85Z" fill="#81C784"/>
<path fill-rule="evenodd" clip-rule="evenodd" d="M327.752 287.259C327.752 287.259 323.893 279.175 326.919 270.039C327.935 272.146 328.41 273.383 328.41 273.383C328.41 273.383 327.509 268.648 329.855 265.802C330.758 266.72 331.051 267.06 331.442 268.599C331.634 266.074 331.265 264.718 333.793 262.482C334.765 264.518 334.557 264.721 334.557 264.721C334.557 264.721 335.479 261.251 339.121 260.188C339.888 262.999 340.048 264.083 339.246 265.912C340.974 264.752 341.565 265.144 341.565 265.144C341.565 265.144 341.406 269.439 340.139 271.095C342.514 269.32 342.402 270.345 342.402 270.345C342.402 270.345 342.31 277.375 339.228 279.423C341.617 278.078 341.294 279.923 341.294 279.923C341.294 279.923 335.968 289.477 328.78 287.674C329.831 282.299 332.267 277.234 335.168 272.274C332.478 276.056 330.079 280.063 327.752 287.259Z" fill="#81C784"/>
<path fill-rule="evenodd" clip-rule="evenodd" d="M343.17 311.472C343.17 311.472 347.526 303.751 355.768 302.852C354.637 304.874 353.918 305.934 353.918 305.934C353.918 305.934 357.081 302.852 360.279 304.059C359.993 305.428 359.868 305.891 358.884 306.996C360.873 306.066 361.729 305.065 364.549 306.739C363.452 308.683 363.206 308.554 363.206 308.554C363.206 308.554 366.235 307.973 368.672 311.353C366.899 313.429 366.154 314.086 364.415 314.057C366.066 315.368 366.036 316.169 366.036 316.169C366.036 316.169 362.729 317.931 360.912 317.332C363.316 319.051 362.494 319.392 362.494 319.392C362.494 319.392 357.157 322.454 354.229 320.109C356.316 322.036 354.781 322.523 354.781 322.523C354.781 322.523 345.19 321.173 343.319 312.748C347.841 311.446 352.75 311.751 357.791 312.595C353.733 311.446 349.636 310.704 343.17 311.472Z" fill="#81C784"/>
<path fill-rule="evenodd" clip-rule="evenodd" d="M349.896 295.189C349.896 295.189 349.601 285.905 355.83 279.441C355.915 281.865 355.858 283.223 355.858 283.223C355.858 283.223 356.893 278.527 360.079 277.278C360.526 278.586 360.655 279.048 360.404 280.627C361.554 278.49 361.752 277.084 364.863 276.477C364.938 278.814 364.674 278.88 364.674 278.88C364.674 278.88 366.839 276.302 370.485 277.342C370.076 280.257 369.799 281.307 368.377 282.494C370.362 282.407 370.734 283.076 370.734 283.076C370.734 283.076 368.929 286.805 367.162 287.584C369.959 287.302 369.462 288.151 369.462 288.151C369.462 288.151 366.656 294.344 363.125 294.484C365.768 294.591 364.766 296.054 364.766 296.054C364.766 296.054 356.333 301.637 350.649 296.118C353.664 291.916 357.792 288.746 362.29 285.922C358.435 287.815 354.751 290.066 349.896 295.189Z" fill="#81C784"/>
<path fill-rule="evenodd" clip-rule="evenodd" d="M262.381 421.795C264.081 420.228 265.741 419.068 265.741 419.068C265.741 419.068 270.325 416.656 273.583 413.077C276.84 409.499 279.473 411.035 282.668 407.074C285.864 403.113 295.923 401.186 295.923 401.186C295.923 401.186 286.14 420.305 284.464 421.14C282.787 421.974 281.67 430.852 280.393 434.95C279.114 439.05 280.842 442.002 280.907 448.078C280.971 454.154 282.626 458.2 280.627 464.285C278.627 470.369 282.871 471.611 284.828 478.941C286.784 486.271 286.883 487.52 287.257 490.424C287.631 493.327 290.687 497.064 296.035 499.488C301.384 501.911 303.936 509.62 303.936 509.62C303.936 509.62 298.191 513.058 296.144 511.574C294.098 510.09 291.093 510.307 282.647 506.686C274.201 503.065 278.027 503.802 275.766 500.815C273.504 497.828 270.933 500.881 268.263 500.612C265.594 500.343 265.752 497.489 264.04 496.814C263.092 496.44 260.179 495.588 257.769 494.903C257.264 495.032 256.856 495.144 256.59 495.229C254.772 495.819 254.837 498.678 252.028 498.814C249.22 498.95 246.632 495.771 244.156 498.644C241.679 501.516 245.717 500.97 236.733 504.167C227.75 507.364 224.607 506.998 222.409 508.378C220.211 509.759 214.31 506.038 214.31 506.038C214.31 506.038 217.258 498.462 222.951 496.307C228.645 494.153 231.981 490.571 232.476 487.688C232.971 484.805 233.118 483.563 235.43 476.337C237.74 469.111 242.234 468.082 240.353 461.902C238.472 455.724 240.351 451.763 240.633 445.695C240.916 439.628 242.832 436.764 241.637 432.605C240.443 428.446 239.586 419.521 237.858 418.604C236.131 417.686 227.161 412.237 224.133 411.084C221.104 409.931 230.351 400.086 230.351 400.086C230.351 400.086 237.028 400.522 240.239 404.639C243.449 408.756 246.263 407.353 249.551 411.09C252.84 414.827 257.56 417.466 257.56 417.466C257.56 417.466 260.322 419.484 262.381 421.795Z" fill="#388E3C"/>
<path fill-rule="evenodd" clip-rule="evenodd" d="M267.959 418.055L270.765 402.842C270.765 402.842 286.13 398.137 291.285 397.097C296.44 396.057 311.655 392.557 313.899 391.305C316.145 390.053 323.099 391.439 326.808 385.911C330.516 380.384 337.559 380.863 340.58 375.084C341.299 373.708 344.553 369.635 348.027 362.319C349.991 358.179 351.367 351.86 352.706 347.062C354.197 347.874 354.132 350.713 353.403 354.848C353.403 354.848 352.443 358.653 351.736 362.654C350.683 368.607 348.799 369.381 345.599 376.044C342.4 382.707 343.416 384.427 340.181 385.596C336.947 386.764 335.535 390.043 332.805 391.99C330.075 393.938 333.161 395.018 327.475 396.355C321.79 397.692 320.399 400.166 317.841 403.513C315.283 406.86 314.903 406.208 311.597 406.058C308.292 405.908 292.244 408.67 284.553 412.451C276.863 416.231 267.959 418.055 267.959 418.055Z" fill="#388E3C"/>
<path fill-rule="evenodd" clip-rule="evenodd" d="M251.787 425.022C251.787 425.022 247.299 410.299 247.841 406.533C248.383 402.767 251.162 392.983 247.793 390.389C244.423 387.796 242.864 381.764 237.47 377.578C232.075 373.391 234.041 363.535 232.437 361.727C230.834 359.92 212.175 348.984 209.491 349.621C206.807 350.258 186.661 345.922 183.536 346.665C180.412 347.409 165.302 341.186 160.341 341.841C155.381 342.496 156.686 337.072 156.686 337.072C156.686 337.072 164.491 334.067 166.451 336.236C168.411 338.406 170.608 337.843 174.312 338.563C178.017 339.282 183.302 342.66 186.014 341.263C188.726 339.865 193.079 342.376 193.079 342.376C193.079 342.376 197.068 338.236 194.045 336.521C191.022 334.806 187.944 332.065 188.819 328.936C189.693 325.806 192.045 324.029 188.132 320.217C184.22 316.405 187.274 313.727 183.289 308.886C179.305 304.044 186.167 303.992 186.167 303.992L188.79 307.769C188.79 307.769 186.795 309.344 189.367 313.205C191.939 317.065 194.468 316.508 194.085 320.297C193.701 324.085 192.204 321.322 194.79 326.515C197.375 331.708 199.637 330.8 199.325 333.799C199.014 336.799 199.429 340.642 201.567 341.71C203.705 342.778 208.741 342.867 211.77 344.649C214.799 346.43 216.469 346.691 219.829 347.733C223.188 348.776 226.971 347.305 228.951 350.018C230.932 352.731 236.049 350.776 237.276 355.292C238.502 359.808 237.398 358.586 242.368 363.841C247.339 369.098 248.558 365.07 250.511 369.084C252.464 373.097 250.193 372.259 253.42 376.078C256.647 379.897 259.658 373.27 260.237 379.888C260.817 386.506 258.067 386.634 259.659 391.401C261.252 396.168 266.065 393.974 265.111 400.179C264.156 406.384 262.741 405.615 264.572 411.816C266.403 418.017 271.702 420.133 271.814 424.161C271.926 428.19 251.787 425.022 251.787 425.022Z" fill="#388E3C"/>
<path fill-rule="evenodd" clip-rule="evenodd" d="M246.752 370.03C246.752 370.03 243.467 363.075 243.51 360.894C243.553 358.713 246.027 350.667 247.632 347.932C249.236 345.198 249.999 340.362 249.016 337.79C248.032 335.216 248.284 331.919 246.377 329.169C244.47 326.419 241.745 322.591 236.735 321.492C231.725 320.393 230.533 316.984 229.18 313.14C227.827 309.297 225.823 295.289 225.823 295.289L228.753 295.996C228.753 295.996 230.021 301.68 230.344 305.113C230.666 308.546 232.545 307.96 235.378 312.719C238.211 317.477 239.585 314.382 242.815 316.642C246.046 318.902 247.97 319.456 250.644 321.857C253.318 324.259 258.123 326.334 257.185 329.142C256.247 331.95 256.883 332.293 256.497 336.881C256.111 341.47 259.454 338.536 257.143 344.621C254.834 350.706 254.784 349.183 253.928 355.166C253.072 361.15 252.89 361.7 254.439 366.629C255.989 371.558 260.054 374.526 259.157 379.051C258.26 383.578 252.651 386.129 252.651 386.129L246.752 370.03Z" fill="#388E3C"/>
<path fill-rule="evenodd" clip-rule="evenodd" d="M265.569 302.652C265.569 302.652 258.271 308.267 258.426 311.127C258.582 313.988 259.374 314.983 258.059 317.673C256.746 320.363 255.289 322.405 255.289 322.405L252.389 329.726L253.414 339.105L258.612 332.073L262.162 325.621C262.162 325.621 264.212 322.44 263.289 319.983C262.367 317.525 263.646 316.064 263.664 313.921C263.683 311.779 266.355 308.408 267.588 307.824C268.82 307.239 270.127 303.895 273.116 303.976C276.104 304.057 278.268 303.23 280.648 299.255C283.028 295.28 285.636 293.249 286.423 290.388C287.21 287.528 283.376 286.953 283.376 286.953C283.376 286.953 282.303 289.803 280.481 292.06C278.66 294.317 278.324 296.179 275.085 297.594C271.847 299.009 265.569 302.652 265.569 302.652Z" fill="#388E3C"/>
<path fill-rule="evenodd" clip-rule="evenodd" d="M253.194 373.262C253.194 373.262 256.391 369.842 260.718 375.575C265.045 381.308 268.351 380.622 268.098 385.193C267.845 389.764 269.119 391.5 270.732 395.307C272.343 399.115 274.651 401.638 274.073 405.801C273.494 409.964 277.127 416.741 275.566 420.463C274.004 424.185 266.666 427.317 266.666 427.317C266.666 427.317 258.289 422.384 258.165 419.292C258.042 416.2 257.413 400.611 257.413 400.611L253.549 387.253L253.194 373.262Z" fill="#388E3C"/>
<path fill-rule="evenodd" clip-rule="evenodd" d="M292.51 397.106L301.565 392.536C301.565 392.536 305.441 387.009 304.868 384.138C304.295 381.267 305.141 377.624 306.504 374.958C307.867 372.292 311.317 367.419 311.843 364.531C312.37 361.642 314.914 357.601 314.914 357.601C314.914 357.601 321.485 352.475 318.972 358.177C316.46 363.879 317.535 364.013 315.582 367.282C313.628 370.551 313.868 371.291 312.127 375.658C310.386 380.025 312.826 378.048 311.286 382.83C309.747 387.611 310.089 385.552 309.643 389.93C309.198 394.307 311.343 396.079 309.975 397.484C308.608 398.889 292.51 397.106 292.51 397.106Z" fill="#388E3C"/>
<path fill-rule="evenodd" clip-rule="evenodd" d="M333.638 388.034L340.635 385.293C340.635 385.293 344.709 384.827 346.616 387.163C348.521 389.499 350.101 389.525 352.835 389.184C355.569 388.844 357.829 388.168 359.552 390.416C361.276 392.665 365.527 393.504 365.527 393.504L369.534 394.27L373.125 392.824L368.314 389.845C368.314 389.845 365.396 389.12 364.191 388.079C362.986 387.037 362.247 386.311 360.059 386.236C357.871 386.16 358.299 386.099 356.53 384.554C354.762 383.009 356.097 383.359 353.265 383.253C350.432 383.147 342.336 377.984 342.336 377.984L333.638 388.034Z" fill="#388E3C"/>
<path fill-rule="evenodd" clip-rule="evenodd" d="M236.457 402.999C236.457 402.999 238.239 407.669 236.066 408.934C233.893 410.2 231.532 410.794 229.789 415.598C228.046 420.402 226.209 424.557 225.147 430.46C224.086 436.363 222.54 439.277 220.955 442.096L215.509 442.192C215.509 442.192 217.679 440.995 220.304 434.687C222.929 428.379 221.595 430.566 221.781 424.679C221.968 418.792 223.789 417.243 225.638 413.162C227.487 409.082 227.092 409.446 226.165 409.18C225.239 408.915 224.378 410.618 223.035 407.935C221.976 405.818 221.316 409.782 216.197 408.949C211.079 408.115 212.067 407.416 210.733 406.921C209.4 406.425 206.617 407.16 203.542 408.025C200.467 408.89 190.176 409.861 186.913 410.8C183.65 411.738 181.675 409.37 179.482 407.72C177.289 406.071 179.912 400.89 175.056 401.482C170.201 402.075 168.928 398.66 166.739 398.77C164.55 398.879 162.223 390.213 162.223 390.213L164.49 376.172L166.871 376.957C166.871 376.957 166.821 381.365 167.107 385.636C167.392 389.907 168.291 391.247 169.922 392.059C171.553 392.871 169.422 392.645 173.247 393.566C177.071 394.487 178.354 396.198 179.712 397.177C181.07 398.156 182.323 398.981 182.97 400.573C183.618 402.165 184.069 403.175 186.314 403.032C188.559 402.89 189.173 405.222 191.136 403.549C193.1 401.877 193.973 403.42 195.431 402.119C196.888 400.819 198.962 400.478 199.954 399.698C200.946 398.919 202.648 398.726 204.805 399.003C206.962 399.28 208.676 399.775 210.948 399.43C213.22 399.083 214.046 398.445 215.447 398.087C216.848 397.73 222.918 394.897 224.578 395.167C226.238 395.436 231.613 395.7 231.613 395.7L236.457 402.999Z" fill="#388E3C"/>
<path fill-rule="evenodd" clip-rule="evenodd" d="M282.242 400.922L274.794 407.048L272.767 424.463L276.964 408.574L282.242 400.922Z" fill="#2E7D32"/>
<path fill-rule="evenodd" clip-rule="evenodd" d="M265.554 382.34C265.554 382.34 271.904 375.151 274.112 373.042C276.319 370.932 281.606 368.631 282.694 364.56C283.783 360.49 284.572 358.791 283.586 353.067C282.6 347.344 283.647 342.656 284.046 339.105C284.445 335.555 292.174 330.945 292.174 330.945L296.275 331.653C296.275 331.653 293.734 336.741 291.613 337.677C289.492 338.612 287.966 334.913 288.309 342.058C288.653 349.203 288.192 349.332 289.438 352.253C290.683 355.173 293.139 354.227 292.353 359.224C291.568 364.222 293.918 364.93 290.445 367.572C286.973 370.214 288.547 370.028 284.167 373.121C279.787 376.215 280.14 375.338 277.236 379.713C274.333 384.088 274.463 382.027 273.039 386.734C271.614 391.44 270.532 385.146 270.657 395.467C270.783 405.788 271.658 410.503 270.291 410.966C268.924 411.43 266.731 404.467 265.654 402.235" fill="#388E3C"/>
<path fill-rule="evenodd" clip-rule="evenodd" d="M324.564 314.117C324.564 314.117 315.845 317.035 315.743 319.492C315.641 321.949 313.575 328.752 314.813 331.192C316.052 333.633 316.246 337.924 315.817 341.377C315.389 344.83 313.255 351.606 311.253 351.571C309.25 351.536 304.117 355.687 302.099 355.697C300.081 355.707 292.028 359.279 290.499 360.456L291.165 355.699C291.165 355.699 301.213 351.984 304.782 349.684C308.351 347.383 308.806 346.177 309.673 343.717C310.54 341.257 311.057 340.581 310.926 337.523C310.794 334.463 311.01 333.506 310.901 330.266C310.792 327.026 310.579 327.859 311.761 322.999C312.942 318.14 315.696 314.548 315.696 314.548L324.564 314.117Z" fill="#388E3C"/>
<path fill-rule="evenodd" clip-rule="evenodd" d="M312.315 405.944C312.315 405.944 322.876 405.107 324.507 407.968C326.138 410.828 333.133 408.858 335.589 409.536C338.045 410.214 342.195 411.271 343.444 412.437C344.694 413.603 346.947 416.365 346.128 418.633C345.31 420.901 342.63 431.386 342.63 431.386C342.63 431.386 346.471 431.391 346.808 429.283C347.145 427.176 348.973 424.73 349.006 421.963C349.039 419.197 351.066 417.562 350.355 414.219C349.644 410.874 350.9 408.421 347.964 407.984C345.028 407.548 344.584 409.439 340.882 405.794C337.18 402.15 336.857 401.742 334.939 401.427C333.021 401.112 333.673 402.942 330.746 401.719C327.819 400.496 327.729 400.067 325.395 399.905C323.061 399.743 318.827 397.75 318.827 397.75L312.315 405.944Z" fill="#388E3C"/>
<path fill-rule="evenodd" clip-rule="evenodd" d="M244.279 435.68L243.45 444.267L244.603 453.614L242.949 463.236L247.564 454.249L245.668 448.198L244.279 435.68Z" fill="#2E7D32"/>
<path fill-rule="evenodd" clip-rule="evenodd" d="M248.254 383.57L253.075 394.65L253.515 404.413L255.767 411.613L255.938 394.108L248.254 383.57Z" fill="#2E7D32"/>
<path fill-rule="evenodd" clip-rule="evenodd" d="M257.984 435.602L255.567 455.335L251.546 475.995L254.389 450.666L253.066 440.365L256.896 444.486L257.984 435.602Z" fill="#2E7D32"/>
<path fill-rule="evenodd" clip-rule="evenodd" d="M249.476 409.334L253.378 417.341L255.391 438.287L256.839 417.26L249.476 409.334Z" fill="#2E7D32"/>
</svg>
