<svg width="215" height="158" viewBox="0 0 215 158" fill="none" xmlns="http://www.w3.org/2000/svg">
<g clip-path="url(#clip0_103_3)">
<path fill-rule="evenodd" clip-rule="evenodd" d="M204.323 50.88C206.76 59.8675 201.113 72.205 185.206 85.2688C169.777 97.9403 146.461 109.674 118.888 117.151C91.3146 124.628 65.2647 126.281 45.5478 123.14C25.2205 119.902 14.1144 112.108 11.6772 103.12C9.24006 94.1325 14.8869 81.795 30.7936 68.7313C32.5648 67.2766 34.4399 65.8344 36.4134 64.4095L36.4134 57.0939C14.1061 72.1492 1.83178 89.7383 5.88638 104.69C12.7668 130.063 64.0622 138.234 120.458 122.941C176.854 107.649 216.994 74.6824 210.114 49.3096C205.956 33.9789 185.584 24.9282 157.669 23.5388L157.669 29.5465C162.165 29.78 166.44 30.2206 170.452 30.8597C190.779 34.0978 201.886 41.8924 204.323 50.88Z" fill="white"/>
<circle cx="108.5" cy="77.5" r="44.5" stroke="white" stroke-width="6"/>
<circle cx="108.5" cy="77.5" r="11" stroke="white" stroke-width="5"/>
<line y1="-1.25" x2="42.5183" y2="-1.25" transform="matrix(0.960546 -0.278122 0.245243 0.969462 110 90.8253)" stroke="white" stroke-width="2.5"/>
<line y1="-1.25" x2="42.5183" y2="-1.25" transform="matrix(0.960546 -0.278122 0.245243 0.969462 67 77.8253)" stroke="white" stroke-width="2.5"/>
<line y1="-1.25" x2="42.5183" y2="-1.25" transform="matrix(-0.245243 -0.969462 0.960546 -0.278122 108.427 121.22)" stroke="white" stroke-width="2.5"/>
<line y1="-1.25" x2="42.5183" y2="-1.25" transform="matrix(-0.245243 -0.969462 0.960546 -0.278122 122.427 76.2198)" stroke="white" stroke-width="2.5"/>
<line x1="99.59" y1="70.6217" x2="78.0844" y2="108.13" stroke="white" stroke-width="2.5"/>
<line x1="139.59" y1="47.6217" x2="118.084" y2="85.1303" stroke="white" stroke-width="2.5"/>
<line x1="102.622" y1="87.9156" x2="138.874" y2="108.701" stroke="white" stroke-width="2.5"/>
<line x1="79.6217" y1="46.9156" x2="115.874" y2="67.7007" stroke="white" stroke-width="2.5"/>
<circle cx="108.5" cy="77.5" r="70.5" stroke="white" stroke-width="8"/>
</g>
<defs>
<clipPath id="clip0_103_3">
<rect width="215" height="158" fill="white"/>
</clipPath>
</defs>
</svg>
