<svg width="274" height="348" viewBox="0 0 274 348" fill="none" xmlns="http://www.w3.org/2000/svg">
<path fill-rule="evenodd" clip-rule="evenodd" d="M233.323 135.88C235.76 144.868 230.113 157.205 214.206 170.269C198.777 182.94 175.461 194.674 147.888 202.151C120.315 209.628 94.2647 211.281 74.5478 208.14C54.2205 204.902 43.1144 197.108 40.6773 188.12C38.2401 179.132 43.8869 166.795 59.7936 153.731C61.5648 152.277 63.4399 150.834 65.4134 149.41L65.4134 142.094C43.1061 157.149 30.8318 174.738 34.8864 189.69C41.7668 215.063 93.0623 223.234 149.458 207.941C205.854 192.649 245.994 159.682 239.114 134.31C234.956 118.979 214.584 109.928 186.669 108.539L186.669 114.547C191.165 114.78 195.44 115.221 199.452 115.86C219.779 119.098 230.886 126.892 233.323 135.88Z" fill="white"/>
<circle cx="137.5" cy="162.5" r="44.5" stroke="white" stroke-width="6"/>
<circle cx="137.5" cy="162.5" r="11" stroke="white" stroke-width="5"/>
<line y1="-1.25" x2="42.5183" y2="-1.25" transform="matrix(0.960546 -0.278122 0.245243 0.969462 139 175.825)" stroke="white" stroke-width="2.5"/>
<line y1="-1.25" x2="42.5183" y2="-1.25" transform="matrix(0.960546 -0.278122 0.245243 0.969462 96 162.825)" stroke="white" stroke-width="2.5"/>
<line y1="-1.25" x2="42.5183" y2="-1.25" transform="matrix(-0.245243 -0.969462 0.960546 -0.278122 137.427 206.22)" stroke="white" stroke-width="2.5"/>
<line y1="-1.25" x2="42.5183" y2="-1.25" transform="matrix(-0.245243 -0.969462 0.960546 -0.278122 151.427 161.22)" stroke="white" stroke-width="2.5"/>
<line x1="128.59" y1="155.622" x2="107.084" y2="193.13" stroke="white" stroke-width="2.5"/>
<line x1="168.59" y1="132.622" x2="147.084" y2="170.13" stroke="white" stroke-width="2.5"/>
<line x1="131.622" y1="172.916" x2="167.874" y2="193.701" stroke="white" stroke-width="2.5"/>
<line x1="108.622" y1="131.916" x2="144.874" y2="152.701" stroke="white" stroke-width="2.5"/>
<circle cx="137.5" cy="162.5" r="70.5" stroke="white" stroke-width="8"/>
<path d="M61.9702 264.645C61.4482 263.64 60.7232 262.886 59.7952 262.383C58.8672 261.861 57.7942 261.6 56.5762 261.6C55.2422 261.6 54.0532 261.9 53.0092 262.499C51.9652 263.098 51.1435 263.949 50.5442 265.051C49.9642 266.153 49.6742 267.429 49.6742 268.879C49.6742 270.329 49.9642 271.615 50.5442 272.736C51.1435 273.838 51.9652 274.689 53.0092 275.288C54.0532 275.887 55.2422 276.187 56.5762 276.187C58.3742 276.187 59.8339 275.684 60.9552 274.679C62.0765 273.674 62.7629 272.311 63.0142 270.59H55.4452V267.951H66.5522V270.532C66.3395 272.098 65.7789 273.538 64.8702 274.853C63.9809 276.168 62.8112 277.221 61.3612 278.014C59.9305 278.787 58.3355 279.174 56.5762 279.174C54.6815 279.174 52.9512 278.739 51.3852 277.869C49.8192 276.98 48.5722 275.752 47.6442 274.186C46.7355 272.62 46.2812 270.851 46.2812 268.879C46.2812 266.907 46.7355 265.138 47.6442 263.572C48.5722 262.006 49.8192 260.788 51.3852 259.918C52.9705 259.029 54.7009 258.584 56.5762 258.584C58.7222 258.584 60.6265 259.116 62.2892 260.179C63.9712 261.223 65.1892 262.712 65.9432 264.645H61.9702ZM90.4319 279L85.7919 270.938H83.2689V279H79.9629V258.845H86.9229C88.4696 258.845 89.7746 259.116 90.8379 259.657C91.9206 260.198 92.7229 260.923 93.2449 261.832C93.7862 262.741 94.0569 263.756 94.0569 264.877C94.0569 266.192 93.6702 267.39 92.8969 268.473C92.1429 269.536 90.9732 270.261 89.3879 270.648L94.3759 279H90.4319ZM83.2689 268.299H86.9229C88.1602 268.299 89.0882 267.99 89.7069 267.371C90.3449 266.752 90.6639 265.921 90.6639 264.877C90.6639 263.833 90.3546 263.021 89.7359 262.441C89.1172 261.842 88.1796 261.542 86.9229 261.542H83.2689V268.299ZM120.587 274.882H112.148L110.698 279H107.247L114.468 258.816H118.296L125.517 279H122.037L120.587 274.882ZM119.659 272.185L116.382 262.818L113.076 272.185H119.659ZM156.178 258.845L148.609 279H144.781L137.183 258.845H140.721L146.695 275.607L152.698 258.845H156.178ZM172.399 258.845V279H169.093V258.845H172.399ZM199.91 258.845V261.542H194.545V279H191.239V261.542H185.845V258.845H199.91ZM228.343 258.845L221.673 271.692V279H218.367V271.692L211.668 258.845H215.351L220.02 268.734L224.689 258.845H228.343Z" fill="white"/>
<path d="M96.2699 290.795V292.562H90.6649V296.457H95.0349V298.224H90.6649V304H88.4989V290.795H96.2699ZM112.793 290.795V304H110.627V290.795H112.793ZM130.153 302.252H134.618V304H127.987V290.795H130.153V302.252ZM162.687 290.795V304H160.521V294.956L156.493 304H154.992L150.945 294.956V304H148.779V290.795H151.116L155.752 301.15L160.369 290.795H162.687ZM182.235 304.133C181.349 304.133 180.551 303.981 179.841 303.677C179.132 303.36 178.575 302.917 178.169 302.347C177.764 301.777 177.561 301.112 177.561 300.352H179.879C179.93 300.922 180.152 301.391 180.544 301.758C180.95 302.125 181.513 302.309 182.235 302.309C182.983 302.309 183.565 302.132 183.983 301.777C184.401 301.41 184.61 300.941 184.61 300.371C184.61 299.928 184.477 299.567 184.211 299.288C183.958 299.009 183.635 298.794 183.242 298.642C182.862 298.49 182.33 298.325 181.646 298.148C180.785 297.92 180.082 297.692 179.537 297.464C179.005 297.223 178.549 296.856 178.169 296.362C177.789 295.868 177.599 295.209 177.599 294.386C177.599 293.626 177.789 292.961 178.169 292.391C178.549 291.821 179.081 291.384 179.765 291.08C180.449 290.776 181.241 290.624 182.14 290.624C183.42 290.624 184.465 290.947 185.275 291.593C186.099 292.226 186.555 293.1 186.643 294.215H184.249C184.211 293.734 183.983 293.322 183.565 292.98C183.147 292.638 182.596 292.467 181.912 292.467C181.292 292.467 180.785 292.625 180.392 292.942C180 293.259 179.803 293.715 179.803 294.31C179.803 294.715 179.924 295.051 180.164 295.317C180.418 295.57 180.734 295.773 181.114 295.925C181.494 296.077 182.014 296.242 182.672 296.419C183.546 296.66 184.256 296.9 184.8 297.141C185.358 297.382 185.826 297.755 186.206 298.262C186.599 298.756 186.795 299.421 186.795 300.257C186.795 300.928 186.612 301.562 186.244 302.157C185.89 302.752 185.364 303.234 184.667 303.601C183.983 303.956 183.173 304.133 182.235 304.133Z" fill="white"/>
</svg>
